JetBrainsMono-ExtraBold.ufo
<glyph name="quotesingle" format="2">
  <advance width="600" height="985"/>
  <unicode hex="0027"/>
  <outline>
    <contour>
      <point x="226" y="730" type="line"/>
      <point x="374" y="730" type="line"/>
      <point x="374" y="570" type="line"/>
      <point x="361" y="430" type="line"/>
      <point x="240" y="430" type="line"/>
      <point x="226" y="570" type="line"/>
    </contour>
  </outline>
</glyph>
<glyph name="asterisk" format="2">
  <advance width="600" height="985"/>
  <unicode hex="002A"/>
  <outline>
    <contour>
      <point x="235" y="610" type="line"/>
      <point x="365" y="610" type="line"/>
      <point x="365" y="555" type="line" smooth="yes"/>
      <point x="365" y="475"/>
      <point x="312" y="350"/>
      <point x="312" y="350" type="curve"/>
      <point x="288" y="350" type="line"/>
      <point x="288" y="350"/>
      <point x="235" y="475"/>
      <point x="235" y="555" type="curve" smooth="yes"/>
    </contour>
    <contour>
      <point x="245" y="348" type="line"/>
      <point x="300" y="393" type="line"/>
      <point x="355" y="348" type="line"/>
      <point x="330" y="299" type="line"/>
      <point x="270" y="299" type="line"/>
    </contour>
    <contour>
      <point x="27" y="367" type="line"/>
      <point x="71" y="489" type="line"/>
      <point x="123" y="470" type="line" smooth="yes"/>
      <point x="198" y="443"/>
      <point x="297" y="350"/>
      <point x="297" y="350" type="curve"/>
      <point x="289" y="327" type="line"/>
      <point x="289" y="327"/>
      <point x="153" y="320"/>
      <point x="78" y="348" type="curve" smooth="yes"/>
    </contour>
    <contour>
      <point x="528" y="489" type="line"/>
      <point x="573" y="367" type="line"/>
      <point x="521" y="348" type="line" smooth="yes"/>
      <point x="446" y="320"/>
      <point x="310" y="327"/>
      <point x="310" y="327" type="curve"/>
      <point x="302" y="350" type="line"/>
      <point x="302" y="350"/>
      <point x="401" y="443"/>
      <point x="476" y="470" type="curve" smooth="yes"/>
    </contour>
    <contour>
      <point x="197" y="82" type="line"/>
      <point x="91" y="156" type="line"/>
      <point x="122" y="201" type="line" smooth="yes"/>
      <point x="168" y="267"/>
      <point x="283" y="339"/>
      <point x="283" y="339" type="curve"/>
      <point x="303" y="325" type="line"/>
      <point x="303" y="325"/>
      <point x="275" y="192"/>
      <point x="229" y="127" type="curve" smooth="yes"/>
    </contour>
    <contour>
      <point x="509" y="156" type="line"/>
      <point x="403" y="82" type="line"/>
      <point x="371" y="127" type="line" smooth="yes"/>
      <point x="325" y="192"/>
      <point x="297" y="325"/>
      <point x="297" y="325" type="curve"/>
      <point x="317" y="339" type="line"/>
      <point x="317" y="339"/>
      <point x="432" y="267"/>
      <point x="478" y="202" type="curve" smooth="yes"/>
    </contour>
  </outline>
</glyph>
<glyph name="plus" format="2">
  <advance width="600" height="985"/>
  <unicode hex="002B"/>
  <outline>
    <contour>
      <point x="375" y="570" type="line"/>
      <point x="375" y="400" type="line"/>
      <point x="545" y="400" type="line"/>
      <point x="545" y="260" type="line"/>
      <point x="375" y="260" type="line"/>
      <point x="375" y="90" type="line"/>
      <point x="225" y="90" type="line"/>
      <point x="225" y="260" type="line"/>
      <point x="55" y="260" type="line"/>
      <point x="55" y="400" type="line"/>
      <point x="225" y="400" type="line"/>
      <point x="225" y="570" type="line"/>
    </contour>
  </outline>
</glyph>
<glyph name="hyphen" format="2">
  <advance width="600" height="985"/>
  <unicode hex="002D"/>
  <outline>
    <contour>
      <point x="100" y="400" type="line"/>
      <point x="500" y="400" type="line"/>
      <point x="500" y="260" type="line"/>
      <point x="100" y="260" type="line"/>
    </contour>
  </outline>
</glyph>
<glyph name="period" format="2">
  <advance width="600" height="985"/>
  <unicode hex="002E"/>
  <outline>
    <contour>
      <point x="195" y="94" type="curve" smooth="yes"/>
      <point x="195" y="158"/>
      <point x="237" y="200"/>
      <point x="300" y="200" type="curve" smooth="yes"/>
      <point x="364" y="200"/>
      <point x="405" y="158"/>
      <point x="405" y="94" type="curve" smooth="yes"/>
      <point x="405" y="32"/>
      <point x="364" y="-10"/>
      <point x="300" y="-10" type="curve" smooth="yes"/>
      <point x="237" y="-10"/>
      <point x="195" y="32"/>
    </contour>
  </outline>
</glyph>
<glyph name="zero" format="2">
  <advance width="600" height="985"/>
  <unicode hex="0030"/>
  <outline>
    <contour>
      <point x="250" y="380" type="line" smooth="yes" name="sh02"/>
      <point x="250" y="413"/>
      <point x="270" y="435"/>
      <point x="300" y="435" type="curve" smooth="yes" name="dv02"/>
      <point x="330" y="435"/>
      <point x="350" y="413"/>
      <point x="350" y="380" type="curve" smooth="yes" name="sh03"/>
      <point x="350" y="340" type="line" smooth="yes"/>
      <point x="350" y="307"/>
      <point x="330" y="285"/>
      <point x="300" y="285" type="curve" smooth="yes" name="dv01"/>
      <point x="270" y="285"/>
      <point x="250" y="307"/>
      <point x="250" y="340" type="curve" smooth="yes"/>
    </contour>
    <contour>
      <point x="188" y="220" type="line" smooth="yes" name="sh04"/>
      <point x="188" y="159"/>
      <point x="233" y="119"/>
      <point x="300" y="119" type="curve" smooth="yes" name="sv01"/>
      <point x="367" y="119"/>
      <point x="412" y="159"/>
      <point x="412" y="220" type="curve" smooth="yes" name="sh05"/>
      <point x="412" y="501" type="line" smooth="yes"/>
      <point x="412" y="562"/>
      <point x="367" y="602"/>
      <point x="300" y="602" type="curve" smooth="yes" name="sv02"/>
      <point x="233" y="602"/>
      <point x="188" y="562"/>
      <point x="188" y="501" type="curve" smooth="yes"/>
    </contour>
    <contour>
      <point x="48" y="215" type="curve" smooth="yes" name="sh01"/>
      <point x="48" y="506" type="line" smooth="yes"/>
      <point x="48" y="641"/>
      <point x="148" y="730"/>
      <point x="300" y="730" type="curve" smooth="yes" name="at01"/>
      <point x="452" y="730"/>
      <point x="552" y="641"/>
      <point x="552" y="506" type="curve" smooth="yes"/>
      <point x="552" y="215" type="line" smooth="yes" name="sh06"/>
      <point x="552" y="81"/>
      <point x="450" y="-10"/>
      <point x="300" y="-10" type="curve" smooth="yes" name="ab01"/>
      <point x="148" y="-10"/>
      <point x="48" y="79"/>
    </contour>
  </outline>
</glyph>
<glyph name="one" format="2">
  <advance width="600" height="985"/>
  <unicode hex="0031"/>
  <outline>
    <contour>
      <point x="74" y="600" type="line"/>
      <point x="255" y="720" type="line" name="at01"/>
      <point x="420" y="720" type="line"/>
      <point x="420" y="130" type="line" name="sv01"/>
      <point x="570" y="130" type="line"/>
      <point x="570" y="0" type="line" name="ab01"/>
      <point x="70" y="0" type="line"/>
      <point x="70" y="130" type="line" name="sv02"/>
      <point x="270" y="130" type="line" name="sv03"/>
      <point x="270" y="487" type="line" smooth="yes"/>
      <point x="270" y="543"/>
      <point x="280" y="579"/>
      <point x="280" y="579" type="curve"/>
      <point x="272" y="579" type="line"/>
      <point x="272" y="579"/>
      <point x="242" y="554"/>
      <point x="211" y="534" type="curve" smooth="yes"/>
      <point x="74" y="445" type="line" name="iv01"/>
    </contour>
  </outline>
</glyph>
<glyph name="two" format="2">
  <advance width="600" height="985"/>
  <unicode hex="0032"/>
  <outline>
    <contour>
      <point x="546" y="511" type="curve" smooth="yes" name="sh01"/>
      <point x="546" y="416"/>
      <point x="501" y="342"/>
      <point x="390" y="254" type="curve" smooth="yes" name="sh02"/>
      <point x="298" y="181" type="line" smooth="yes"/>
      <point x="256" y="148"/>
      <point x="216" y="136"/>
      <point x="216" y="136" type="curve"/>
      <point x="216" y="132" type="line"/>
      <point x="216" y="132"/>
      <point x="260" y="135"/>
      <point x="315" y="135" type="curve" smooth="yes" name="sv01"/>
      <point x="556" y="135" type="line"/>
      <point x="556" y="0" type="line" name="ab01"/>
      <point x="50" y="0" type="line" name="sh04"/>
      <point x="50" y="155" type="line"/>
      <point x="307" y="359" type="line" smooth="yes"/>
      <point x="368" y="407"/>
      <point x="396" y="452"/>
      <point x="396" y="502" type="curve" smooth="yes" name="ah01"/>
      <point x="396" y="561"/>
      <point x="358" y="599"/>
      <point x="299" y="599" type="curve" smooth="yes" name="sv02"/>
      <point x="237" y="599"/>
      <point x="195" y="563"/>
      <point x="195" y="510" type="curve" name="sv03"/>
      <point x="45" y="510" type="line" name="sh03"/>
      <point x="45" y="642"/>
      <point x="147" y="730"/>
      <point x="302" y="730" type="curve" smooth="yes" name="at01"/>
      <point x="447" y="730"/>
      <point x="546" y="642"/>
    </contour>
  </outline>
</glyph>
<glyph name="five" format="2">
  <advance width="600" height="985"/>
  <unicode hex="0035"/>
  <outline>
    <contour>
      <point x="350" y="464" type="curve" smooth="yes" name="dv02"/>
      <point x="477" y="464"/>
      <point x="560" y="380"/>
      <point x="560" y="250" type="curve" smooth="yes"/>
      <point x="560" y="215" type="line" smooth="yes" name="dh02"/>
      <point x="560" y="77"/>
      <point x="459" y="-10"/>
      <point x="304" y="-10" type="curve" smooth="yes" name="ab01"/>
      <point x="164" y="-10"/>
      <point x="66" y="62"/>
      <point x="50" y="175" type="curve" name="sv01"/>
      <point x="200" y="175" type="line"/>
      <point x="212" y="139"/>
      <point x="254" y="115"/>
      <point x="304" y="115" type="curve" smooth="yes" name="sv02"/>
      <point x="368" y="115"/>
      <point x="410" y="155"/>
      <point x="410" y="215" type="curve" smooth="yes" name="dh01"/>
      <point x="410" y="250" type="line" smooth="yes"/>
      <point x="410" y="310"/>
      <point x="368" y="350"/>
      <point x="304" y="350" type="curve" smooth="yes" name="dv01"/>
      <point x="264" y="350"/>
      <point x="232" y="339"/>
      <point x="216" y="320" type="curve"/>
      <point x="71" y="320" type="line"/>
      <point x="76" y="720" type="line" name="at01"/>
      <point x="533" y="720" type="line"/>
      <point x="533" y="590" type="line" name="sv03"/>
      <point x="218" y="590" type="line"/>
      <point x="214" y="389" type="line"/>
      <point x="218" y="389" type="line"/>
      <point x="218" y="389"/>
      <point x="243" y="464"/>
    </contour>
  </outline>
</glyph>
<glyph name="six" format="2">
  <advance width="600" height="985"/>
  <unicode hex="0036"/>
  <outline>
    <contour>
      <point x="300" y="-10" type="curve" smooth="yes" name="ab01"/>
      <point x="141" y="-10"/>
      <point x="40" y="86"/>
      <point x="40" y="234.637" type="curve" smooth="yes" name="sh01"/>
      <point x="40" y="327"/>
      <point x="79" y="415"/>
      <point x="154" y="527" type="curve" smooth="yes"/>
      <point x="284" y="720" type="line" name="at01"/>
      <point x="451" y="720" type="line" name="ih01"/>
      <point x="286" y="479" type="line" smooth="yes"/>
      <point x="213" y="373"/>
      <point x="209" y="365"/>
      <point x="209" y="365" type="curve"/>
      <point x="215" y="365" type="line"/>
      <point x="215" y="365"/>
      <point x="262" y="446"/>
      <point x="357" y="446" type="curve" smooth="yes" name="dv02"/>
      <point x="478" y="446"/>
      <point x="560" y="358"/>
      <point x="560" y="226" type="curve" smooth="yes" name="sh02"/>
      <point x="560" y="84"/>
      <point x="457" y="-10"/>
    </contour>
    <contour>
      <point x="190" y="225" type="curve" smooth="yes" name="sh03"/>
      <point x="190" y="158"/>
      <point x="233" y="115"/>
      <point x="300" y="115" type="curve" smooth="yes" name="sv01"/>
      <point x="367" y="115"/>
      <point x="410" y="158"/>
      <point x="410" y="225" type="curve" smooth="yes" name="ah01"/>
      <point x="410" y="292"/>
      <point x="367" y="335"/>
      <point x="300" y="335" type="curve" smooth="yes" name="dv01"/>
      <point x="234" y="335"/>
      <point x="190" y="291"/>
    </contour>
  </outline>
</glyph>
<glyph name="eight" format="2">
  <advance width="600" height="985"/>
  <unicode hex="0038"/>
  <outline>
    <contour>
      <point x="300" y="320" type="curve" smooth="yes" name="dv01"/>
      <point x="368" y="320"/>
      <point x="411" y="279"/>
      <point x="411" y="215" type="curve" smooth="yes" name="dh03"/>
      <point x="411" y="154"/>
      <point x="368" y="110"/>
      <point x="300" y="110" type="curve" smooth="yes" name="sv01"/>
      <point x="233" y="110"/>
      <point x="190" y="154"/>
      <point x="190" y="215" type="curve" smooth="yes" name="dh02"/>
      <point x="190" y="279"/>
      <point x="233" y="320"/>
    </contour>
    <contour>
      <point x="300" y="620" type="curve" smooth="yes" name="sv02"/>
      <point x="362" y="620"/>
      <point x="404" y="584"/>
      <point x="404" y="531" type="curve" smooth="yes" name="sh01"/>
      <point x="404" y="473"/>
      <point x="362" y="430"/>
      <point x="300" y="430" type="curve" smooth="yes" name="dv02"/>
      <point x="237" y="430"/>
      <point x="195" y="474"/>
      <point x="195" y="531" type="curve" smooth="yes" name="sh02"/>
      <point x="195" y="584"/>
      <point x="237" y="620"/>
    </contour>
    <contour>
      <point x="300" y="730" type="curve" smooth="yes" name="at01"/>
      <point x="149" y="730"/>
      <point x="55" y="657"/>
      <point x="55" y="539" type="curve" smooth="yes" name="sh03"/>
      <point x="55" y="454"/>
      <point x="113" y="387"/>
      <point x="201" y="378" type="curve"/>
      <point x="201" y="374" type="line" name="iv01"/>
      <point x="104" y="358"/>
      <point x="40" y="292"/>
      <point x="40" y="200" type="curve" smooth="yes" name="dh01"/>
      <point x="40" y="75"/>
      <point x="141" y="-10"/>
      <point x="300" y="-10" type="curve" smooth="yes" name="ab01"/>
      <point x="458" y="-10"/>
      <point x="560" y="72"/>
      <point x="560" y="200" type="curve" smooth="yes" name="sh04"/>
      <point x="560" y="292"/>
      <point x="496" y="358"/>
      <point x="399" y="374" type="curve"/>
      <point x="399" y="378" type="line" name="iv02"/>
      <point x="487" y="387"/>
      <point x="545" y="454"/>
      <point x="545" y="539" type="curve" smooth="yes" name="dh04"/>
      <point x="545" y="657"/>
      <point x="451" y="730"/>
    </contour>
  </outline>
</glyph>
<glyph name="nine" format="2">
  <advance width="600" height="985"/>
  <unicode hex="0039"/>
  <outline>
    <contour>
      <point x="300" y="730" type="curve" smooth="yes" name="at01"/>
      <point x="459" y="730"/>
      <point x="560" y="634"/>
      <point x="560" y="485.363" type="curve" smooth="yes" name="sh01"/>
      <point x="560" y="393"/>
      <point x="521" y="305"/>
      <point x="446" y="193" type="curve" smooth="yes"/>
      <point x="316" y="0" type="line" name="ab01"/>
      <point x="149" y="0" type="line" name="ih01"/>
      <point x="314" y="241" type="line" smooth="yes"/>
      <point x="387" y="347"/>
      <point x="391" y="355"/>
      <point x="391" y="355" type="curve"/>
      <point x="385" y="355" type="line"/>
      <point x="385" y="355"/>
      <point x="338" y="274"/>
      <point x="243" y="274" type="curve" smooth="yes" name="dv01"/>
      <point x="122" y="274"/>
      <point x="40" y="362"/>
      <point x="40" y="494" type="curve" smooth="yes" name="sh02"/>
      <point x="40" y="636"/>
      <point x="143" y="730"/>
    </contour>
    <contour>
      <point x="190" y="495" type="curve" smooth="yes" name="sh03"/>
      <point x="190" y="428"/>
      <point x="233" y="385"/>
      <point x="300" y="385" type="curve" smooth="yes" name="dv02"/>
      <point x="366" y="385"/>
      <point x="410" y="429"/>
      <point x="410" y="495" type="curve" smooth="yes" name="ah01"/>
      <point x="410" y="562"/>
      <point x="367" y="605"/>
      <point x="300" y="605" type="curve" smooth="yes" name="sv01"/>
      <point x="233" y="605"/>
      <point x="190" y="562"/>
    </contour>
  </outline>
</glyph>
<glyph name="colon" format="2">
  <advance width="600" height="985"/>
  <unicode hex="003A"/>
  <outline>
    <contour>
      <point x="200" y="85" type="curve" smooth="yes"/>
      <point x="200" y="145"/>
      <point x="241" y="186"/>
      <point x="300" y="186" type="curve" smooth="yes"/>
      <point x="359" y="186"/>
      <point x="400" y="145"/>
      <point x="400" y="85" type="curve" smooth="yes"/>
      <point x="400" y="29"/>
      <point x="359" y="-10"/>
      <point x="300" y="-10" type="curve" smooth="yes"/>
      <point x="241" y="-10"/>
      <point x="200" y="29"/>
    </contour>
    <contour>
      <point x="200" y="459" type="curve" smooth="yes"/>
      <point x="200" y="519"/>
      <point x="241" y="560"/>
      <point x="300" y="560" type="curve" smooth="yes"/>
      <point x="359" y="560"/>
      <point x="400" y="519"/>
      <point x="400" y="459" type="curve" smooth="yes"/>
      <point x="400" y="403"/>
      <point x="359" y="364"/>
      <point x="300" y="364" type="curve" smooth="yes"/>
      <point x="241" y="364"/>
      <point x="200" y="403"/>
    </contour>
  </outline>
</glyph>
<glyph name="semicolon" format="2">
  <advance width="600" height="985"/>
  <unicode hex="003B"/>
  <outline>
    <contour>
      <point x="405" y="151" type="line"/>
      <point x="275" y="-160" type="line"/>
      <point x="145" y="-160" type="line"/>
      <point x="225" y="151" type="line"/>
    </contour>
    <contour>
      <point x="195" y="454" type="curve" smooth="yes"/>
      <point x="195" y="518"/>
      <point x="237" y="560"/>
      <point x="300" y="560" type="curve" smooth="yes"/>
      <point x="364" y="560"/>
      <point x="405" y="518"/>
      <point x="405" y="454" type="curve" smooth="yes"/>
      <point x="405" y="392"/>
      <point x="364" y="350"/>
      <point x="300" y="350" type="curve" smooth="yes"/>
      <point x="237" y="350"/>
      <point x="195" y="392"/>
    </contour>
  </outline>
</glyph>
<glyph name="less" format="2">
  <advance width="600" height="985"/>
  <unicode hex="003C"/>
  <outline>
    <contour>
      <point x="163" y="337" type="curve"/>
      <point x="163" y="327" type="line"/>
      <point x="163" y="327"/>
      <point x="216" y="324"/>
      <point x="254" y="309" type="curve" smooth="yes"/>
      <point x="530" y="197" type="line"/>
      <point x="530" y="60" type="line"/>
      <point x="70" y="258" type="line"/>
      <point x="70" y="401" type="line"/>
      <point x="530" y="600" type="line"/>
      <point x="530" y="464" type="line"/>
      <point x="254" y="352" type="line" smooth="yes"/>
      <point x="215" y="336"/>
      <point x="163" y="337"/>
    </contour>
  </outline>
</glyph>
<glyph name="equal" format="2">
  <advance width="600" height="985"/>
  <unicode hex="003D"/>
  <outline>
    <contour>
      <point x="80" y="275" type="line"/>
      <point x="520" y="275" type="line"/>
      <point x="520" y="135" type="line"/>
      <point x="80" y="135" type="line"/>
    </contour>
    <contour>
      <point x="80" y="525" type="line"/>
      <point x="520" y="525" type="line"/>
      <point x="520" y="385" type="line"/>
      <point x="80" y="385" type="line"/>
    </contour>
  </outline>
</glyph>
<glyph name="question" format="2">
  <advance width="600" height="985"/>
  <unicode hex="003F"/>
  <outline>
    <contour>
      <point x="520" y="510" type="curve" smooth="yes"/>
      <point x="520" y="387"/>
      <point x="436" y="305"/>
      <point x="311" y="305" type="curve"/>
      <point x="311" y="225" type="line"/>
      <point x="186" y="225" type="line"/>
      <point x="181" y="440" type="line"/>
      <point x="281" y="440" type="line" smooth="yes"/>
      <point x="336" y="440"/>
      <point x="370" y="466"/>
      <point x="370" y="510" type="curve" smooth="yes"/>
      <point x="370" y="554"/>
      <point x="336" y="580"/>
      <point x="280" y="580" type="curve" smooth="yes"/>
      <point x="115" y="580" type="line"/>
      <point x="115" y="720" type="line"/>
      <point x="270" y="720" type="line" smooth="yes"/>
      <point x="420" y="720"/>
      <point x="520" y="636"/>
    </contour>
    <contour>
      <point x="229" y="135" type="curve" smooth="yes"/>
      <point x="259" y="135" type="line" smooth="yes"/>
      <point x="304" y="135"/>
      <point x="334" y="107"/>
      <point x="334" y="64.5" type="curve" smooth="yes"/>
      <point x="334" y="22"/>
      <point x="304" y="-5"/>
      <point x="258" y="-5" type="curve" smooth="yes"/>
      <point x="229" y="-5" type="line" smooth="yes"/>
      <point x="184" y="-5"/>
      <point x="154" y="23"/>
      <point x="154" y="65" type="curve" smooth="yes"/>
      <point x="154" y="107"/>
      <point x="184" y="135"/>
    </contour>
  </outline>
</glyph>
<glyph name="D" format="2">
  <advance width="600" height="985"/>
  <unicode hex="0044"/>
  <outline>
    <contour>
      <point x="300" y="140" type="curve" smooth="yes" name="sv01"/>
      <point x="213" y="140" type="line"/>
      <point x="213" y="580" type="line" name="sv02"/>
      <point x="300" y="580" type="line" smooth="yes"/>
      <point x="361" y="580"/>
      <point x="402" y="542"/>
      <point x="402" y="486" type="curve" smooth="yes" name="ah01"/>
      <point x="402" y="235" type="line" smooth="yes"/>
      <point x="402" y="178"/>
      <point x="361" y="140"/>
    </contour>
    <contour>
      <point x="300" y="0" type="line" smooth="yes" name="ab01"/>
      <point x="451" y="0"/>
      <point x="552" y="94"/>
      <point x="552" y="235" type="curve" smooth="yes"/>
      <point x="552" y="486" type="line" smooth="yes" name="sh02"/>
      <point x="552" y="627"/>
      <point x="451" y="720"/>
      <point x="300" y="720" type="curve" smooth="yes" name="at01"/>
      <point x="63" y="720" type="line" name="sh01"/>
      <point x="63" y="0" type="line"/>
    </contour>
  </outline>
</glyph>
<glyph name="E" format="2">
  <advance width="600" height="985"/>
  <unicode hex="0045"/>
  <outline>
    <contour>
      <point x="80" y="720" type="line" name="at01"/>
      <point x="535" y="720" type="line"/>
      <point x="535" y="590" type="line" name="sv01"/>
      <point x="230" y="590" type="line" name="dh01"/>
      <point x="230" y="434" type="line"/>
      <point x="500" y="434" type="line" name="dv02"/>
      <point x="500" y="304" type="line" name="dv01"/>
      <point x="230" y="304" type="line" name="sh01"/>
      <point x="230" y="130" type="line" name="sv02"/>
      <point x="535" y="130" type="line"/>
      <point x="535" y="0" type="line" name="ab01"/>
      <point x="80" y="0" type="line"/>
    </contour>
  </outline>
</glyph>
<glyph name="G" format="2">
  <advance width="600" height="985"/>
  <unicode hex="0047"/>
  <outline>
    <contour>
      <point x="290" y="400" type="line" name="dv02"/>
      <point x="552" y="400" type="line" name="sh01"/>
      <point x="552" y="215" type="line" smooth="yes"/>
      <point x="552" y="80"/>
      <point x="451" y="-10"/>
      <point x="300" y="-10" type="curve" smooth="yes" name="ab01"/>
      <point x="149" y="-10"/>
      <point x="48" y="80"/>
      <point x="48" y="215" type="curve" smooth="yes" name="sh02"/>
      <point x="48" y="505" type="line" smooth="yes"/>
      <point x="48" y="637"/>
      <point x="148" y="725"/>
      <point x="300" y="725" type="curve" smooth="yes" name="at01"/>
      <point x="441" y="725"/>
      <point x="539" y="644"/>
      <point x="552" y="515" type="curve" name="sv01"/>
      <point x="402" y="515" type="line" name="ah01"/>
      <point x="397" y="561"/>
      <point x="357" y="590"/>
      <point x="300" y="590" type="curve" smooth="yes" name="sv02"/>
      <point x="238" y="590"/>
      <point x="198" y="556"/>
      <point x="198" y="505" type="curve" smooth="yes"/>
      <point x="198" y="215" type="line" smooth="yes" name="sh03"/>
      <point x="198" y="158"/>
      <point x="238" y="121"/>
      <point x="300" y="121" type="curve" smooth="yes" name="sv03"/>
      <point x="362" y="121"/>
      <point x="402" y="158"/>
      <point x="402" y="215" type="curve" smooth="yes" name="sh04"/>
      <point x="402" y="273" type="line"/>
      <point x="290" y="273" type="line" name="dv01"/>
    </contour>
  </outline>
</glyph>
<glyph name="J" format="2">
  <advance width="600" height="985"/>
  <unicode hex="004A"/>
  <outline>
    <contour>
      <point x="270" y="119" type="curve" smooth="yes" name="sv01"/>
      <point x="212" y="119"/>
      <point x="172" y="156"/>
      <point x="170" y="210" type="curve" name="sv02"/>
      <point x="20" y="210" type="line" name="sh01"/>
      <point x="24" y="73"/>
      <point x="120" y="-11"/>
      <point x="270" y="-11" type="curve" smooth="yes" name="ab01"/>
      <point x="424" y="-11"/>
      <point x="520" y="77"/>
      <point x="520" y="218" type="curve" smooth="yes"/>
      <point x="520" y="721" type="line" name="at01"/>
      <point x="130" y="721" type="line"/>
      <point x="130" y="581" type="line" name="sv03"/>
      <point x="370" y="581" type="line" name="ah01"/>
      <point x="370" y="218" type="line" smooth="yes"/>
      <point x="370" y="158"/>
      <point x="331" y="119"/>
    </contour>
  </outline>
</glyph>
<glyph name="K" format="2">
  <advance width="600" height="985"/>
  <unicode hex="004B"/>
  <outline>
    <contour>
      <point x="65" y="0" type="line" name="ab01"/>
      <point x="65" y="720" type="line" name="at01"/>
      <point x="215" y="720" type="line" name="sh01"/>
      <point x="215" y="438" type="line"/>
      <point x="291" y="438" type="line" name="dv02"/>
      <point x="411" y="720" type="line" name="at02"/>
      <point x="574" y="720" type="line"/>
      <point x="424" y="372" type="line"/>
      <point x="580" y="0" type="line" name="ab02"/>
      <point x="415" y="0" type="line"/>
      <point x="291" y="300" type="line" name="dv01"/>
      <point x="215" y="300" type="line"/>
      <point x="215" y="0" type="line" name="dh01"/>
    </contour>
  </outline>
</glyph>
<glyph name="N" format="2">
  <advance width="600" height="985"/>
  <unicode hex="004E"/>
  <outline>
    <contour>
      <point x="542" y="720" type="line" name="at01"/>
      <point x="542" y="0" type="line" name="ab01"/>
      <point x="357" y="0" type="line"/>
      <point x="210" y="477" type="line" smooth="yes"/>
      <point x="196" y="522"/>
      <point x="189" y="600"/>
      <point x="189" y="600" type="curve" name="sh02"/>
      <point x="175" y="600" type="line"/>
      <point x="175" y="600"/>
      <point x="190" y="487"/>
      <point x="190" y="412" type="curve" smooth="yes"/>
      <point x="190" y="0" type="line" name="ab02"/>
      <point x="58" y="0" type="line" name="sh01"/>
      <point x="58" y="720" type="line" name="at02"/>
      <point x="243" y="720" type="line"/>
      <point x="393" y="243" type="line" smooth="yes"/>
      <point x="405" y="206"/>
      <point x="413" y="120"/>
      <point x="413" y="120" type="curve" name="sh03"/>
      <point x="427" y="120" type="line"/>
      <point x="428" y="120"/>
      <point x="410" y="239"/>
      <point x="410" y="309" type="curve" smooth="yes" name="ah01"/>
      <point x="410" y="720" type="line"/>
    </contour>
  </outline>
</glyph>
<glyph name="O" format="2">
  <advance width="600" height="985"/>
  <unicode hex="004F"/>
  <outline>
    <contour>
      <point x="198" y="215" type="curve" smooth="yes" name="sh02"/>
      <point x="198" y="506" type="line" smooth="yes"/>
      <point x="198" y="563"/>
      <point x="238" y="600"/>
      <point x="300" y="600" type="curve" smooth="yes" name="sv01"/>
      <point x="362" y="600"/>
      <point x="402" y="563"/>
      <point x="402" y="506" type="curve" smooth="yes" name="ah01"/>
      <point x="402" y="215" type="line" smooth="yes"/>
      <point x="402" y="158"/>
      <point x="362" y="121"/>
      <point x="300" y="121" type="curve" smooth="yes" name="sv02"/>
      <point x="238" y="121"/>
      <point x="198" y="158"/>
    </contour>
    <contour>
      <point x="48" y="215" type="line" smooth="yes" name="sh01"/>
      <point x="48" y="79"/>
      <point x="148" y="-10"/>
      <point x="300" y="-10" type="curve" smooth="yes" name="ab01"/>
      <point x="450" y="-10"/>
      <point x="552" y="81"/>
      <point x="552" y="215" type="curve" smooth="yes"/>
      <point x="552" y="506" type="line" smooth="yes" name="sh03"/>
      <point x="552" y="641"/>
      <point x="452" y="730"/>
      <point x="300" y="730" type="curve" smooth="yes" name="at01"/>
      <point x="148" y="730"/>
      <point x="48" y="641"/>
      <point x="48" y="506" type="curve" smooth="yes"/>
    </contour>
  </outline>
  <guideline angle="0" x="0" y="286"/>
</glyph>
<glyph name="S" format="2">
  <advance width="600" height="985"/>
  <unicode hex="0053"/>
  <outline>
    <contour>
      <point x="300" y="-10" type="curve" smooth="yes" name="ab01"/>
      <point x="151" y="-10"/>
      <point x="52" y="70"/>
      <point x="45" y="195" type="curve" name="sv01"/>
      <point x="195" y="195" type="line"/>
      <point x="200" y="146"/>
      <point x="238" y="120"/>
      <point x="303" y="120" type="curve" smooth="yes" name="sv02"/>
      <point x="369" y="120"/>
      <point x="405" y="151"/>
      <point x="405" y="198.957" type="curve" smooth="yes" name="ah01"/>
      <point x="405" y="242"/>
      <point x="376" y="274"/>
      <point x="328" y="285" type="curve" smooth="yes"/>
      <point x="252" y="302" type="line" smooth="yes"/>
      <point x="122" y="331"/>
      <point x="53" y="409"/>
      <point x="53" y="525" type="curve" smooth="yes" name="sh01"/>
      <point x="53" y="647"/>
      <point x="149" y="731"/>
      <point x="300" y="731" type="curve" smooth="yes" name="at01"/>
      <point x="442" y="731"/>
      <point x="534" y="655"/>
      <point x="543" y="531" type="curve" name="sv03"/>
      <point x="393" y="531" type="line"/>
      <point x="388" y="575"/>
      <point x="352" y="601"/>
      <point x="296" y="601" type="curve" smooth="yes" name="sv04"/>
      <point x="238" y="601"/>
      <point x="203" y="570"/>
      <point x="203" y="527.033" type="curve" smooth="yes" name="sh02"/>
      <point x="203" y="490"/>
      <point x="229" y="461"/>
      <point x="277" y="450" type="curve" smooth="yes"/>
      <point x="357" y="432" type="line" smooth="yes"/>
      <point x="486" y="403"/>
      <point x="555" y="324"/>
      <point x="555" y="206" type="curve" smooth="yes" name="sh03"/>
      <point x="555" y="78"/>
      <point x="454" y="-10"/>
    </contour>
  </outline>
  <guideline angle="90" x="157" y="0"/>
  <guideline angle="90" x="506" y="0"/>
</glyph>
<glyph name="T" format="2">
  <advance width="600" height="985"/>
  <unicode hex="0054"/>
  <outline>
    <contour>
      <point x="35" y="720" type="line" name="at01"/>
      <point x="565" y="720" type="line"/>
      <point x="565" y="580" type="line" name="sv01"/>
      <point x="375" y="580" type="line"/>
      <point x="375" y="0" type="line" name="ab01"/>
      <point x="225" y="0" type="line" name="dh01"/>
      <point x="225" y="580" type="line" name="sv02"/>
      <point x="35" y="580" type="line" name="sv03"/>
    </contour>
  </outline>
</glyph>
<glyph name="bracketleft" format="2">
  <advance width="600" height="985"/>
  <unicode hex="005B"/>
  <outline>
    <contour>
      <point x="170" y="830" type="line"/>
      <point x="475" y="830" type="line"/>
      <point x="475" y="690" type="line"/>
      <point x="320" y="690" type="line"/>
      <point x="320" y="30" type="line"/>
      <point x="475" y="30" type="line"/>
      <point x="475" y="-110" type="line"/>
      <point x="170" y="-110" type="line"/>
    </contour>
  </outline>
</glyph>
<glyph name="backslash" format="2">
  <advance width="600" height="985"/>
  <unicode hex="005C"/>
  <outline>
    <contour>
      <point x="204" y="830" type="line"/>
      <point x="49" y="830" type="line"/>
      <point x="394" y="-110" type="line"/>
      <point x="549" y="-110" type="line"/>
    </contour>
  </outline>
</glyph>
<glyph name="bracketright" format="2">
  <advance width="600" height="985"/>
  <unicode hex="005D"/>
  <outline>
    <contour>
      <point x="430" y="830" type="line"/>
      <point x="125" y="830" type="line"/>
      <point x="125" y="690" type="line"/>
      <point x="280" y="690" type="line"/>
      <point x="280" y="30" type="line"/>
      <point x="125" y="30" type="line"/>
      <point x="125" y="-110" type="line"/>
      <point x="430" y="-110" type="line"/>
    </contour>
  </outline>
  <guideline angle="0" x="0" y="865"/>
</glyph>
<glyph name="grave" format="2">
  <advance width="600" height="985"/>
  <unicode hex="0060"/>
  <outline>
    <contour>
      <point x="155" y="785" type="line"/>
      <point x="305" y="785" type="line"/>
      <point x="405" y="645" type="line"/>
      <point x="275" y="645" type="line"/>
    </contour>
  </outline>
</glyph>
<glyph name="a" format="2">
  <advance width="600" height="985"/>
  <unicode hex="0061"/>
  <outline>
    <contour>
      <point x="40" y="150" type="curve" smooth="yes" name="sh02"/>
      <point x="40" y="261"/>
      <point x="128" y="331"/>
      <point x="267" y="331" type="curve" smooth="yes"/>
      <point x="386" y="331" type="line" name="dv02"/>
      <point x="386" y="380" type="line" smooth="yes"/>
      <point x="386" y="419"/>
      <point x="350" y="445"/>
      <point x="295" y="445" type="curve" smooth="yes" name="sv05"/>
      <point x="246" y="445"/>
      <point x="211" y="426"/>
      <point x="202" y="395" type="curve" name="sv06"/>
      <point x="57" y="395" type="line"/>
      <point x="72" y="496"/>
      <point x="165" y="560"/>
      <point x="295" y="560" type="curve" smooth="yes" name="at01"/>
      <point x="440" y="560"/>
      <point x="536" y="489"/>
      <point x="536" y="380" type="curve" smooth="yes"/>
      <point x="536" y="0" type="line" name="sh01"/>
      <point x="393" y="0" type="line" name="ah01"/>
      <point x="393" y="110" type="line" name="sv03"/>
      <point x="384" y="110" type="line" name="sv04"/>
      <point x="375" y="36"/>
      <point x="309" y="-10"/>
      <point x="214" y="-10" type="curve" smooth="yes" name="ab01"/>
      <point x="108" y="-10"/>
      <point x="40" y="52"/>
    </contour>
    <contour>
      <point x="277" y="105" type="curve" smooth="yes" name="sv02"/>
      <point x="340" y="105"/>
      <point x="386" y="139"/>
      <point x="386" y="185" type="curve" smooth="yes" name="sh04"/>
      <point x="386" y="241" type="line" name="dv01"/>
      <point x="267" y="241" type="line" smooth="yes"/>
      <point x="220" y="241"/>
      <point x="190" y="216"/>
      <point x="190" y="174" type="curve" smooth="yes" name="sh03"/>
      <point x="190" y="131"/>
      <point x="222" y="105"/>
    </contour>
  </outline>
</glyph>
<glyph name="d" format="2">
  <advance width="600" height="985"/>
  <unicode hex="0064"/>
  <outline>
    <contour>
      <point x="48" y="345" type="line" smooth="yes" name="sh01"/>
      <point x="48" y="476"/>
      <point x="124" y="560"/>
      <point x="240" y="560" type="curve" smooth="yes" name="at02"/>
      <point x="318" y="560"/>
      <point x="372" y="520"/>
      <point x="382" y="455" type="curve" name="sh02"/>
      <point x="392" y="455" type="line" name="sh03"/>
      <point x="392" y="455"/>
      <point x="387" y="515"/>
      <point x="387" y="550" type="curve" smooth="yes"/>
      <point x="387" y="720" type="line" name="at01"/>
      <point x="537" y="720" type="line" name="sh04"/>
      <point x="537" y="0" type="line"/>
      <point x="392" y="0" type="line" name="sh05"/>
      <point x="392" y="96" type="line"/>
      <point x="382" y="96" type="line" name="sh06"/>
      <point x="372" y="30"/>
      <point x="318" y="-10"/>
      <point x="240" y="-10" type="curve" smooth="yes" name="ab01"/>
      <point x="124" y="-10"/>
      <point x="48" y="75"/>
      <point x="48" y="210" type="curve" smooth="yes"/>
    </contour>
    <contour>
      <point x="292" y="121" type="curve" smooth="yes" name="sv01"/>
      <point x="351" y="121"/>
      <point x="387" y="158"/>
      <point x="387" y="210" type="curve" smooth="yes" name="sh07"/>
      <point x="387" y="340" type="line" smooth="yes"/>
      <point x="387" y="394"/>
      <point x="349" y="430"/>
      <point x="292" y="430" type="curve" smooth="yes" name="sv02"/>
      <point x="235" y="430"/>
      <point x="198" y="395"/>
      <point x="198" y="340" type="curve" smooth="yes" name="sh08"/>
      <point x="198" y="215" type="line" smooth="yes"/>
      <point x="198" y="159"/>
      <point x="233" y="121"/>
    </contour>
  </outline>
</glyph>
<glyph name="e" format="2">
  <advance width="600" height="985"/>
  <unicode hex="0065"/>
  <outline>
    <contour>
      <point x="191" y="240" type="line" name="dv01"/>
      <point x="550" y="240" type="line"/>
      <point x="550" y="340" type="line" smooth="yes" name="sh03"/>
      <point x="550" y="471"/>
      <point x="449" y="560"/>
      <point x="300" y="560" type="curve" smooth="yes" name="at01"/>
      <point x="148" y="560"/>
      <point x="48" y="473"/>
      <point x="48" y="341" type="curve" smooth="yes" name="sh01"/>
      <point x="48" y="210" type="line" smooth="yes"/>
      <point x="48" y="78"/>
      <point x="149" y="-10"/>
      <point x="300" y="-10" type="curve" smooth="yes" name="ab01"/>
      <point x="422" y="-10"/>
      <point x="520" y="54"/>
      <point x="545" y="150" type="curve" name="sv01"/>
      <point x="398" y="150" type="line" name="sh04"/>
      <point x="386" y="122"/>
      <point x="349" y="105"/>
      <point x="300" y="105" type="curve" smooth="yes" name="sv02"/>
      <point x="233" y="105"/>
      <point x="191" y="145"/>
      <point x="191" y="210" type="curve" smooth="yes"/>
    </contour>
    <contour>
      <point x="191" y="330" type="line" name="dv02"/>
      <point x="191" y="341" type="line" smooth="yes" name="sh02"/>
      <point x="191" y="404"/>
      <point x="233" y="445"/>
      <point x="300" y="445" type="curve" smooth="yes" name="sv03"/>
      <point x="367" y="445"/>
      <point x="407" y="405"/>
      <point x="407" y="340" type="curve" smooth="yes" name="ah01"/>
      <point x="407" y="320" type="line" name="iv01"/>
      <point x="417" y="330" type="line" name="ih01"/>
    </contour>
  </outline>
</glyph>
<glyph name="f" format="2">
  <advance width="600" height="985"/>
  <unicode hex="0066"/>
  <outline>
    <contour>
      <point x="546" y="720" type="line" name="at01"/>
      <point x="546" y="590" type="line" name="sv01"/>
      <point x="390" y="590" type="line" smooth="yes"/>
      <point x="363" y="590"/>
      <point x="345" y="572"/>
      <point x="345" y="545" type="curve" smooth="yes" name="sh01"/>
      <point x="345" y="485" type="line"/>
      <point x="546" y="485" type="line" name="dv02"/>
      <point x="546" y="350" type="line" name="dv01"/>
      <point x="345" y="350" type="line"/>
      <point x="345" y="0" type="line" name="ab01"/>
      <point x="195" y="0" type="line" name="dh01"/>
      <point x="195" y="350" type="line" name="sv02"/>
      <point x="49" y="350" type="line"/>
      <point x="49" y="485" type="line" name="sv03"/>
      <point x="195" y="485" type="line" name="sh02"/>
      <point x="195" y="550" type="line" smooth="yes"/>
      <point x="195" y="652"/>
      <point x="271" y="720"/>
      <point x="385" y="720" type="curve" smooth="yes"/>
    </contour>
  </outline>
</glyph>
<glyph name="i" format="2">
  <advance width="600" height="985"/>
  <unicode hex="0069"/>
  <outline>
    <contour>
      <point x="100" y="550" type="line" name="at01"/>
      <point x="410" y="550" type="line" name="dh02"/>
      <point x="410" y="136" type="line" name="sv01"/>
      <point x="565" y="136" type="line"/>
      <point x="565" y="0" type="line" name="ab01"/>
      <point x="75" y="0" type="line"/>
      <point x="75" y="136" type="line" name="sv02"/>
      <point x="270" y="136" type="line" name="sv03"/>
      <point x="270" y="415" type="line" name="sv04"/>
      <point x="100" y="415" type="line"/>
    </contour>
    <contour>
      <point x="325" y="765" type="curve" smooth="yes"/>
      <point x="345" y="765" type="line" smooth="yes" name="dv02"/>
      <point x="390" y="765"/>
      <point x="420" y="737"/>
      <point x="420" y="694.5" type="curve" smooth="yes"/>
      <point x="420" y="652"/>
      <point x="390" y="625"/>
      <point x="344" y="625" type="curve" smooth="yes" name="dv01"/>
      <point x="325" y="625" type="line" smooth="yes"/>
      <point x="280" y="625"/>
      <point x="250" y="653"/>
      <point x="250" y="695" type="curve" smooth="yes" name="dh01"/>
      <point x="250" y="737"/>
      <point x="280" y="765"/>
    </contour>
  </outline>
</glyph>
<glyph name="m" format="2">
  <advance width="600" height="985"/>
  <unicode hex="006D"/>
  <outline>
    <contour>
      <point x="40" y="550" type="line" name="dh01"/>
      <point x="158" y="550" type="line"/>
      <point x="158" y="470" type="line"/>
      <point x="168" y="470" type="line" name="sh01"/>
      <point x="171" y="525"/>
      <point x="208" y="560"/>
      <point x="262" y="560" type="curve" smooth="yes" name="at01"/>
      <point x="314" y="560"/>
      <point x="336" y="526"/>
      <point x="347" y="470" type="curve" name="sh02"/>
      <point x="356" y="470" type="line" name="iv01"/>
      <point x="359" y="525"/>
      <point x="394" y="560"/>
      <point x="448" y="560" type="curve" smooth="yes" name="at02"/>
      <point x="514" y="560"/>
      <point x="561" y="506"/>
      <point x="561" y="420" type="curve" smooth="yes" name="sh03"/>
      <point x="561" y="0" type="line" name="ab01"/>
      <point x="432" y="0" type="line" name="sh04"/>
      <point x="432" y="403" type="line" smooth="yes"/>
      <point x="432" y="439"/>
      <point x="418" y="458"/>
      <point x="391" y="458" type="curve" smooth="yes" name="sv01"/>
      <point x="364" y="458"/>
      <point x="352" y="438"/>
      <point x="352" y="403" type="curve" smooth="yes"/>
      <point x="352" y="0" type="line" name="ab02"/>
      <point x="249" y="0" type="line" name="dh03"/>
      <point x="249" y="403" type="line" smooth="yes"/>
      <point x="249" y="439"/>
      <point x="233" y="458"/>
      <point x="206" y="458" type="curve" smooth="yes" name="sv02"/>
      <point x="179" y="458"/>
      <point x="169" y="438"/>
      <point x="169" y="403" type="curve" smooth="yes" name="dh02"/>
      <point x="169" y="0" type="line" name="ab03"/>
      <point x="40" y="0" type="line"/>
    </contour>
  </outline>
</glyph>
<glyph name="n" format="2">
  <advance width="600" height="750"/>
  <unicode hex="006E"/>
  <outline>
    <contour>
      <point x="61" y="0" type="line" name="ab01"/>
      <point x="61" y="550" type="line" name="at02"/>
      <point x="203" y="550" type="line"/>
      <point x="203" y="455" type="line"/>
      <point x="213" y="455" type="line" name="sh02"/>
      <point x="222" y="522"/>
      <point x="274" y="560"/>
      <point x="354" y="560" type="curve" smooth="yes" name="at01"/>
      <point x="466" y="560"/>
      <point x="535" y="482"/>
      <point x="535" y="355" type="curve" smooth="yes" name="sh04"/>
      <point x="535" y="0" type="line" name="ab02"/>
      <point x="385" y="0" type="line" name="ah01"/>
      <point x="385" y="340" type="line" smooth="yes" name="sh03"/>
      <point x="385" y="396"/>
      <point x="351" y="430"/>
      <point x="298" y="430" type="curve" smooth="yes" name="sv01"/>
      <point x="245" y="430"/>
      <point x="211" y="396"/>
      <point x="211" y="340" type="curve" smooth="yes" name="dh01"/>
      <point x="211" y="0" type="line" name="sh01"/>
    </contour>
  </outline>
</glyph>
<glyph name="r" format="2">
  <advance width="600" height="985"/>
  <unicode hex="0072"/>
  <outline>
    <contour>
      <point x="82" y="0" type="line" name="ab01"/>
      <point x="232" y="0" type="line" name="sh01"/>
      <point x="232" y="340" type="line" smooth="yes"/>
      <point x="232" y="398"/>
      <point x="265" y="435"/>
      <point x="318" y="435" type="curve" smooth="yes" name="sv01"/>
      <point x="378" y="435"/>
      <point x="415" y="399"/>
      <point x="415" y="340" type="curve" smooth="yes" name="ah01"/>
      <point x="415" y="305" type="line"/>
      <point x="575" y="305" type="line"/>
      <point x="575" y="350" type="line" smooth="yes" name="sh02"/>
      <point x="575" y="481"/>
      <point x="504" y="560"/>
      <point x="384" y="560" type="curve" smooth="yes" name="at01"/>
      <point x="301" y="560"/>
      <point x="247" y="522"/>
      <point x="236" y="455" type="curve" name="sh03"/>
      <point x="224" y="455" type="line"/>
      <point x="224" y="550" type="line"/>
      <point x="82" y="550" type="line"/>
    </contour>
  </outline>
</glyph>
<glyph name="s" format="2">
  <advance width="600" height="985"/>
  <unicode hex="0073"/>
  <outline>
    <contour>
      <point x="274" y="-10" type="line" smooth="yes" name="ab01"/>
      <point x="138" y="-10"/>
      <point x="58" y="44"/>
      <point x="45" y="145" type="curve" name="sv01"/>
      <point x="195" y="145" type="line" name="sh03"/>
      <point x="204" y="115"/>
      <point x="233" y="98"/>
      <point x="274" y="98" type="curve" smooth="yes" name="sv02"/>
      <point x="324" y="98" type="line" smooth="yes"/>
      <point x="379" y="98"/>
      <point x="410" y="119"/>
      <point x="410" y="155.538" type="curve" smooth="yes" name="ah01"/>
      <point x="410" y="189"/>
      <point x="384" y="208"/>
      <point x="330" y="214" type="curve" smooth="yes"/>
      <point x="255" y="222" type="line" smooth="yes"/>
      <point x="118" y="237"/>
      <point x="55" y="291"/>
      <point x="55" y="393" type="curve" smooth="yes" name="sh01"/>
      <point x="55" y="500"/>
      <point x="133" y="560"/>
      <point x="274" y="560" type="curve" smooth="yes" name="at01"/>
      <point x="324" y="560" type="line" smooth="yes"/>
      <point x="457" y="560"/>
      <point x="534" y="508"/>
      <point x="546" y="409" type="curve" name="sv03"/>
      <point x="396" y="409" type="line"/>
      <point x="389" y="437"/>
      <point x="364" y="453"/>
      <point x="324" y="453" type="curve" smooth="yes" name="sv04"/>
      <point x="274" y="453" type="line" smooth="yes"/>
      <point x="226" y="453"/>
      <point x="200" y="436"/>
      <point x="200" y="402.504" type="curve" smooth="yes" name="sh02"/>
      <point x="200" y="371"/>
      <point x="223" y="352"/>
      <point x="268" y="347" type="curve" smooth="yes"/>
      <point x="348" y="338" type="line" smooth="yes"/>
      <point x="487" y="322"/>
      <point x="555" y="265"/>
      <point x="555" y="162" type="curve" smooth="yes" name="sh04"/>
      <point x="555" y="50"/>
      <point x="474" y="-10"/>
      <point x="324" y="-10" type="curve" smooth="yes"/>
    </contour>
  </outline>
</glyph>
<glyph name="t" format="2">
  <advance width="600" height="985"/>
  <unicode hex="0074"/>
  <outline>
    <contour>
      <point x="385" y="135" type="curve" smooth="yes" name="sv01"/>
      <point x="525" y="135" type="line"/>
      <point x="525" y="0" type="line" name="ab01"/>
      <point x="370" y="0" type="line" smooth="yes"/>
      <point x="252" y="0"/>
      <point x="180" y="72"/>
      <point x="180" y="190" type="curve" smooth="yes" name="dh01"/>
      <point x="180" y="415" type="line" name="sv02"/>
      <point x="35" y="415" type="line"/>
      <point x="35" y="550" type="line" name="at02"/>
      <point x="180" y="550" type="line" name="sh01"/>
      <point x="180" y="720" type="line" name="at01"/>
      <point x="330" y="720" type="line" name="sh02"/>
      <point x="330" y="550" type="line" name="at03"/>
      <point x="535" y="550" type="line"/>
      <point x="535" y="415" type="line" name="sv03"/>
      <point x="330" y="415" type="line" name="sv04"/>
      <point x="330" y="190" type="line" smooth="yes" name="dh02"/>
      <point x="330" y="156"/>
      <point x="351" y="135"/>
    </contour>
  </outline>
</glyph>
<glyph name="u" format="2">
  <advance width="600" height="985"/>
  <unicode hex="0075"/>
  <outline>
    <contour>
      <point x="300" y="120" type="curve" smooth="yes" name="sv01"/>
      <point x="355" y="120"/>
      <point x="385" y="153"/>
      <point x="385" y="215" type="curve" smooth="yes" name="ah01"/>
      <point x="385" y="550" type="line" name="at01"/>
      <point x="535" y="550" type="line" name="at04"/>
      <point x="535" y="214" type="line" smooth="yes" name="sh01"/>
      <point x="535" y="74"/>
      <point x="446" y="-10"/>
      <point x="300" y="-10" type="curve" smooth="yes" name="ab01"/>
      <point x="152" y="-10"/>
      <point x="65" y="75"/>
      <point x="65" y="214" type="curve" smooth="yes" name="sh02"/>
      <point x="65" y="550" type="line" name="at02"/>
      <point x="215" y="550" type="line" name="at03"/>
      <point x="215" y="215" type="line" smooth="yes" name="sh03"/>
      <point x="215" y="153"/>
      <point x="244" y="120"/>
    </contour>
  </outline>
</glyph>
<glyph name="x" format="2">
  <advance width="600" height="985"/>
  <unicode hex="0078"/>
  <outline>
    <contour>
      <point x="16" y="0" type="line" name="ab01"/>
      <point x="216" y="285" type="line"/>
      <point x="29" y="550" type="line" name="at01"/>
      <point x="196" y="550" type="line"/>
      <point x="278" y="430" type="line" smooth="yes"/>
      <point x="292" y="410"/>
      <point x="296" y="392"/>
      <point x="296" y="392" type="curve"/>
      <point x="304" y="392" type="line"/>
      <point x="304" y="392"/>
      <point x="307" y="409"/>
      <point x="322" y="430" type="curve" smooth="yes"/>
      <point x="404" y="550" type="line" name="at02"/>
      <point x="571" y="550" type="line"/>
      <point x="385" y="285" type="line"/>
      <point x="584" y="0" type="line" name="ab02"/>
      <point x="417" y="0" type="line"/>
      <point x="323" y="138" type="line" smooth="yes"/>
      <point x="308" y="159"/>
      <point x="304" y="176"/>
      <point x="304" y="176" type="curve"/>
      <point x="296" y="176" type="line"/>
      <point x="296" y="176"/>
      <point x="292" y="159"/>
      <point x="278" y="139" type="curve" smooth="yes"/>
      <point x="183" y="0" type="line"/>
    </contour>
  </outline>
</glyph>
<glyph name="y" format="2">
  <advance width="600" height="985"/>
  <unicode hex="0079"/>
  <outline>
    <contour>
      <point x="318" y="-170" type="line" name="ab01"/>
      <point x="161" y="-170" type="line"/>
      <point x="236" y="25" type="line"/>
      <point x="24" y="550" type="line" name="at01"/>
      <point x="186" y="550" type="line"/>
      <point x="283" y="273" type="line" smooth="yes"/>
      <point x="298" y="230"/>
      <point x="298" y="165"/>
      <point x="298" y="165" type="curve"/>
      <point x="313" y="165" type="line"/>
      <point x="313" y="165"/>
      <point x="313" y="230"/>
      <point x="327" y="273" type="curve" smooth="yes"/>
      <point x="419" y="550" type="line" name="at02"/>
      <point x="576" y="550" type="line"/>
    </contour>
  </outline>
</glyph>
<glyph name="bar" format="2">
  <advance width="600" height="985"/>
  <unicode hex="007C"/>
  <outline>
    <contour>
      <point x="225" y="830" type="line"/>
      <point x="375" y="830" type="line"/>
      <point x="375" y="-110" type="line"/>
      <point x="225" y="-110" type="line"/>
    </contour>
  </outline>
</glyph>
<glyph name="braceright" format="2">
  <advance width="600" height="985"/>
  <unicode hex="007D"/>
  <outline>
    <contour>
      <point x="80" y="830" type="line" name="at01"/>
      <point x="165" y="830" type="line" smooth="yes" name="dv04"/>
      <point x="274" y="830"/>
      <point x="353" y="757"/>
      <point x="345" y="645" type="curve" smooth="yes"/>
      <point x="335" y="500" type="line" smooth="yes"/>
      <point x="332" y="458"/>
      <point x="363" y="430"/>
      <point x="405" y="430" type="curve" smooth="yes"/>
      <point x="530" y="430" type="line" name="dv06"/>
      <point x="530" y="290" type="line" name="dv05"/>
      <point x="405" y="290" type="line" smooth="yes"/>
      <point x="363" y="290"/>
      <point x="332" y="262"/>
      <point x="335" y="220" type="curve" smooth="yes"/>
      <point x="345" y="69" type="line" smooth="yes"/>
      <point x="352" y="-41"/>
      <point x="275" y="-111"/>
      <point x="165" y="-111" type="curve" smooth="yes" name="dv01"/>
      <point x="80" y="-111" type="line"/>
      <point x="80" y="29" type="line" name="sv01"/>
      <point x="135" y="29" type="line" smooth="yes" name="dv02"/>
      <point x="173" y="29"/>
      <point x="198" y="46"/>
      <point x="195" y="89" type="curve" smooth="yes"/>
      <point x="185" y="240" type="line" smooth="yes"/>
      <point x="180" y="315"/>
      <point x="243" y="353"/>
      <point x="320" y="356" type="curve"/>
      <point x="320" y="361" type="line" name="iv01"/>
      <point x="242" y="364"/>
      <point x="180" y="405"/>
      <point x="185" y="480" type="curve" smooth="yes"/>
      <point x="195" y="630" type="line" smooth="yes"/>
      <point x="197" y="666"/>
      <point x="171" y="690"/>
      <point x="135" y="690" type="curve" smooth="yes" name="dv03"/>
      <point x="80" y="690" type="line"/>
    </contour>
  </outline>
  <guideline angle="0" x="0" y="-110"/>
</glyph>
<glyph name="cent" format="2">
  <advance width="600" height="985"/>
  <unicode hex="00A2"/>
  <outline>
    <contour>
      <point x="275" y="690" type="line"/>
      <point x="340" y="690" type="line"/>
      <point x="340" y="-140" type="line"/>
      <point x="275" y="-140" type="line"/>
    </contour>
    <contour>
      <point x="305" y="-10" type="curve" smooth="yes" name="ab01"/>
      <point x="152" y="-10"/>
      <point x="53" y="74"/>
      <point x="53" y="204" type="curve" smooth="yes"/>
      <point x="53" y="345" type="line" smooth="yes"/>
      <point x="53" y="475"/>
      <point x="153" y="560"/>
      <point x="305" y="560" type="curve" smooth="yes" name="at01"/>
      <point x="438" y="560"/>
      <point x="538" y="482"/>
      <point x="559" y="360" type="curve"/>
      <point x="416" y="360" type="line" name="sv04"/>
      <point x="409" y="406"/>
      <point x="364" y="437"/>
      <point x="305" y="437" type="curve" smooth="yes" name="sv03"/>
      <point x="240" y="437"/>
      <point x="196" y="400"/>
      <point x="196" y="345" type="curve" smooth="yes"/>
      <point x="196" y="204" type="line" smooth="yes"/>
      <point x="196" y="149"/>
      <point x="240" y="113"/>
      <point x="305" y="113" type="curve" smooth="yes" name="sv02"/>
      <point x="363" y="113"/>
      <point x="408" y="144"/>
      <point x="416" y="191" type="curve"/>
      <point x="559" y="191" type="line" name="sv01"/>
      <point x="538" y="68"/>
      <point x="438" y="-10"/>
    </contour>
  </outline>
</glyph>
<glyph name="sterling" format="2">
  <advance width="600" height="985"/>
  <unicode hex="00A3"/>
  <outline>
    <contour>
      <point x="75" y="160" type="curve"/>
      <point x="75" y="0" type="line"/>
      <point x="535" y="0" type="line"/>
      <point x="535" y="140" type="line"/>
      <point x="165" y="140" type="line"/>
      <point x="165" y="140"/>
      <point x="315" y="144"/>
      <point x="315" y="263" type="curve" smooth="yes"/>
      <point x="315" y="422"/>
      <point x="203" y="439"/>
      <point x="203" y="522" type="curve" smooth="yes"/>
      <point x="203" y="565"/>
      <point x="238" y="590"/>
      <point x="296" y="590" type="curve" smooth="yes"/>
      <point x="352" y="590"/>
      <point x="388" y="564"/>
      <point x="393" y="520" type="curve"/>
      <point x="543" y="520" type="line"/>
      <point x="534" y="644"/>
      <point x="442" y="720"/>
      <point x="300" y="720" type="curve" smooth="yes"/>
      <point x="149" y="720"/>
      <point x="53" y="642"/>
      <point x="53" y="530" type="curve" smooth="yes"/>
      <point x="53" y="403"/>
      <point x="184" y="388"/>
      <point x="184" y="254" type="curve" smooth="yes"/>
      <point x="184" y="186"/>
      <point x="75" y="160"/>
    </contour>
    <contour>
      <point x="65" y="270" type="line"/>
      <point x="435" y="270" type="line"/>
      <point x="435" y="390" type="line"/>
      <point x="65" y="390" type="line"/>
    </contour>
  </outline>
</glyph>
<glyph name="yen" format="2">
  <advance width="600" height="985"/>
  <unicode hex="00A5"/>
  <outline>
    <contour>
      <point x="429" y="720" type="line"/>
      <point x="585" y="720" type="line"/>
      <point x="375" y="260" type="line"/>
      <point x="375" y="0" type="line"/>
      <point x="225" y="0" type="line"/>
      <point x="225" y="260" type="line"/>
      <point x="15" y="720" type="line"/>
      <point x="172" y="720" type="line"/>
      <point x="280" y="475" type="line" smooth="yes"/>
      <point x="300" y="429"/>
      <point x="300" y="392"/>
      <point x="300" y="392" type="curve"/>
      <point x="305" y="392" type="line"/>
      <point x="305" y="392"/>
      <point x="306" y="429"/>
      <point x="325" y="475" type="curve" smooth="yes"/>
    </contour>
    <contour>
      <point x="60" y="205" type="line"/>
      <point x="540" y="205" type="line"/>
      <point x="540" y="100" type="line"/>
      <point x="60" y="100" type="line"/>
    </contour>
    <contour>
      <point x="60" y="365" type="line"/>
      <point x="540" y="365" type="line"/>
      <point x="540" y="260" type="line"/>
      <point x="60" y="260" type="line"/>
    </contour>
  </outline>
</glyph>
<glyph name="dieresis" format="2">
  <advance width="600" height="985"/>
  <unicode hex="00A8"/>
  <outline>
    <contour>
      <point x="120" y="710" type="curve" smooth="yes"/>
      <point x="120" y="749"/>
      <point x="150" y="775"/>
      <point x="195" y="775" type="curve" smooth="yes"/>
      <point x="240" y="775"/>
      <point x="270" y="749"/>
      <point x="270" y="710" type="curve" smooth="yes"/>
      <point x="270" y="669"/>
      <point x="240" y="640"/>
      <point x="195" y="640" type="curve" smooth="yes"/>
      <point x="150" y="640"/>
      <point x="120" y="669"/>
    </contour>
    <contour>
      <point x="330" y="710" type="curve" smooth="yes"/>
      <point x="330" y="749"/>
      <point x="360" y="775"/>
      <point x="405" y="775" type="curve" smooth="yes"/>
      <point x="450" y="775"/>
      <point x="480" y="749"/>
      <point x="480" y="710" type="curve" smooth="yes"/>
      <point x="480" y="669"/>
      <point x="450" y="640"/>
      <point x="405" y="640" type="curve" smooth="yes"/>
      <point x="360" y="640"/>
      <point x="330" y="669"/>
    </contour>
  </outline>
</glyph>
<glyph name="ordfeminine" format="2">
  <advance width="600" height="985"/>
  <unicode hex="00AA"/>
  <outline>
    <contour>
      <point x="350" y="650" type="line" smooth="yes"/>
      <point x="350" y="668"/>
      <point x="332" y="680"/>
      <point x="305" y="680" type="curve" smooth="yes"/>
      <point x="280" y="680"/>
      <point x="262" y="670"/>
      <point x="260" y="655" type="curve"/>
      <point x="180" y="655" type="line"/>
      <point x="190" y="706"/>
      <point x="240" y="740"/>
      <point x="305" y="740" type="curve" smooth="yes"/>
      <point x="380" y="740"/>
      <point x="430" y="704"/>
      <point x="430" y="650" type="curve" smooth="yes"/>
      <point x="430" y="455" type="line"/>
      <point x="353" y="455" type="line"/>
      <point x="353" y="510" type="line"/>
      <point x="350" y="510" type="line"/>
    </contour>
    <contour>
      <point x="280" y="625" type="curve" smooth="yes"/>
      <point x="361" y="625" type="line"/>
      <point x="361" y="575" type="line"/>
      <point x="280" y="575" type="line" smooth="yes"/>
      <point x="259" y="575"/>
      <point x="245" y="562"/>
      <point x="245" y="540" type="curve" smooth="yes"/>
      <point x="245" y="520"/>
      <point x="263" y="505"/>
      <point x="287" y="505" type="curve" smooth="yes"/>
      <point x="324" y="505"/>
      <point x="350" y="525"/>
      <point x="350" y="555" type="curve"/>
      <point x="361" y="555" type="line"/>
      <point x="361" y="510" type="line"/>
      <point x="350" y="510" type="line"/>
      <point x="335" y="472"/>
      <point x="303" y="450"/>
      <point x="264" y="450" type="curve" smooth="yes"/>
      <point x="205" y="450"/>
      <point x="165" y="485"/>
      <point x="165" y="538" type="curve" smooth="yes"/>
      <point x="165" y="590"/>
      <point x="211" y="625"/>
    </contour>
  </outline>
</glyph>
<glyph name="guillemotleft" format="2">
  <advance width="600" height="985"/>
  <unicode hex="00AB"/>
  <outline>
    <contour>
      <point x="15" y="280" type="line"/>
      <point x="180" y="40" type="line"/>
      <point x="335" y="40" type="line"/>
      <point x="194" y="244" type="line" smooth="yes"/>
      <point x="176" y="270"/>
      <point x="158" y="279"/>
      <point x="158" y="279" type="curve"/>
      <point x="158" y="281" type="line"/>
      <point x="158" y="281"/>
      <point x="175" y="289"/>
      <point x="194" y="316" type="curve" smooth="yes"/>
      <point x="335" y="520" type="line"/>
      <point x="180" y="520" type="line"/>
    </contour>
    <contour>
      <point x="265" y="280" type="line"/>
      <point x="430" y="40" type="line"/>
      <point x="585" y="40" type="line"/>
      <point x="444" y="244" type="line" smooth="yes"/>
      <point x="426" y="270"/>
      <point x="408" y="279"/>
      <point x="408" y="279" type="curve"/>
      <point x="408" y="281" type="line"/>
      <point x="408" y="281"/>
      <point x="425" y="289"/>
      <point x="444" y="316" type="curve" smooth="yes"/>
      <point x="585" y="520" type="line"/>
      <point x="430" y="520" type="line"/>
    </contour>
  </outline>
</glyph>
<glyph name="logicalnot" format="2">
  <advance width="600" height="985"/>
  <unicode hex="00AC"/>
  <outline>
    <contour>
      <point x="70" y="450" type="line"/>
      <point x="530" y="450" type="line"/>
      <point x="530" y="175" type="line"/>
      <point x="380" y="175" type="line"/>
      <point x="380" y="310" type="line"/>
      <point x="70" y="310" type="line"/>
    </contour>
  </outline>
</glyph>
<glyph name="uni00AD" format="2">
  <advance width="600"/>
  <unicode hex="00AD"/>
  <outline>
    <contour>
      <point x="140" y="400" type="line"/>
      <point x="460" y="400" type="line"/>
      <point x="460" y="260" type="line"/>
      <point x="140" y="260" type="line"/>
    </contour>
  </outline>
</glyph>
<glyph name="plusminus" format="2">
  <advance width="600" height="985"/>
  <unicode hex="00B1"/>
  <outline>
    <contour>
      <point x="60" y="260" type="line"/>
      <point x="60" y="400" type="line"/>
      <point x="230" y="400" type="line"/>
      <point x="230" y="570" type="line"/>
      <point x="380" y="570" type="line"/>
      <point x="380" y="400" type="line"/>
      <point x="550" y="400" type="line"/>
      <point x="550" y="260" type="line"/>
      <point x="380" y="260" type="line"/>
      <point x="380" y="111" type="line"/>
      <point x="535" y="111" type="line"/>
      <point x="535" y="0" type="line"/>
      <point x="65" y="0" type="line"/>
      <point x="65" y="111" type="line"/>
      <point x="230" y="111" type="line"/>
      <point x="230" y="260" type="line"/>
    </contour>
  </outline>
</glyph>
<glyph name="twosuperior" format="2">
  <advance width="600" height="985"/>
  <unicode hex="00B2"/>
  <outline>
    <contour>
      <point x="415" y="667" type="curve" smooth="yes"/>
      <point x="415" y="620"/>
      <point x="384" y="585"/>
      <point x="318" y="550" type="curve" smooth="yes"/>
      <point x="260" y="519" type="line"/>
      <point x="260" y="510" type="line"/>
      <point x="260" y="510"/>
      <point x="295" y="515"/>
      <point x="320" y="515" type="curve" smooth="yes"/>
      <point x="420" y="515" type="line"/>
      <point x="420" y="440" type="line"/>
      <point x="145" y="440" type="line"/>
      <point x="145" y="529" type="line"/>
      <point x="288" y="609" type="line" smooth="yes"/>
      <point x="314" y="624"/>
      <point x="325" y="639"/>
      <point x="325" y="659" type="curve" smooth="yes"/>
      <point x="325" y="684"/>
      <point x="308" y="700"/>
      <point x="283" y="700" type="curve" smooth="yes"/>
      <point x="254" y="700"/>
      <point x="235" y="682"/>
      <point x="235" y="656" type="curve"/>
      <point x="145" y="656" type="line"/>
      <point x="145" y="723"/>
      <point x="202" y="770"/>
      <point x="283" y="770" type="curve" smooth="yes"/>
      <point x="362" y="770"/>
      <point x="415" y="729"/>
    </contour>
  </outline>
</glyph>
<glyph name="acute" format="2">
  <advance width="600" height="985"/>
  <unicode hex="00B4"/>
  <outline>
    <contour>
      <point x="465" y="785" type="line"/>
      <point x="315" y="785" type="line"/>
      <point x="215" y="645" type="line"/>
      <point x="345" y="645" type="line"/>
    </contour>
  </outline>
</glyph>
<glyph name="uni00B5" format="2">
  <advance width="600" height="985"/>
  <unicode hex="00B5"/>
  <outline>
    <contour>
      <point x="65" y="-170" type="line"/>
      <point x="204" y="-170" type="line"/>
      <point x="184" y="-13" type="line" smooth="yes"/>
      <point x="179" y="23"/>
      <point x="158" y="83"/>
      <point x="156" y="83" type="curve"/>
      <point x="165" y="83" type="line"/>
      <point x="165" y="83"/>
      <point x="191" y="-10"/>
      <point x="315" y="-10" type="curve" smooth="yes"/>
      <point x="452" y="-10"/>
      <point x="535" y="75"/>
      <point x="535" y="214" type="curve" smooth="yes"/>
      <point x="535" y="550" type="line"/>
      <point x="385" y="550" type="line"/>
      <point x="385" y="215" type="line" smooth="yes"/>
      <point x="385" y="154"/>
      <point x="356" y="120"/>
      <point x="300" y="120" type="curve" smooth="yes"/>
      <point x="243" y="120"/>
      <point x="215" y="154"/>
      <point x="215" y="215" type="curve" smooth="yes"/>
      <point x="215" y="550" type="line"/>
      <point x="65" y="550" type="line"/>
    </contour>
  </outline>
</glyph>
<glyph name="paragraph" format="2">
  <advance width="600" height="985"/>
  <unicode hex="00B6"/>
  <outline>
    <contour>
      <point x="350" y="720" type="line"/>
      <point x="240" y="720" type="line" smooth="yes"/>
      <point x="126" y="720"/>
      <point x="50" y="652"/>
      <point x="50" y="550" type="curve" smooth="yes"/>
      <point x="50" y="470" type="line" smooth="yes"/>
      <point x="50" y="368"/>
      <point x="126" y="300"/>
      <point x="240" y="300" type="curve"/>
      <point x="240" y="0" type="line"/>
      <point x="350" y="0" type="line"/>
    </contour>
    <contour>
      <point x="530" y="720" type="line"/>
      <point x="420" y="720" type="line"/>
      <point x="420" y="0" type="line"/>
      <point x="530" y="0" type="line"/>
    </contour>
  </outline>
</glyph>
<glyph name="onesuperior" format="2">
  <advance width="600" height="985"/>
  <unicode hex="00B9"/>
  <outline>
    <contour>
      <point x="284" y="515" type="line"/>
      <point x="284" y="645" type="line" smooth="yes"/>
      <point x="284" y="677"/>
      <point x="290" y="697"/>
      <point x="290" y="698" type="curve"/>
      <point x="285" y="698" type="line"/>
      <point x="285" y="698"/>
      <point x="266" y="676"/>
      <point x="245" y="660" type="curve" smooth="yes"/>
      <point x="184" y="613" type="line"/>
      <point x="184" y="711" type="line"/>
      <point x="259" y="765" type="line"/>
      <point x="374" y="765" type="line"/>
      <point x="374" y="515" type="line"/>
      <point x="464" y="515" type="line"/>
      <point x="464" y="440" type="line"/>
      <point x="170" y="440" type="line"/>
      <point x="170" y="515" type="line"/>
    </contour>
  </outline>
</glyph>
<glyph name="Thorn" format="2">
  <advance width="600" height="985"/>
  <unicode hex="00DE"/>
  <outline>
    <contour>
      <point x="220" y="0" type="line"/>
      <point x="70" y="0" type="line"/>
      <point x="70" y="710" type="line"/>
      <point x="220" y="710" type="line"/>
      <point x="220" y="590" type="line"/>
      <point x="340" y="590" type="line" smooth="yes"/>
      <point x="484" y="590"/>
      <point x="570" y="510"/>
      <point x="570" y="375" type="curve" smooth="yes"/>
      <point x="570" y="241"/>
      <point x="483" y="160"/>
      <point x="340" y="160" type="curve" smooth="yes"/>
      <point x="220" y="160" type="line"/>
    </contour>
    <contour>
      <point x="315" y="285" type="line" smooth="yes"/>
      <point x="383" y="285"/>
      <point x="420" y="317"/>
      <point x="420" y="375" type="curve" smooth="yes"/>
      <point x="420" y="433"/>
      <point x="383" y="465"/>
      <point x="315" y="465" type="curve" smooth="yes"/>
      <point x="220" y="465" type="line"/>
      <point x="220" y="285" type="line"/>
    </contour>
  </outline>
</glyph>
<glyph name="germandbls" format="2">
  <advance width="600" height="985"/>
  <unicode hex="00DF"/>
  <outline>
    <contour>
      <point x="40" y="551" type="line" smooth="yes"/>
      <point x="40" y="658"/>
      <point x="134" y="730"/>
      <point x="259" y="730" type="curve" smooth="yes"/>
      <point x="312" y="730" type="line" smooth="yes"/>
      <point x="451" y="730"/>
      <point x="543" y="658"/>
      <point x="543" y="551" type="curve" smooth="yes"/>
      <point x="543" y="450" type="line"/>
      <point x="428" y="450" type="line" smooth="yes"/>
      <point x="388" y="450"/>
      <point x="364" y="430"/>
      <point x="364" y="398" type="curve" smooth="yes"/>
      <point x="364" y="366"/>
      <point x="379" y="350"/>
      <point x="406" y="343" type="curve" smooth="yes"/>
      <point x="439" y="335" type="line" smooth="yes"/>
      <point x="535" y="312"/>
      <point x="585" y="250"/>
      <point x="585" y="157" type="curve" smooth="yes"/>
      <point x="585" y="57"/>
      <point x="511" y="-10"/>
      <point x="409" y="-10" type="curve" smooth="yes"/>
      <point x="312" y="-10"/>
      <point x="240" y="50"/>
      <point x="230" y="140" type="curve"/>
      <point x="345" y="140" type="line"/>
      <point x="350" y="110"/>
      <point x="376" y="90"/>
      <point x="409" y="90" type="curve" smooth="yes"/>
      <point x="443" y="90"/>
      <point x="465" y="115"/>
      <point x="465" y="152" type="curve" smooth="yes"/>
      <point x="465" y="192"/>
      <point x="447" y="220"/>
      <point x="416" y="227" type="curve" smooth="yes"/>
      <point x="386" y="234" type="line" smooth="yes"/>
      <point x="289" y="257"/>
      <point x="243" y="305"/>
      <point x="243" y="392" type="curve" smooth="yes"/>
      <point x="243" y="484"/>
      <point x="314" y="550"/>
      <point x="413" y="550" type="curve"/>
      <point x="413" y="592"/>
      <point x="373" y="620"/>
      <point x="312" y="620" type="curve" smooth="yes"/>
      <point x="259" y="620" type="line" smooth="yes"/>
      <point x="207" y="620"/>
      <point x="175" y="593"/>
      <point x="175" y="550" type="curve" smooth="yes"/>
      <point x="175" y="0" type="line"/>
      <point x="40" y="0" type="line"/>
    </contour>
  </outline>
</glyph>
<glyph name="ae" format="2">
  <advance width="600" height="985"/>
  <unicode hex="00E6"/>
  <outline>
    <contour>
      <point x="357" y="330" type="line"/>
      <point x="450" y="330" type="line"/>
      <point x="450" y="410" type="line" smooth="yes"/>
      <point x="450" y="442"/>
      <point x="432" y="463"/>
      <point x="404" y="463" type="curve" smooth="yes"/>
      <point x="376" y="463"/>
      <point x="357" y="442"/>
      <point x="357" y="410" type="curve" smooth="yes"/>
    </contour>
    <contour>
      <point x="243" y="140" type="curve" smooth="yes"/>
      <point x="243" y="250" type="line"/>
      <point x="200" y="250" type="line" smooth="yes"/>
      <point x="170" y="250"/>
      <point x="150" y="227"/>
      <point x="150" y="190" type="curve" smooth="yes"/>
      <point x="150" y="140" type="line" smooth="yes"/>
      <point x="150" y="107"/>
      <point x="168" y="87"/>
      <point x="199" y="87" type="curve" smooth="yes"/>
      <point x="227" y="87"/>
      <point x="243" y="107"/>
    </contour>
    <contour>
      <point x="357" y="140" type="line" smooth="yes"/>
      <point x="357" y="108"/>
      <point x="376" y="87"/>
      <point x="404" y="87" type="curve" smooth="yes"/>
      <point x="432" y="87"/>
      <point x="450" y="108"/>
      <point x="450" y="140" type="curve"/>
      <point x="565" y="140" type="line"/>
      <point x="565" y="56"/>
      <point x="507" y="-10"/>
      <point x="420" y="-10" type="curve" smooth="yes"/>
      <point x="315" y="-10"/>
      <point x="304" y="70"/>
      <point x="304" y="70" type="curve"/>
      <point x="296" y="70" type="line"/>
      <point x="296" y="70"/>
      <point x="283" y="-10"/>
      <point x="172" y="-10" type="curve" smooth="yes"/>
      <point x="88" y="-10"/>
      <point x="35" y="48"/>
      <point x="35" y="140" type="curve" smooth="yes"/>
      <point x="35" y="190" type="line" smooth="yes"/>
      <point x="35" y="277"/>
      <point x="98" y="330"/>
      <point x="200" y="330" type="curve" smooth="yes"/>
      <point x="243" y="330" type="line"/>
      <point x="243" y="410" type="line" smooth="yes"/>
      <point x="243" y="442"/>
      <point x="225" y="463"/>
      <point x="199" y="463" type="curve" smooth="yes"/>
      <point x="169" y="463"/>
      <point x="150" y="438"/>
      <point x="150" y="400" type="curve"/>
      <point x="35" y="400" type="line"/>
      <point x="35" y="495"/>
      <point x="94" y="560"/>
      <point x="181" y="560" type="curve" smooth="yes"/>
      <point x="285" y="560"/>
      <point x="296" y="480"/>
      <point x="296" y="480" type="curve"/>
      <point x="304" y="480" type="line"/>
      <point x="304" y="480"/>
      <point x="315" y="560"/>
      <point x="420" y="560" type="curve" smooth="yes"/>
      <point x="511" y="560"/>
      <point x="565" y="504"/>
      <point x="565" y="410" type="curve" smooth="yes"/>
      <point x="565" y="250" type="line"/>
      <point x="357" y="250" type="line"/>
    </contour>
  </outline>
  <guideline angle="90" x="303" y="0"/>
</glyph>
<glyph name="oslash" format="2">
  <advance width="600" height="985"/>
  <unicode hex="00F8"/>
  <outline>
    <component base="o"/>
    <contour>
      <point x="460" y="580" type="line"/>
      <point x="575" y="580" type="line"/>
      <point x="140" y="-30" type="line"/>
      <point x="25" y="-30" type="line"/>
    </contour>
  </outline>
</glyph>
<glyph name="thorn" format="2">
  <advance width="600" height="985"/>
  <unicode hex="00FE"/>
  <outline>
    <component base="b"/>
    <contour>
      <point x="63" y="50" type="line"/>
      <point x="209" y="50" type="line"/>
      <point x="213" y="-170" type="line"/>
      <point x="63" y="-170" type="line"/>
    </contour>
  </outline>
</glyph>
<glyph name="dcaron" format="2">
  <advance width="600" height="985"/>
  <unicode hex="010F"/>
  <outline>
    <component base="d" xOffset="-10"/>
    <contour>
      <point x="670" y="756" type="line"/>
      <point x="605" y="610" type="line"/>
      <point x="535" y="610" type="line"/>
      <point x="580" y="756" type="line"/>
    </contour>
  </outline>
</glyph>
<glyph name="Dcroat" format="2">
  <advance width="600" height="985"/>
  <unicode hex="0110"/>
  <outline>
    <component base="D"/>
    <contour>
      <point x="20" y="425" type="line"/>
      <point x="300" y="425" type="line"/>
      <point x="300" y="290" type="line"/>
      <point x="20" y="290" type="line"/>
    </contour>
  </outline>
</glyph>
<glyph name="eogonek" format="2">
  <advance width="600" height="985"/>
  <unicode hex="0119"/>
  <outline>
    <component base="e"/>
    <contour>
      <point x="443" y="99" type="line"/>
      <point x="485" y="56" type="line"/>
      <point x="411" y="-6" type="line" smooth="yes"/>
      <point x="378" y="-34"/>
      <point x="364" y="-59"/>
      <point x="364" y="-84" type="curve" smooth="yes"/>
      <point x="364" y="-109"/>
      <point x="382" y="-125"/>
      <point x="410" y="-125" type="curve" smooth="yes"/>
      <point x="500" y="-125" type="line"/>
      <point x="500" y="-210" type="line"/>
      <point x="391" y="-210" type="line" smooth="yes"/>
      <point x="303" y="-210"/>
      <point x="250" y="-176"/>
      <point x="250" y="-120" type="curve" smooth="yes"/>
      <point x="250" y="-80"/>
      <point x="278" y="-40"/>
      <point x="338" y="11" type="curve" smooth="yes"/>
    </contour>
  </outline>
</glyph>
<glyph name="Hbar" format="2">
  <advance width="600" height="985"/>
  <unicode hex="0126"/>
  <outline>
    <component base="H"/>
    <contour>
      <point x="25" y="620" type="line"/>
      <point x="575" y="620" type="line"/>
      <point x="575" y="520" type="line"/>
      <point x="25" y="520" type="line"/>
    </contour>
  </outline>
</glyph>
<glyph name="hbar" format="2">
  <advance width="600" height="985"/>
  <unicode hex="0127"/>
  <outline>
    <contour>
      <point x="211" y="595" type="line"/>
      <point x="211" y="550" type="line" smooth="yes"/>
      <point x="211" y="509"/>
      <point x="201" y="455"/>
      <point x="202" y="455" type="curve"/>
      <point x="213" y="455" type="line"/>
      <point x="222" y="521"/>
      <point x="274" y="560"/>
      <point x="354" y="560" type="curve" smooth="yes"/>
      <point x="465" y="560"/>
      <point x="535" y="481"/>
      <point x="535" y="355" type="curve" smooth="yes"/>
      <point x="535" y="0" type="line"/>
      <point x="385" y="0" type="line"/>
      <point x="385" y="340" type="line" smooth="yes"/>
      <point x="385" y="395"/>
      <point x="351" y="430"/>
      <point x="298" y="430" type="curve" smooth="yes"/>
      <point x="245" y="430"/>
      <point x="211" y="395"/>
      <point x="211" y="340" type="curve" smooth="yes"/>
      <point x="211" y="0" type="line"/>
      <point x="61" y="0" type="line"/>
      <point x="61" y="595" type="line"/>
      <point x="0" y="595" type="line"/>
      <point x="0" y="680" type="line"/>
      <point x="61" y="680" type="line"/>
      <point x="61" y="730" type="line"/>
      <point x="211" y="730" type="line"/>
      <point x="211" y="680" type="line"/>
      <point x="310" y="680" type="line"/>
      <point x="310" y="595" type="line"/>
    </contour>
  </outline>
  <guideline angle="0" x="0" y="-168"/>
</glyph>
<glyph name="dotlessi" format="2">
  <advance width="600" height="985"/>
  <unicode hex="0131"/>
  <outline>
    <contour>
      <point x="90" y="550" type="line"/>
      <point x="410" y="550" type="line"/>
      <point x="410" y="136" type="line"/>
      <point x="565" y="136" type="line"/>
      <point x="565" y="0" type="line"/>
      <point x="66" y="0" type="line"/>
      <point x="66" y="136" type="line"/>
      <point x="270" y="136" type="line"/>
      <point x="270" y="415" type="line"/>
      <point x="90" y="415" type="line"/>
    </contour>
  </outline>
</glyph>
<glyph name="Lslash" format="2">
  <advance width="600" height="985"/>
  <unicode hex="0141"/>
  <outline>
    <component base="L" xOffset="10"/>
    <contour>
      <point x="20" y="370" type="line"/>
      <point x="400" y="560" type="line"/>
      <point x="400" y="420" type="line"/>
      <point x="20" y="230" type="line"/>
    </contour>
  </outline>
</glyph>
<glyph name="lslash" format="2">
  <advance width="600" height="985"/>
  <unicode hex="0142"/>
  <outline>
    <component base="l"/>
    <contour>
      <point x="100" y="370" type="line"/>
      <point x="480" y="560" type="line"/>
      <point x="480" y="420" type="line"/>
      <point x="100" y="230" type="line"/>
    </contour>
  </outline>
  <guideline angle="0" x="0" y="730"/>
</glyph>
<glyph name="eng" format="2">
  <advance width="600" height="985"/>
  <unicode hex="014B"/>
  <outline>
    <contour>
      <point x="61" y="550" type="line"/>
      <point x="61" y="0" type="line"/>
      <point x="211" y="0" type="line"/>
      <point x="211" y="340" type="line" smooth="yes"/>
      <point x="211" y="395"/>
      <point x="245" y="430"/>
      <point x="298" y="430" type="curve" smooth="yes"/>
      <point x="351" y="430"/>
      <point x="385" y="395"/>
      <point x="385" y="340" type="curve" smooth="yes"/>
      <point x="385" y="51" type="line" smooth="yes"/>
      <point x="385" y="3"/>
      <point x="356" y="-25"/>
      <point x="305" y="-25" type="curve" smooth="yes"/>
      <point x="245" y="-25" type="line"/>
      <point x="245" y="-170" type="line"/>
      <point x="295" y="-170" type="line" smooth="yes"/>
      <point x="436" y="-170"/>
      <point x="535" y="-86"/>
      <point x="535" y="35" type="curve" smooth="yes"/>
      <point x="535" y="350" type="line" smooth="yes"/>
      <point x="535" y="478"/>
      <point x="467" y="560"/>
      <point x="353" y="560" type="curve" smooth="yes"/>
      <point x="272" y="560"/>
      <point x="225" y="518"/>
      <point x="216" y="445" type="curve"/>
      <point x="203" y="445" type="line"/>
      <point x="203" y="550" type="line"/>
    </contour>
  </outline>
</glyph>
<glyph name="oe" format="2">
  <advance width="600" height="985"/>
  <unicode hex="0153"/>
  <outline>
    <contour>
      <point x="35" y="140" type="line" smooth="yes"/>
      <point x="35" y="49"/>
      <point x="92" y="-10"/>
      <point x="180" y="-10" type="curve" smooth="yes"/>
      <point x="282" y="-10"/>
      <point x="296" y="70"/>
      <point x="296" y="70" type="curve"/>
      <point x="304" y="70" type="line"/>
      <point x="304" y="70"/>
      <point x="319" y="-10"/>
      <point x="420" y="-10" type="curve" smooth="yes"/>
      <point x="494" y="-10"/>
      <point x="549" y="42"/>
      <point x="562" y="125" type="curve"/>
      <point x="447" y="125" type="line"/>
      <point x="444" y="102"/>
      <point x="427" y="87"/>
      <point x="404" y="87" type="curve" smooth="yes"/>
      <point x="376" y="87"/>
      <point x="357" y="108"/>
      <point x="357" y="140" type="curve" smooth="yes"/>
      <point x="357" y="250" type="line"/>
      <point x="565" y="250" type="line"/>
      <point x="565" y="410" type="line" smooth="yes"/>
      <point x="565" y="502"/>
      <point x="509" y="560"/>
      <point x="420" y="560" type="curve" smooth="yes"/>
      <point x="319" y="560"/>
      <point x="304" y="480"/>
      <point x="304" y="480" type="curve"/>
      <point x="296" y="480" type="line"/>
      <point x="296" y="480"/>
      <point x="282" y="560"/>
      <point x="180" y="560" type="curve" smooth="yes"/>
      <point x="91" y="560"/>
      <point x="35" y="502"/>
      <point x="35" y="410" type="curve" smooth="yes"/>
    </contour>
    <contour>
      <point x="357" y="330" type="line"/>
      <point x="357" y="410" type="line" smooth="yes"/>
      <point x="357" y="442"/>
      <point x="376" y="463"/>
      <point x="404" y="463" type="curve" smooth="yes"/>
      <point x="432" y="463"/>
      <point x="450" y="442"/>
      <point x="450" y="410" type="curve" smooth="yes"/>
      <point x="450" y="330" type="line"/>
    </contour>
    <contour>
      <point x="150" y="140" type="curve" smooth="yes"/>
      <point x="150" y="410" type="line" smooth="yes"/>
      <point x="150" y="442"/>
      <point x="169" y="463"/>
      <point x="197" y="463" type="curve" smooth="yes"/>
      <point x="225" y="463"/>
      <point x="243" y="442"/>
      <point x="243" y="410" type="curve" smooth="yes"/>
      <point x="243" y="140" type="line" smooth="yes"/>
      <point x="243" y="108"/>
      <point x="225" y="87"/>
      <point x="197" y="87" type="curve" smooth="yes"/>
      <point x="169" y="87"/>
      <point x="150" y="108"/>
    </contour>
  </outline>
  <guideline angle="90" x="404" y="0"/>
</glyph>
<glyph name="longs" format="2">
  <advance width="600" height="985"/>
  <unicode hex="017F"/>
  <outline>
    <contour>
      <point x="535" y="720" type="line"/>
      <point x="535" y="590" type="line"/>
      <point x="360" y="590" type="line" smooth="yes"/>
      <point x="315" y="590"/>
      <point x="285" y="560"/>
      <point x="285" y="515" type="curve" smooth="yes"/>
      <point x="285" y="0" type="line"/>
      <point x="135" y="0" type="line"/>
      <point x="135" y="515" type="line" smooth="yes"/>
      <point x="135" y="640"/>
      <point x="219" y="720"/>
      <point x="350" y="720" type="curve" smooth="yes"/>
    </contour>
  </outline>
</glyph>
<glyph name="florin" format="2">
  <advance width="600" height="985"/>
  <unicode hex="0192"/>
  <outline>
    <contour>
      <point x="205" y="51" type="line" smooth="yes"/>
      <point x="205" y="3"/>
      <point x="176" y="-25"/>
      <point x="125" y="-25" type="curve" smooth="yes"/>
      <point x="0" y="-25" type="line"/>
      <point x="0" y="-170" type="line"/>
      <point x="115" y="-170" type="line" smooth="yes"/>
      <point x="256" y="-170"/>
      <point x="355" y="-86"/>
      <point x="355" y="35" type="curve" smooth="yes"/>
      <point x="355" y="340" type="line"/>
      <point x="560" y="340" type="line"/>
      <point x="560" y="470" type="line"/>
      <point x="355" y="470" type="line"/>
      <point x="355" y="545" type="line" smooth="yes"/>
      <point x="355" y="573"/>
      <point x="373" y="590"/>
      <point x="400" y="590" type="curve" smooth="yes"/>
      <point x="555" y="590" type="line"/>
      <point x="555" y="720" type="line"/>
      <point x="380" y="720" type="line" smooth="yes"/>
      <point x="274" y="720"/>
      <point x="205" y="651"/>
      <point x="205" y="545" type="curve" smooth="yes"/>
      <point x="205" y="470" type="line"/>
      <point x="50" y="470" type="line"/>
      <point x="50" y="340" type="line"/>
      <point x="205" y="340" type="line"/>
    </contour>
  </outline>
</glyph>
<glyph name="uni0259" format="2">
  <advance width="600"/>
  <unicode hex="0259"/>
  <outline>
    <contour>
      <point x="407" y="310" type="line" name="dv01"/>
      <point x="48" y="310" type="line"/>
      <point x="48" y="210" type="line" smooth="yes" name="sh03"/>
      <point x="48" y="79"/>
      <point x="149" y="-10"/>
      <point x="298" y="-10" type="curve" smooth="yes" name="at01"/>
      <point x="450" y="-10"/>
      <point x="550" y="77"/>
      <point x="550" y="209" type="curve" smooth="yes" name="sh01"/>
      <point x="550" y="340" type="line" smooth="yes"/>
      <point x="550" y="472"/>
      <point x="449" y="560"/>
      <point x="298" y="560" type="curve" smooth="yes" name="ab01"/>
      <point x="176" y="560"/>
      <point x="78" y="496"/>
      <point x="53" y="400" type="curve" name="sv01"/>
      <point x="200" y="400" type="line" name="sh04"/>
      <point x="212" y="428"/>
      <point x="249" y="445"/>
      <point x="298" y="445" type="curve" smooth="yes" name="sv02"/>
      <point x="365" y="445"/>
      <point x="407" y="405"/>
      <point x="407" y="340" type="curve" smooth="yes"/>
    </contour>
    <contour>
      <point x="407" y="220" type="line" name="dv02"/>
      <point x="407" y="209" type="line" smooth="yes" name="sh02"/>
      <point x="407" y="146"/>
      <point x="365" y="105"/>
      <point x="298" y="105" type="curve" smooth="yes" name="sv03"/>
      <point x="231" y="105"/>
      <point x="191" y="145"/>
      <point x="191" y="210" type="curve" smooth="yes" name="ah01"/>
      <point x="191" y="230" type="line" name="iv01"/>
      <point x="181" y="220" type="line" name="ih01"/>
    </contour>
  </outline>
</glyph>
<glyph name="circumflex" format="2">
  <advance width="600" height="985"/>
  <unicode hex="02C6"/>
  <outline>
    <contour>
      <point x="215" y="785" type="line"/>
      <point x="385" y="785" type="line"/>
      <point x="485" y="645" type="line"/>
      <point x="375" y="645" type="line"/>
      <point x="361" y="662" type="line" smooth="yes"/>
      <point x="337.511" y="690.522"/>
      <point x="306" y="735"/>
      <point x="306" y="735" type="curve"/>
      <point x="294" y="735" type="line"/>
      <point x="294" y="735"/>
      <point x="262.417" y="689.9"/>
      <point x="240" y="663" type="curve" smooth="yes"/>
      <point x="225" y="645" type="line"/>
      <point x="115" y="645" type="line"/>
    </contour>
  </outline>
</glyph>
<glyph name="caron" format="2">
  <advance width="600" height="985"/>
  <unicode hex="02C7"/>
  <outline>
    <contour>
      <point x="385" y="645" type="line"/>
      <point x="215" y="645" type="line"/>
      <point x="115" y="785" type="line"/>
      <point x="225" y="785" type="line"/>
      <point x="239" y="768" type="line" smooth="yes"/>
      <point x="262.489" y="739.478"/>
      <point x="294" y="695"/>
      <point x="294" y="695" type="curve"/>
      <point x="306" y="695" type="line"/>
      <point x="306" y="695"/>
      <point x="337.583" y="740.1"/>
      <point x="360" y="767" type="curve" smooth="yes"/>
      <point x="375" y="785" type="line"/>
      <point x="485" y="785" type="line"/>
    </contour>
  </outline>
</glyph>
<glyph name="breve" format="2">
  <advance width="600" height="985"/>
  <unicode hex="02D8"/>
  <outline>
    <contour>
      <point x="299" y="730" type="curve" smooth="yes"/>
      <point x="340.25" y="730"/>
      <point x="365" y="750.625"/>
      <point x="365" y="785" type="curve"/>
      <point x="480" y="785" type="line"/>
      <point x="480" y="698"/>
      <point x="408" y="640"/>
      <point x="300" y="640" type="curve" smooth="yes"/>
      <point x="192" y="640"/>
      <point x="120" y="698"/>
      <point x="120" y="785" type="curve"/>
      <point x="235" y="785" type="line"/>
      <point x="235" y="750.582"/>
      <point x="258.95" y="730"/>
    </contour>
  </outline>
</glyph>
<glyph name="dotaccent" format="2">
  <advance width="600" height="985"/>
  <unicode hex="02D9"/>
  <outline>
    <contour>
      <point x="275" y="775" type="curve" smooth="yes"/>
      <point x="305" y="775" type="line" smooth="yes"/>
      <point x="350" y="775"/>
      <point x="380" y="747"/>
      <point x="380" y="704.5" type="curve" smooth="yes"/>
      <point x="380" y="662"/>
      <point x="350" y="635"/>
      <point x="304" y="635" type="curve" smooth="yes"/>
      <point x="275" y="635" type="line" smooth="yes"/>
      <point x="230" y="635"/>
      <point x="200" y="663"/>
      <point x="200" y="705" type="curve" smooth="yes"/>
      <point x="200" y="747"/>
      <point x="230" y="775"/>
    </contour>
  </outline>
</glyph>
<glyph name="tilde" format="2">
  <advance width="600" height="985"/>
  <unicode hex="02DC"/>
  <outline>
    <contour>
      <point x="380" y="720" type="curve" smooth="yes"/>
      <point x="330" y="720"/>
      <point x="300" y="790"/>
      <point x="215" y="790" type="curve" smooth="yes"/>
      <point x="147" y="790"/>
      <point x="105" y="743"/>
      <point x="105" y="675" type="curve" smooth="yes"/>
      <point x="105" y="640" type="line"/>
      <point x="190" y="640" type="line"/>
      <point x="190" y="672" type="line" smooth="yes"/>
      <point x="190" y="692"/>
      <point x="202" y="705"/>
      <point x="220" y="705" type="curve" smooth="yes"/>
      <point x="270" y="705"/>
      <point x="300" y="635"/>
      <point x="385" y="635" type="curve" smooth="yes"/>
      <point x="453" y="635"/>
      <point x="495" y="682"/>
      <point x="495" y="750" type="curve" smooth="yes"/>
      <point x="495" y="785" type="line"/>
      <point x="410" y="785" type="line"/>
      <point x="410" y="748" type="line" smooth="yes"/>
      <point x="410" y="731"/>
      <point x="398" y="720"/>
    </contour>
  </outline>
</glyph>
<glyph name="hungarumlaut" format="2">
  <advance width="600" height="985"/>
  <unicode hex="02DD"/>
  <outline>
    <contour>
      <point x="570" y="785" type="line"/>
      <point x="420" y="785" type="line"/>
      <point x="320" y="645" type="line"/>
      <point x="450" y="645" type="line"/>
    </contour>
    <contour>
      <point x="340" y="785" type="line"/>
      <point x="190" y="785" type="line"/>
      <point x="90" y="645" type="line"/>
      <point x="220" y="645" type="line"/>
    </contour>
  </outline>
</glyph>
<glyph name="hookabovecomb" format="2">
  <advance width="600"/>
  <unicode hex="0309"/>
  <outline>
    <contour>
      <point x="225" y="620" type="line"/>
      <point x="236" y="629" type="line"/>
      <point x="281" y="666"/>
      <point x="300" y="695"/>
      <point x="300" y="722.787" type="curve" smooth="yes"/>
      <point x="300" y="752"/>
      <point x="279" y="770"/>
      <point x="245" y="770" type="curve" smooth="yes"/>
      <point x="185" y="770" type="line"/>
      <point x="185" y="830" type="line"/>
      <point x="263" y="830" type="line" smooth="yes"/>
      <point x="337" y="830"/>
      <point x="385" y="794"/>
      <point x="385" y="740" type="curve" smooth="yes"/>
      <point x="385" y="702"/>
      <point x="363" y="664"/>
      <point x="300" y="620" type="curve"/>
    </contour>
  </outline>
</glyph>
<glyph name="commaaccent" format="2">
  <advance width="600" height="985"/>
  <unicode hex="0326"/>
  <outline>
    <contour>
      <point x="425" y="-95" type="line"/>
      <point x="300" y="-245" type="line"/>
      <point x="175" y="-245" type="line"/>
      <point x="260" y="-95" type="line"/>
    </contour>
  </outline>
</glyph>
<glyph name="uni0336" format="2">
  <unicode hex="0336"/>
  <outline>
    <contour>
      <point x="-630" y="371" type="line"/>
      <point x="30" y="371" type="line"/>
      <point x="30" y="260" type="line"/>
      <point x="-630" y="260" type="line"/>
    </contour>
  </outline>
</glyph>
<glyph name="uni0374" format="2">
  <advance width="600"/>
  <unicode hex="0374"/>
  <outline>
    <contour>
      <point x="400" y="720" type="line"/>
      <point x="270" y="409" type="line"/>
      <point x="140" y="409" type="line"/>
      <point x="220" y="720" type="line"/>
    </contour>
  </outline>
</glyph>
<glyph name="Omega" format="2">
  <advance width="600" height="985"/>
  <unicode hex="03A9"/>
  <outline>
    <contour>
      <point x="300" y="730" type="curve" smooth="yes"/>
      <point x="148" y="730"/>
      <point x="48" y="641"/>
      <point x="48" y="506" type="curve" smooth="yes"/>
      <point x="48" y="305" type="line" smooth="yes"/>
      <point x="48" y="160"/>
      <point x="195" y="145"/>
      <point x="195" y="145" type="curve"/>
      <point x="195" y="140" type="line"/>
      <point x="50" y="140" type="line"/>
      <point x="50" y="0" type="line"/>
      <point x="260" y="0" type="line"/>
      <point x="260" y="230" type="line"/>
      <point x="223" y="230"/>
      <point x="198" y="258"/>
      <point x="198" y="300" type="curve" smooth="yes"/>
      <point x="198" y="506" type="line" smooth="yes"/>
      <point x="198" y="563"/>
      <point x="238" y="600"/>
      <point x="300" y="600" type="curve" smooth="yes"/>
      <point x="362" y="600"/>
      <point x="402" y="563"/>
      <point x="402" y="506" type="curve" smooth="yes"/>
      <point x="402" y="300" type="line" smooth="yes"/>
      <point x="402" y="258"/>
      <point x="377" y="230"/>
      <point x="340" y="230" type="curve"/>
      <point x="340" y="0" type="line"/>
      <point x="551" y="0" type="line"/>
      <point x="551" y="140" type="line"/>
      <point x="405" y="140" type="line"/>
      <point x="405" y="146" type="line"/>
      <point x="405" y="146"/>
      <point x="552" y="160"/>
      <point x="552" y="305" type="curve" smooth="yes"/>
      <point x="552" y="506" type="line" smooth="yes"/>
      <point x="552" y="641"/>
      <point x="452" y="730"/>
    </contour>
  </outline>
</glyph>
<glyph name="uni040B" format="2">
  <advance width="600" height="985"/>
  <unicode hex="040B"/>
  <outline>
    <contour>
      <point x="0" y="720" type="line"/>
      <point x="360" y="720" type="line"/>
      <point x="360" y="580" type="line"/>
      <point x="250" y="580" type="line"/>
      <point x="250" y="420" type="line"/>
      <point x="264" y="434" type="line" smooth="yes"/>
      <point x="304" y="474"/>
      <point x="349" y="495"/>
      <point x="395" y="495" type="curve" smooth="yes"/>
      <point x="503" y="495"/>
      <point x="574" y="418"/>
      <point x="574" y="290" type="curve" smooth="yes"/>
      <point x="575" y="0" type="line"/>
      <point x="425" y="0" type="line"/>
      <point x="424" y="285" type="line"/>
      <point x="424" y="338"/>
      <point x="402" y="365"/>
      <point x="360" y="365" type="curve" smooth="yes"/>
      <point x="332" y="365"/>
      <point x="307" y="353"/>
      <point x="283" y="329" type="curve" smooth="yes"/>
      <point x="250" y="296" type="line"/>
      <point x="250" y="0" type="line"/>
      <point x="100" y="0" type="line"/>
      <point x="100" y="580" type="line"/>
      <point x="0" y="580" type="line"/>
    </contour>
  </outline>
</glyph>
<glyph name="uni040F" format="2">
  <advance width="600" height="985"/>
  <unicode hex="040F"/>
  <outline>
    <contour>
      <point x="65" y="0" type="line"/>
      <point x="225" y="0" type="line"/>
      <point x="225" y="-125" type="line"/>
      <point x="375" y="-125" type="line"/>
      <point x="375" y="0" type="line"/>
      <point x="535" y="0" type="line"/>
      <point x="535" y="720" type="line"/>
      <point x="385" y="720" type="line"/>
      <point x="385" y="140" type="line"/>
      <point x="215" y="140" type="line"/>
      <point x="215" y="720" type="line"/>
      <point x="65" y="720" type="line"/>
    </contour>
  </outline>
</glyph>
<glyph name="uni0414" format="2">
  <advance width="600" height="985"/>
  <unicode hex="0414"/>
  <outline>
    <contour>
      <point x="199" y="139" type="curve"/>
      <point x="199" y="128" type="line"/>
      <point x="378" y="128" type="line"/>
      <point x="378" y="590" type="line"/>
      <point x="248" y="590" type="line"/>
      <point x="245" y="411" type="line" smooth="yes"/>
      <point x="242" y="214"/>
      <point x="199" y="139"/>
    </contour>
    <contour>
      <point x="160" y="0" type="line"/>
      <point x="160" y="-140" type="line"/>
      <point x="20" y="-140" type="line"/>
      <point x="20" y="128" type="line"/>
      <point x="49" y="128" type="line"/>
      <point x="49" y="128"/>
      <point x="101" y="209"/>
      <point x="104" y="410" type="curve" smooth="yes"/>
      <point x="109" y="720" type="line"/>
      <point x="520" y="720" type="line"/>
      <point x="520" y="128" type="line"/>
      <point x="580" y="128" type="line"/>
      <point x="580" y="-140" type="line"/>
      <point x="440" y="-140" type="line"/>
      <point x="440" y="0" type="line"/>
    </contour>
  </outline>
</glyph>
<glyph name="uni0416" format="2">
  <advance width="600" height="985"/>
  <unicode hex="0416"/>
  <outline>
    <contour>
      <point x="0" y="0" type="line"/>
      <point x="94" y="363" type="line"/>
      <point x="6" y="720" type="line"/>
      <point x="132" y="720" type="line"/>
      <point x="210" y="391" type="line"/>
      <point x="247" y="391" type="line"/>
      <point x="247" y="720" type="line"/>
      <point x="349" y="720" type="line"/>
      <point x="349" y="391" type="line"/>
      <point x="387" y="391" type="line"/>
      <point x="467" y="720" type="line"/>
      <point x="590" y="720" type="line"/>
      <point x="502" y="366" type="line"/>
      <point x="600" y="0" type="line"/>
      <point x="475" y="0" type="line"/>
      <point x="389" y="337" type="line"/>
      <point x="349" y="337" type="line"/>
      <point x="354" y="0" type="line"/>
      <point x="252" y="0" type="line"/>
      <point x="247" y="337" type="line"/>
      <point x="208" y="337" type="line"/>
      <point x="126" y="0" type="line"/>
    </contour>
  </outline>
</glyph>
<glyph name="uni0417" format="2">
  <advance width="600" height="985"/>
  <unicode hex="0417"/>
  <outline>
    <contour>
      <point x="46" y="525" type="curve"/>
      <point x="196" y="525" type="line"/>
      <point x="205" y="572"/>
      <point x="245" y="600"/>
      <point x="300" y="600" type="curve" smooth="yes"/>
      <point x="365" y="600"/>
      <point x="406" y="567"/>
      <point x="406" y="516" type="curve" smooth="yes"/>
      <point x="406" y="466"/>
      <point x="366" y="435"/>
      <point x="300" y="435" type="curve" smooth="yes"/>
      <point x="195" y="435" type="line"/>
      <point x="195" y="300" type="line"/>
      <point x="300" y="300" type="line" smooth="yes"/>
      <point x="369" y="300"/>
      <point x="410" y="266"/>
      <point x="410" y="210" type="curve" smooth="yes"/>
      <point x="410" y="157"/>
      <point x="365" y="120"/>
      <point x="300" y="120" type="curve" smooth="yes"/>
      <point x="237" y="120"/>
      <point x="195" y="148"/>
      <point x="190" y="195" type="curve"/>
      <point x="40" y="195" type="line"/>
      <point x="47" y="69"/>
      <point x="148" y="-10"/>
      <point x="300" y="-10" type="curve" smooth="yes"/>
      <point x="458" y="-10"/>
      <point x="560" y="74"/>
      <point x="560" y="209" type="curve" smooth="yes"/>
      <point x="560" y="302"/>
      <point x="501" y="364"/>
      <point x="406" y="370" type="curve"/>
      <point x="406" y="381" type="line"/>
      <point x="494" y="389"/>
      <point x="547" y="447"/>
      <point x="547" y="536" type="curve" smooth="yes"/>
      <point x="547" y="654"/>
      <point x="451" y="730"/>
      <point x="300" y="730" type="curve" smooth="yes"/>
      <point x="158" y="730"/>
      <point x="58" y="649"/>
    </contour>
  </outline>
</glyph>
<glyph name="uni0427" format="2">
  <advance width="600" height="985"/>
  <unicode hex="0427"/>
  <outline>
    <contour>
      <point x="40" y="720" type="line"/>
      <point x="40" y="471" type="line" smooth="yes"/>
      <point x="40" y="339"/>
      <point x="125" y="255"/>
      <point x="260" y="255" type="curve" smooth="yes"/>
      <point x="385" y="255" type="line"/>
      <point x="385" y="0" type="line"/>
      <point x="535" y="0" type="line"/>
      <point x="535" y="720" type="line"/>
      <point x="385" y="720" type="line"/>
      <point x="385" y="390" type="line"/>
      <point x="295" y="390" type="line" smooth="yes"/>
      <point x="231" y="390"/>
      <point x="190" y="425"/>
      <point x="190" y="480" type="curve" smooth="yes"/>
      <point x="190" y="720" type="line"/>
    </contour>
  </outline>
</glyph>
<glyph name="uni0429" format="2">
  <advance width="600" height="985"/>
  <unicode hex="0429"/>
  <outline>
    <contour>
      <point x="35" y="720" type="line"/>
      <point x="35" y="0" type="line"/>
      <point x="457" y="0" type="line"/>
      <point x="457" y="-135" type="line"/>
      <point x="587" y="-135" type="line"/>
      <point x="587" y="100" type="line"/>
      <point x="522" y="100" type="line"/>
      <point x="522" y="720" type="line"/>
      <point x="408" y="720" type="line"/>
      <point x="408" y="100" type="line"/>
      <point x="328" y="100" type="line"/>
      <point x="328" y="720" type="line"/>
      <point x="229" y="720" type="line"/>
      <point x="229" y="100" type="line"/>
      <point x="149" y="100" type="line"/>
      <point x="149" y="720" type="line"/>
    </contour>
  </outline>
</glyph>
<glyph name="uni042A" format="2">
  <advance width="600" height="985"/>
  <unicode hex="042A"/>
  <outline>
    <contour>
      <point x="-5" y="600" type="line"/>
      <point x="-5" y="720" type="line"/>
      <point x="260" y="720" type="line"/>
      <point x="260" y="445" type="line"/>
      <point x="315" y="445" type="line" smooth="yes"/>
      <point x="473" y="445"/>
      <point x="575" y="358"/>
      <point x="575" y="223" type="curve" smooth="yes"/>
      <point x="575" y="88"/>
      <point x="473" y="0"/>
      <point x="315" y="0" type="curve" smooth="yes"/>
      <point x="110" y="0" type="line"/>
      <point x="110" y="600" type="line"/>
    </contour>
    <contour>
      <point x="425" y="222" type="curve" smooth="yes"/>
      <point x="425" y="279"/>
      <point x="382" y="315"/>
      <point x="315" y="315" type="curve" smooth="yes"/>
      <point x="260" y="315" type="line"/>
      <point x="260" y="130" type="line"/>
      <point x="315" y="130" type="line" smooth="yes"/>
      <point x="382" y="130"/>
      <point x="425" y="166"/>
    </contour>
  </outline>
</glyph>
<glyph name="uni042B" format="2">
  <advance width="600" height="985"/>
  <unicode hex="042B"/>
  <outline>
    <contour>
      <point x="30" y="720" type="line"/>
      <point x="30" y="0" type="line"/>
      <point x="210" y="0" type="line" smooth="yes"/>
      <point x="324" y="0"/>
      <point x="400" y="76"/>
      <point x="400" y="190" type="curve" smooth="yes"/>
      <point x="400" y="254" type="line" smooth="yes"/>
      <point x="400" y="369"/>
      <point x="324" y="445"/>
      <point x="210" y="445" type="curve" smooth="yes"/>
      <point x="155" y="445" type="line"/>
      <point x="155" y="720" type="line"/>
    </contour>
    <contour>
      <point x="155" y="330" type="line"/>
      <point x="205" y="330" type="line" smooth="yes"/>
      <point x="249" y="330"/>
      <point x="275" y="302"/>
      <point x="275" y="252" type="curve" smooth="yes"/>
      <point x="275" y="191" type="line" smooth="yes"/>
      <point x="275" y="142"/>
      <point x="249" y="115"/>
      <point x="205" y="115" type="curve" smooth="yes"/>
      <point x="155" y="115" type="line"/>
    </contour>
    <contour>
      <point x="445" y="720" type="line"/>
      <point x="445" y="0" type="line"/>
      <point x="570" y="0" type="line"/>
      <point x="570" y="720" type="line"/>
    </contour>
  </outline>
</glyph>
<glyph name="uni042E" format="2">
  <advance width="600" height="985"/>
  <unicode hex="042E"/>
  <outline>
    <contour>
      <point x="20" y="0" type="line"/>
      <point x="150" y="0" type="line"/>
      <point x="150" y="322" type="line"/>
      <point x="225" y="322" type="line"/>
      <point x="225" y="170" type="line" smooth="yes"/>
      <point x="225" y="61"/>
      <point x="293" y="-10"/>
      <point x="395" y="-10" type="curve" smooth="yes"/>
      <point x="506" y="-10"/>
      <point x="580" y="62"/>
      <point x="580" y="170" type="curve" smooth="yes"/>
      <point x="580" y="551" type="line" smooth="yes"/>
      <point x="580" y="659"/>
      <point x="506" y="730"/>
      <point x="395" y="730" type="curve" smooth="yes"/>
      <point x="292" y="730"/>
      <point x="225" y="659"/>
      <point x="225" y="551" type="curve" smooth="yes"/>
      <point x="225" y="427" type="line"/>
      <point x="150" y="427" type="line"/>
      <point x="150" y="720" type="line"/>
      <point x="20" y="720" type="line"/>
    </contour>
    <contour>
      <point x="395" y="620" type="curve" smooth="yes"/>
      <point x="428" y="620"/>
      <point x="450" y="596"/>
      <point x="450" y="561" type="curve" smooth="yes"/>
      <point x="450" y="160" type="line" smooth="yes"/>
      <point x="450" y="124"/>
      <point x="428" y="100"/>
      <point x="395" y="100" type="curve" smooth="yes"/>
      <point x="362" y="100"/>
      <point x="340" y="124"/>
      <point x="340" y="160" type="curve" smooth="yes"/>
      <point x="340" y="561" type="line" smooth="yes"/>
      <point x="340" y="596"/>
      <point x="362" y="620"/>
    </contour>
  </outline>
</glyph>
<glyph name="uni042F" format="2">
  <advance width="600" height="985"/>
  <unicode hex="042F"/>
  <outline>
    <contour>
      <point x="295" y="720" type="curve" smooth="yes"/>
      <point x="535" y="720" type="line"/>
      <point x="535" y="0" type="line"/>
      <point x="386" y="0" type="line"/>
      <point x="386" y="280" type="line"/>
      <point x="306" y="280" type="line"/>
      <point x="188" y="0" type="line"/>
      <point x="30" y="0" type="line"/>
      <point x="164" y="305" type="line"/>
      <point x="86" y="340"/>
      <point x="40" y="409"/>
      <point x="40" y="500" type="curve" smooth="yes"/>
      <point x="40" y="635"/>
      <point x="139" y="720"/>
    </contour>
    <contour>
      <point x="190" y="493" type="curve" smooth="yes"/>
      <point x="190" y="434"/>
      <point x="231" y="395"/>
      <point x="295" y="395" type="curve" smooth="yes"/>
      <point x="386" y="395" type="line"/>
      <point x="386" y="595" type="line"/>
      <point x="295" y="595" type="line" smooth="yes"/>
      <point x="232" y="595"/>
      <point x="190" y="555"/>
    </contour>
  </outline>
</glyph>
<glyph name="uni0431" format="2">
  <advance width="600" height="985"/>
  <unicode hex="0431"/>
  <outline>
    <contour>
      <point x="198" y="210" type="curve" smooth="yes"/>
      <point x="198" y="269" type="line" smooth="yes"/>
      <point x="198" y="324"/>
      <point x="238" y="359"/>
      <point x="300" y="359" type="curve" smooth="yes"/>
      <point x="362" y="359"/>
      <point x="402" y="324"/>
      <point x="402" y="269" type="curve" smooth="yes"/>
      <point x="402" y="210" type="line" smooth="yes"/>
      <point x="402" y="155"/>
      <point x="362" y="120"/>
      <point x="300" y="120" type="curve" smooth="yes"/>
      <point x="238" y="120"/>
      <point x="198" y="155"/>
    </contour>
    <contour>
      <point x="48" y="439" type="curve" smooth="yes"/>
      <point x="48" y="210" type="line" smooth="yes"/>
      <point x="48" y="78"/>
      <point x="149" y="-10"/>
      <point x="300" y="-10" type="curve" smooth="yes"/>
      <point x="451" y="-10"/>
      <point x="552" y="78"/>
      <point x="552" y="210" type="curve" smooth="yes"/>
      <point x="552" y="269" type="line" smooth="yes"/>
      <point x="552" y="401"/>
      <point x="478" y="484"/>
      <point x="360" y="484" type="curve" smooth="yes"/>
      <point x="230" y="484"/>
      <point x="208" y="384"/>
      <point x="208" y="384" type="curve"/>
      <point x="198" y="384" type="line"/>
      <point x="198" y="439" type="line" smooth="yes"/>
      <point x="198" y="523"/>
      <point x="255" y="575"/>
      <point x="345" y="575" type="curve" smooth="yes"/>
      <point x="510" y="575" type="line"/>
      <point x="510" y="720" type="line"/>
      <point x="345" y="720" type="line" smooth="yes"/>
      <point x="159" y="720"/>
      <point x="48" y="615"/>
    </contour>
  </outline>
</glyph>
<glyph name="uni0433" format="2">
  <advance width="600" height="985"/>
  <unicode hex="0433"/>
  <outline>
    <contour>
      <point x="535" y="550" type="line"/>
      <point x="535" y="410" type="line"/>
      <point x="255" y="410" type="line"/>
      <point x="255" y="0" type="line"/>
      <point x="105" y="0" type="line"/>
      <point x="105" y="550" type="line"/>
    </contour>
  </outline>
</glyph>
<glyph name="uni0438" format="2">
  <advance width="600" height="985"/>
  <unicode hex="0438"/>
  <outline>
    <contour>
      <point x="58" y="550" type="line"/>
      <point x="193" y="550" type="line"/>
      <point x="193" y="269" type="line" smooth="yes"/>
      <point x="193" y="199"/>
      <point x="175" y="120"/>
      <point x="176" y="120" type="curve"/>
      <point x="190" y="120" type="line"/>
      <point x="190" y="120"/>
      <point x="200" y="184"/>
      <point x="218" y="226" type="curve" smooth="yes"/>
      <point x="360" y="550" type="line"/>
      <point x="542" y="550" type="line"/>
      <point x="542" y="0" type="line"/>
      <point x="407" y="0" type="line"/>
      <point x="407" y="282" type="line" smooth="yes"/>
      <point x="407" y="357"/>
      <point x="422" y="430"/>
      <point x="422" y="430" type="curve"/>
      <point x="408" y="430" type="line"/>
      <point x="408" y="430"/>
      <point x="400" y="374"/>
      <point x="379" y="324" type="curve" smooth="yes"/>
      <point x="240" y="0" type="line"/>
      <point x="58" y="0" type="line"/>
    </contour>
  </outline>
</glyph>
<glyph name="uni043B" format="2">
  <advance width="600" height="985"/>
  <unicode hex="043B"/>
  <outline>
    <contour>
      <point x="106" y="210" type="line" smooth="yes"/>
      <point x="105" y="162"/>
      <point x="80" y="130"/>
      <point x="45" y="130" type="curve" smooth="yes"/>
      <point x="15" y="130" type="line"/>
      <point x="15" y="-5" type="line"/>
      <point x="55" y="-5" type="line" smooth="yes"/>
      <point x="173" y="-5"/>
      <point x="253" y="77"/>
      <point x="255" y="200" type="curve" smooth="yes"/>
      <point x="259" y="410" type="line"/>
      <point x="390" y="410" type="line"/>
      <point x="390" y="0" type="line"/>
      <point x="540" y="0" type="line"/>
      <point x="540" y="550" type="line"/>
      <point x="112" y="550" type="line"/>
    </contour>
  </outline>
</glyph>
<glyph name="uni043C" format="2">
  <advance width="600" height="985"/>
  <unicode hex="043C"/>
  <outline>
    <contour>
      <point x="40" y="550" type="line"/>
      <point x="219" y="550" type="line"/>
      <point x="281" y="347" type="line" smooth="yes"/>
      <point x="293" y="307"/>
      <point x="298" y="235"/>
      <point x="298" y="235" type="curve"/>
      <point x="308" y="235" type="line"/>
      <point x="308" y="235"/>
      <point x="314" y="307"/>
      <point x="325" y="347" type="curve" smooth="yes"/>
      <point x="379" y="550" type="line"/>
      <point x="560" y="550" type="line"/>
      <point x="560" y="0" type="line"/>
      <point x="424" y="0" type="line"/>
      <point x="424" y="270" type="line" smooth="yes"/>
      <point x="424" y="343"/>
      <point x="446" y="450"/>
      <point x="446" y="450" type="curve"/>
      <point x="431" y="450" type="line"/>
      <point x="431" y="450"/>
      <point x="401" y="342"/>
      <point x="392" y="302" type="curve" smooth="yes"/>
      <point x="360" y="165" type="line"/>
      <point x="242" y="165" type="line"/>
      <point x="205" y="302" type="line" smooth="yes"/>
      <point x="194" y="341"/>
      <point x="169" y="450"/>
      <point x="169" y="450" type="curve"/>
      <point x="153" y="450" type="line"/>
      <point x="153" y="450"/>
      <point x="176" y="343"/>
      <point x="176" y="270" type="curve" smooth="yes"/>
      <point x="176" y="0" type="line"/>
      <point x="40" y="0" type="line"/>
    </contour>
  </outline>
</glyph>
<glyph name="uni043D" format="2">
  <advance width="600" height="985"/>
  <unicode hex="043D"/>
  <outline>
    <contour>
      <point x="385" y="550" type="line"/>
      <point x="385" y="346" type="line"/>
      <point x="215" y="346" type="line"/>
      <point x="215" y="550" type="line"/>
      <point x="65" y="550" type="line"/>
      <point x="65" y="0" type="line"/>
      <point x="215" y="0" type="line"/>
      <point x="215" y="206" type="line"/>
      <point x="385" y="206" type="line"/>
      <point x="385" y="0" type="line"/>
      <point x="535" y="0" type="line"/>
      <point x="535" y="550" type="line"/>
    </contour>
  </outline>
</glyph>
<glyph name="uni0442" format="2">
  <advance width="600" height="985"/>
  <unicode hex="0442"/>
  <outline>
    <contour>
      <point x="35" y="550" type="line"/>
      <point x="565" y="550" type="line"/>
      <point x="565" y="410" type="line"/>
      <point x="375" y="410" type="line"/>
      <point x="375" y="0" type="line"/>
      <point x="225" y="0" type="line"/>
      <point x="225" y="410" type="line"/>
      <point x="35" y="410" type="line"/>
    </contour>
  </outline>
</glyph>
<glyph name="uni0446" format="2">
  <advance width="600" height="985"/>
  <unicode hex="0446"/>
  <outline>
    <contour>
      <point x="65" y="0" type="line"/>
      <point x="440" y="0" type="line"/>
      <point x="440" y="-140" type="line"/>
      <point x="580" y="-140" type="line"/>
      <point x="580" y="140" type="line"/>
      <point x="505" y="140" type="line"/>
      <point x="505" y="550" type="line"/>
      <point x="355" y="550" type="line"/>
      <point x="355" y="140" type="line"/>
      <point x="215" y="140" type="line"/>
      <point x="215" y="550" type="line"/>
      <point x="65" y="550" type="line"/>
    </contour>
  </outline>
</glyph>
<glyph name="uni0449" format="2">
  <advance width="600" height="985"/>
  <unicode hex="0449"/>
  <outline>
    <contour>
      <point x="35" y="550" type="line"/>
      <point x="35" y="0" type="line"/>
      <point x="457" y="0" type="line"/>
      <point x="457" y="-140" type="line"/>
      <point x="587" y="-140" type="line"/>
      <point x="587" y="100" type="line"/>
      <point x="522" y="100" type="line"/>
      <point x="522" y="550" type="line"/>
      <point x="408" y="550" type="line"/>
      <point x="408" y="100" type="line"/>
      <point x="328" y="100" type="line"/>
      <point x="328" y="550" type="line"/>
      <point x="229" y="550" type="line"/>
      <point x="229" y="100" type="line"/>
      <point x="149" y="100" type="line"/>
      <point x="149" y="550" type="line"/>
    </contour>
  </outline>
</glyph>
<glyph name="uni044B" format="2">
  <advance width="600" height="985"/>
  <unicode hex="044B"/>
  <outline>
    <contour>
      <point x="165" y="270" type="line"/>
      <point x="185" y="270" type="line" smooth="yes"/>
      <point x="240" y="270"/>
      <point x="265" y="239"/>
      <point x="265" y="190" type="curve" smooth="yes"/>
      <point x="265" y="143"/>
      <point x="235" y="115"/>
      <point x="185" y="115" type="curve" smooth="yes"/>
      <point x="165" y="115" type="line"/>
    </contour>
    <contour>
      <point x="40" y="550" type="line"/>
      <point x="40" y="0" type="line"/>
      <point x="190" y="0" type="line" smooth="yes"/>
      <point x="307" y="0"/>
      <point x="390" y="78"/>
      <point x="390" y="189" type="curve" smooth="yes"/>
      <point x="390" y="312"/>
      <point x="317" y="385"/>
      <point x="190" y="385" type="curve" smooth="yes"/>
      <point x="165" y="385" type="line"/>
      <point x="165" y="550" type="line"/>
    </contour>
    <contour>
      <point x="435" y="550" type="line"/>
      <point x="435" y="0" type="line"/>
      <point x="560" y="0" type="line"/>
      <point x="560" y="550" type="line"/>
    </contour>
  </outline>
</glyph>
<glyph name="uni0452" format="2">
  <advance width="600" height="985"/>
  <unicode hex="0452"/>
  <outline>
    <contour>
      <point x="61" y="730" type="line"/>
      <point x="61" y="635" type="line"/>
      <point x="0" y="635" type="line"/>
      <point x="0" y="550" type="line"/>
      <point x="61" y="550" type="line"/>
      <point x="61" y="0" type="line"/>
      <point x="211" y="0" type="line"/>
      <point x="211" y="295" type="line" smooth="yes"/>
      <point x="211" y="350"/>
      <point x="245" y="385"/>
      <point x="298" y="385" type="curve" smooth="yes"/>
      <point x="351" y="385"/>
      <point x="385" y="350"/>
      <point x="385" y="295" type="curve" smooth="yes"/>
      <point x="385" y="51" type="line" smooth="yes"/>
      <point x="385" y="3"/>
      <point x="356" y="-25"/>
      <point x="305" y="-25" type="curve" smooth="yes"/>
      <point x="245" y="-25" type="line"/>
      <point x="245" y="-170" type="line"/>
      <point x="295" y="-170" type="line" smooth="yes"/>
      <point x="436" y="-170"/>
      <point x="535" y="-86"/>
      <point x="535" y="35" type="curve" smooth="yes"/>
      <point x="535" y="310" type="line" smooth="yes"/>
      <point x="535" y="436"/>
      <point x="465" y="515"/>
      <point x="354" y="515" type="curve" smooth="yes"/>
      <point x="274" y="515"/>
      <point x="222" y="476"/>
      <point x="213" y="410" type="curve"/>
      <point x="202" y="410" type="line"/>
      <point x="201" y="410"/>
      <point x="211" y="464"/>
      <point x="211" y="505" type="curve" smooth="yes"/>
      <point x="211" y="550" type="line"/>
      <point x="310" y="550" type="line"/>
      <point x="310" y="635" type="line"/>
      <point x="211" y="635" type="line"/>
      <point x="211" y="730" type="line"/>
    </contour>
  </outline>
</glyph>
<glyph name="uni045A" format="2">
  <advance width="600" height="985"/>
  <unicode hex="045A"/>
  <outline>
    <contour>
      <point x="395" y="264" type="line"/>
      <point x="430" y="264" type="line" smooth="yes"/>
      <point x="457" y="264"/>
      <point x="475" y="245"/>
      <point x="475" y="217" type="curve" smooth="yes"/>
      <point x="475" y="151" type="line" smooth="yes"/>
      <point x="475" y="126"/>
      <point x="457" y="110"/>
      <point x="430" y="110" type="curve" smooth="yes"/>
      <point x="395" y="110" type="line"/>
    </contour>
    <contour>
      <point x="431" y="0" type="line" smooth="yes"/>
      <point x="529" y="0"/>
      <point x="595" y="60"/>
      <point x="595" y="150" type="curve" smooth="yes"/>
      <point x="595" y="216" type="line" smooth="yes"/>
      <point x="595" y="313"/>
      <point x="530" y="375"/>
      <point x="430" y="375" type="curve" smooth="yes"/>
      <point x="395" y="375" type="line"/>
      <point x="395" y="550" type="line"/>
      <point x="275" y="550" type="line"/>
      <point x="275" y="375" type="line"/>
      <point x="160" y="375" type="line"/>
      <point x="160" y="550" type="line"/>
      <point x="40" y="550" type="line"/>
      <point x="40" y="0" type="line"/>
      <point x="160" y="0" type="line"/>
      <point x="160" y="265" type="line"/>
      <point x="275" y="265" type="line"/>
      <point x="275" y="0" type="line"/>
    </contour>
  </outline>
</glyph>
<glyph name="uni04AE" format="2">
  <advance width="600"/>
  <unicode hex="04AE"/>
  <outline>
    <contour>
      <point x="429" y="720" type="line"/>
      <point x="585" y="720" type="line"/>
      <point x="375" y="250" type="line"/>
      <point x="375" y="0" type="line"/>
      <point x="225" y="0" type="line"/>
      <point x="225" y="250" type="line"/>
      <point x="15" y="720" type="line"/>
      <point x="172" y="720" type="line"/>
      <point x="279" y="465" type="line" smooth="yes"/>
      <point x="298" y="419"/>
      <point x="299" y="375"/>
      <point x="299" y="375" type="curve"/>
      <point x="306" y="375" type="line"/>
      <point x="306" y="375"/>
      <point x="307" y="419"/>
      <point x="326" y="465" type="curve" smooth="yes"/>
    </contour>
  </outline>
</glyph>
<glyph name="uni04AF" format="2">
  <advance width="600"/>
  <unicode hex="04AF"/>
  <outline>
    <contour>
      <point x="429" y="550" type="line"/>
      <point x="585" y="550" type="line"/>
      <point x="375" y="80" type="line"/>
      <point x="375" y="-170" type="line"/>
      <point x="225" y="-170" type="line"/>
      <point x="225" y="80" type="line"/>
      <point x="15" y="550" type="line"/>
      <point x="172" y="550" type="line"/>
      <point x="279" y="295" type="line" smooth="yes"/>
      <point x="298" y="249"/>
      <point x="299" y="205"/>
      <point x="299" y="205" type="curve"/>
      <point x="306" y="205" type="line"/>
      <point x="306" y="205"/>
      <point x="307" y="249"/>
      <point x="326" y="295" type="curve" smooth="yes"/>
    </contour>
  </outline>
</glyph>
<glyph name="uni04E8" format="2">
  <advance width="600"/>
  <unicode hex="04E8"/>
  <outline>
    <contour>
      <point x="300" y="-10" type="curve" smooth="yes"/>
      <point x="450" y="-10"/>
      <point x="552" y="81"/>
      <point x="552" y="215" type="curve" smooth="yes"/>
      <point x="552" y="506" type="line" smooth="yes"/>
      <point x="552" y="641"/>
      <point x="452" y="730"/>
      <point x="300" y="730" type="curve" smooth="yes"/>
      <point x="148" y="730"/>
      <point x="48" y="641"/>
      <point x="48" y="506" type="curve" smooth="yes"/>
      <point x="48" y="215" type="line" smooth="yes"/>
      <point x="48" y="79"/>
      <point x="148" y="-10"/>
    </contour>
    <contour>
      <point x="412" y="300" type="line"/>
      <point x="412" y="220" type="line" smooth="yes"/>
      <point x="412" y="161"/>
      <point x="367" y="121"/>
      <point x="300" y="121" type="curve" smooth="yes"/>
      <point x="233" y="121"/>
      <point x="188" y="161"/>
      <point x="188" y="220" type="curve" smooth="yes"/>
      <point x="188" y="300" type="line"/>
    </contour>
    <contour>
      <point x="188" y="425" type="line"/>
      <point x="188" y="500" type="line" smooth="yes"/>
      <point x="188" y="560"/>
      <point x="233" y="600"/>
      <point x="300" y="600" type="curve" smooth="yes"/>
      <point x="367" y="600"/>
      <point x="412" y="560"/>
      <point x="412" y="500" type="curve" smooth="yes"/>
      <point x="412" y="425" type="line"/>
    </contour>
  </outline>
</glyph>
<glyph name="uni04E9" format="2">
  <advance width="600"/>
  <unicode hex="04E9"/>
  <outline>
    <contour>
      <point x="300" y="-10" type="curve" smooth="yes"/>
      <point x="449" y="-10"/>
      <point x="552" y="80"/>
      <point x="552" y="210" type="curve" smooth="yes"/>
      <point x="552" y="341" type="line" smooth="yes"/>
      <point x="552" y="471"/>
      <point x="450" y="560"/>
      <point x="300" y="560" type="curve" smooth="yes"/>
      <point x="150" y="560"/>
      <point x="48" y="471"/>
      <point x="48" y="341" type="curve" smooth="yes"/>
      <point x="48" y="210" type="line" smooth="yes"/>
      <point x="48" y="80"/>
      <point x="151" y="-10"/>
    </contour>
    <contour>
      <point x="417" y="230" type="line"/>
      <point x="417" y="210" type="line" smooth="yes"/>
      <point x="417" y="153"/>
      <point x="370" y="115"/>
      <point x="300" y="115" type="curve" smooth="yes"/>
      <point x="230" y="115"/>
      <point x="183" y="153"/>
      <point x="183" y="210" type="curve" smooth="yes"/>
      <point x="183" y="230" type="line"/>
    </contour>
    <contour>
      <point x="183" y="325" type="line"/>
      <point x="183" y="341" type="line" smooth="yes"/>
      <point x="183" y="397"/>
      <point x="230" y="435"/>
      <point x="300" y="435" type="curve" smooth="yes"/>
      <point x="370" y="435"/>
      <point x="417" y="397"/>
      <point x="417" y="341" type="curve" smooth="yes"/>
      <point x="417" y="325" type="line"/>
    </contour>
  </outline>
</glyph>
<glyph name="quoteright" format="2">
  <advance width="600" height="985"/>
  <unicode hex="2019"/>
  <outline>
    <contour>
      <point x="400" y="776" type="line"/>
      <point x="270" y="465" type="line"/>
      <point x="140" y="465" type="line"/>
      <point x="220" y="776" type="line"/>
    </contour>
  </outline>
</glyph>
<glyph name="quotedblbase" format="2">
  <advance width="600" height="985"/>
  <unicode hex="201E"/>
  <outline>
    <contour>
      <point x="300" y="151" type="line"/>
      <point x="170" y="-160" type="line"/>
      <point x="40" y="-160" type="line"/>
      <point x="120" y="151" type="line"/>
    </contour>
    <contour>
      <point x="575" y="150" type="line"/>
      <point x="445" y="-161" type="line"/>
      <point x="315" y="-161" type="line"/>
      <point x="395" y="150" type="line"/>
    </contour>
  </outline>
</glyph>
<glyph name="ellipsis" format="2">
  <advance width="600" height="985"/>
  <unicode hex="2026"/>
  <outline>
    <contour>
      <point x="45" y="115" type="line" smooth="yes"/>
      <point x="45" y="154"/>
      <point x="71" y="180"/>
      <point x="109" y="180" type="curve" smooth="yes"/>
      <point x="149" y="180"/>
      <point x="175" y="154"/>
      <point x="175" y="115" type="curve" smooth="yes"/>
      <point x="175" y="55" type="line" smooth="yes"/>
      <point x="175" y="16"/>
      <point x="149" y="-10"/>
      <point x="109" y="-10" type="curve" smooth="yes"/>
      <point x="71" y="-10"/>
      <point x="45" y="16"/>
      <point x="45" y="55" type="curve" smooth="yes"/>
    </contour>
    <contour>
      <point x="235" y="115" type="line" smooth="yes"/>
      <point x="235" y="154"/>
      <point x="261" y="180"/>
      <point x="299" y="180" type="curve" smooth="yes"/>
      <point x="339" y="180"/>
      <point x="365" y="154"/>
      <point x="365" y="115" type="curve" smooth="yes"/>
      <point x="365" y="55" type="line" smooth="yes"/>
      <point x="365" y="16"/>
      <point x="339" y="-10"/>
      <point x="299" y="-10" type="curve" smooth="yes"/>
      <point x="261" y="-10"/>
      <point x="235" y="16"/>
      <point x="235" y="55" type="curve" smooth="yes"/>
    </contour>
    <contour>
      <point x="425" y="115" type="line" smooth="yes"/>
      <point x="425" y="154"/>
      <point x="451" y="180"/>
      <point x="489" y="180" type="curve" smooth="yes"/>
      <point x="529" y="180"/>
      <point x="555" y="154"/>
      <point x="555" y="115" type="curve" smooth="yes"/>
      <point x="555" y="55" type="line" smooth="yes"/>
      <point x="555" y="16"/>
      <point x="529" y="-10"/>
      <point x="489" y="-10" type="curve" smooth="yes"/>
      <point x="451" y="-10"/>
      <point x="425" y="16"/>
      <point x="425" y="55" type="curve" smooth="yes"/>
    </contour>
  </outline>
</glyph>
<glyph name="guilsinglright" format="2">
  <advance width="600" height="985"/>
  <unicode hex="203A"/>
  <outline>
    <contour>
      <point x="460" y="280" type="line"/>
      <point x="295" y="40" type="line"/>
      <point x="140" y="40" type="line"/>
      <point x="281" y="244" type="line" smooth="yes"/>
      <point x="299" y="270"/>
      <point x="317" y="279"/>
      <point x="317" y="279" type="curve"/>
      <point x="317" y="281" type="line"/>
      <point x="317" y="281"/>
      <point x="300" y="289"/>
      <point x="281" y="316" type="curve" smooth="yes"/>
      <point x="140" y="520" type="line"/>
      <point x="295" y="520" type="line"/>
    </contour>
  </outline>
</glyph>
<glyph name="fraction" format="2">
  <advance width="600" height="985"/>
  <unicode hex="2044"/>
  <outline>
    <contour>
      <point x="450" y="720" type="line"/>
      <point x="531" y="720" type="line"/>
      <point x="150" y="0" type="line"/>
      <point x="69" y="0" type="line"/>
    </contour>
  </outline>
</glyph>
<glyph name="uni2074" format="2">
  <advance width="600" height="985"/>
  <unicode hex="2074"/>
  <outline>
    <contour>
      <point x="255" y="586" type="line"/>
      <point x="255" y="570" type="line"/>
      <point x="331" y="570" type="line"/>
      <point x="331" y="645" type="line"/>
      <point x="421" y="645" type="line"/>
      <point x="421" y="440" type="line"/>
      <point x="331" y="440" type="line"/>
      <point x="331" y="500" type="line"/>
      <point x="165" y="500" type="line"/>
      <point x="165" y="600" type="line"/>
      <point x="291" y="765" type="line"/>
      <point x="390" y="765" type="line"/>
    </contour>
  </outline>
</glyph>
<glyph name="Euro" format="2">
  <advance width="600" height="985"/>
  <unicode hex="20AC"/>
  <outline>
    <component base="C" xOffset="10"/>
    <contour>
      <point x="15" y="495" type="line"/>
      <point x="360" y="495" type="line"/>
      <point x="360" y="400" type="line"/>
      <point x="15" y="400" type="line"/>
    </contour>
    <contour>
      <point x="15" y="320" type="line"/>
      <point x="360" y="320" type="line"/>
      <point x="360" y="225" type="line"/>
      <point x="15" y="225" type="line"/>
    </contour>
  </outline>
</glyph>
<glyph name="uni20AE" format="2">
  <advance width="600"/>
  <unicode hex="20AE"/>
  <outline>
    <contour>
      <point x="35" y="580" type="line"/>
      <point x="35" y="720" type="line"/>
      <point x="565" y="720" type="line"/>
      <point x="565" y="580" type="line"/>
      <point x="370" y="580" type="line"/>
      <point x="370" y="463" type="line"/>
      <point x="530" y="505" type="line"/>
      <point x="530" y="420" type="line"/>
      <point x="370" y="378" type="line"/>
      <point x="370" y="288" type="line"/>
      <point x="530" y="330" type="line"/>
      <point x="530" y="245" type="line"/>
      <point x="370" y="203" type="line"/>
      <point x="370" y="0" type="line"/>
      <point x="230" y="0" type="line"/>
      <point x="230" y="167" type="line"/>
      <point x="70" y="125" type="line"/>
      <point x="70" y="210" type="line"/>
      <point x="230" y="252" type="line"/>
      <point x="230" y="342" type="line"/>
      <point x="70" y="300" type="line"/>
      <point x="70" y="385" type="line"/>
      <point x="230" y="427" type="line"/>
      <point x="230" y="580" type="line"/>
    </contour>
  </outline>
</glyph>
<glyph name="uni2115" format="2">
  <advance width="600"/>
  <unicode hex="2115"/>
  <outline>
    <contour>
      <point x="515" y="720" type="line" name="at01"/>
      <point x="515" y="0" type="line" name="ab01"/>
      <point x="385" y="0" type="line"/>
      <point x="135" y="540" type="line" name="sh03"/>
      <point x="135" y="0" type="line" name="ab02"/>
      <point x="85" y="0" type="line" name="sh01"/>
      <point x="85" y="720" type="line" name="at02"/>
      <point x="215" y="720" type="line"/>
      <point x="465" y="180" type="line" name="mh03"/>
      <point x="465" y="720" type="line"/>
    </contour>
    <contour>
      <point x="185" y="680" type="line"/>
      <point x="120" y="680" type="line"/>
      <point x="415" y="40" type="line"/>
      <point x="480" y="40" type="line"/>
    </contour>
  </outline>
</glyph>
<glyph name="uni2116" format="2">
  <advance width="600" height="985"/>
  <unicode hex="2116"/>
  <outline>
    <contour>
      <point x="363" y="720" type="line"/>
      <point x="363" y="0" type="line"/>
      <point x="223" y="0" type="line"/>
      <point x="138" y="384" type="line" smooth="yes"/>
      <point x="121" y="462"/>
      <point x="103" y="610"/>
      <point x="103" y="610" type="curve"/>
      <point x="89" y="610" type="line"/>
      <point x="89" y="610"/>
      <point x="135" y="290"/>
      <point x="135" y="170" type="curve" smooth="yes"/>
      <point x="135" y="0" type="line"/>
      <point x="15" y="0" type="line"/>
      <point x="15" y="720" type="line"/>
      <point x="155" y="720" type="line"/>
      <point x="240" y="337" type="line" smooth="yes"/>
      <point x="255" y="270"/>
      <point x="277" y="110"/>
      <point x="277" y="110" type="curve"/>
      <point x="291" y="110" type="line"/>
      <point x="292" y="110"/>
      <point x="243" y="430"/>
      <point x="243" y="550" type="curve" smooth="yes"/>
      <point x="243" y="720" type="line"/>
    </contour>
    <contour>
      <point x="490" y="660" type="curve" smooth="yes"/>
      <point x="478" y="660"/>
      <point x="470" y="652"/>
      <point x="470" y="639" type="curve" smooth="yes"/>
      <point x="470" y="391" type="line" smooth="yes"/>
      <point x="470" y="378"/>
      <point x="478" y="370"/>
      <point x="490" y="370" type="curve" smooth="yes"/>
      <point x="502" y="370"/>
      <point x="510" y="378"/>
      <point x="510" y="391" type="curve" smooth="yes"/>
      <point x="510" y="639" type="line" smooth="yes"/>
      <point x="510" y="652"/>
      <point x="502" y="660"/>
    </contour>
    <contour>
      <point x="490" y="300" type="curve" smooth="yes"/>
      <point x="433" y="300"/>
      <point x="395" y="338"/>
      <point x="395" y="395" type="curve" smooth="yes"/>
      <point x="395" y="635" type="line" smooth="yes"/>
      <point x="395" y="692"/>
      <point x="433" y="730"/>
      <point x="490" y="730" type="curve" smooth="yes"/>
      <point x="547" y="730"/>
      <point x="585" y="692"/>
      <point x="585" y="635" type="curve" smooth="yes"/>
      <point x="585" y="395" type="line" smooth="yes"/>
      <point x="585" y="338"/>
      <point x="547" y="300"/>
    </contour>
  </outline>
</glyph>
<glyph name="arrowboth" format="2">
  <advance width="600"/>
  <unicode hex="2194"/>
  <outline>
    <contour>
      <point x="-80" y="330" type="line"/>
      <point x="151" y="625" type="line"/>
      <point x="257" y="625" type="line"/>
      <point x="95" y="420" type="line" smooth="yes"/>
      <point x="77" y="397"/>
      <point x="50" y="375"/>
      <point x="50" y="375" type="curve"/>
      <point x="50" y="366" type="line"/>
      <point x="50" y="366"/>
      <point x="90" y="370"/>
      <point x="120" y="370" type="curve" smooth="yes"/>
      <point x="480" y="370" type="line" smooth="yes"/>
      <point x="510" y="370"/>
      <point x="550" y="365"/>
      <point x="550" y="365" type="curve"/>
      <point x="550" y="374" type="line"/>
      <point x="550" y="374"/>
      <point x="528" y="393"/>
      <point x="505" y="421" type="curve" smooth="yes"/>
      <point x="343" y="625" type="line"/>
      <point x="448" y="625" type="line"/>
      <point x="680" y="330" type="line"/>
      <point x="449" y="35" type="line"/>
      <point x="343" y="35" type="line"/>
      <point x="505" y="240" type="line" smooth="yes"/>
      <point x="523" y="263"/>
      <point x="550" y="285"/>
      <point x="550" y="285" type="curve"/>
      <point x="550" y="294" type="line"/>
      <point x="550" y="294"/>
      <point x="510" y="290"/>
      <point x="480" y="290" type="curve" smooth="yes"/>
      <point x="120" y="290" type="line" smooth="yes"/>
      <point x="90" y="290"/>
      <point x="50" y="295"/>
      <point x="50" y="295" type="curve"/>
      <point x="50" y="286" type="line"/>
      <point x="50" y="286"/>
      <point x="72" y="267"/>
      <point x="95" y="239" type="curve" smooth="yes"/>
      <point x="257" y="35" type="line"/>
      <point x="152" y="35" type="line"/>
    </contour>
  </outline>
</glyph>
<glyph name="uni2196" format="2">
  <advance width="600"/>
  <unicode hex="2196"/>
  <outline>
    <contour>
      <point x="45" y="620" type="line"/>
      <point x="45" y="205" type="line"/>
      <point x="125" y="205" type="line"/>
      <point x="125" y="404" type="line" smooth="yes"/>
      <point x="125" y="449"/>
      <point x="117" y="489"/>
      <point x="117" y="489" type="curve"/>
      <point x="124" y="491" type="line"/>
      <point x="124" y="491"/>
      <point x="148" y="459"/>
      <point x="174" y="433" type="curve" smooth="yes"/>
      <point x="529" y="75" type="line"/>
      <point x="590" y="138" type="line"/>
      <point x="237" y="494" type="line" smooth="yes"/>
      <point x="213" y="518"/>
      <point x="184" y="540"/>
      <point x="184" y="540" type="curve"/>
      <point x="185" y="547" type="line"/>
      <point x="185" y="547"/>
      <point x="220" y="542"/>
      <point x="265" y="542" type="curve" smooth="yes"/>
      <point x="460" y="542" type="line"/>
      <point x="460" y="620" type="line"/>
    </contour>
  </outline>
</glyph>
<glyph name="universal" format="2">
  <advance width="600"/>
  <unicode hex="2200"/>
  <outline>
    <contour>
      <point x="398" y="0" type="line" name="at01"/>
      <point x="198" y="0" type="line"/>
      <point x="10" y="720" type="line" name="ab01"/>
      <point x="162" y="720" type="line"/>
      <point x="200" y="555" type="line" name="dv01"/>
      <point x="401" y="555" type="line"/>
      <point x="439" y="720" type="line" name="ab02"/>
      <point x="590" y="720" type="line"/>
    </contour>
    <contour>
      <point x="374" y="438" type="line"/>
      <point x="228" y="438" type="line" name="dv02"/>
      <point x="283" y="201" type="line" smooth="yes"/>
      <point x="292" y="161"/>
      <point x="298" y="100"/>
      <point x="298" y="100" type="curve"/>
      <point x="304" y="100" type="line"/>
      <point x="304" y="100"/>
      <point x="311" y="161"/>
      <point x="320" y="201" type="curve" smooth="yes"/>
    </contour>
  </outline>
</glyph>
<glyph name="partialdiff" format="2">
  <advance width="600" height="985"/>
  <unicode hex="2202"/>
  <outline>
    <contour>
      <point x="402" y="215" type="line" smooth="yes"/>
      <point x="402" y="156"/>
      <point x="364" y="120"/>
      <point x="300" y="120" type="curve" smooth="yes"/>
      <point x="236" y="120"/>
      <point x="198" y="156"/>
      <point x="198" y="215" type="curve" smooth="yes"/>
      <point x="198" y="275" type="line" smooth="yes"/>
      <point x="198" y="332"/>
      <point x="237" y="366"/>
      <point x="300" y="366" type="curve" smooth="yes"/>
      <point x="363" y="366"/>
      <point x="402" y="332"/>
      <point x="402" y="275" type="curve" smooth="yes"/>
    </contour>
    <contour>
      <point x="552" y="385" type="line" smooth="yes"/>
      <point x="552" y="485"/>
      <point x="509" y="578"/>
      <point x="424" y="654" type="curve" smooth="yes"/>
      <point x="351" y="720" type="line"/>
      <point x="149" y="720" type="line"/>
      <point x="299" y="585" type="line" smooth="yes"/>
      <point x="403" y="492"/>
      <point x="402" y="395"/>
      <point x="402" y="395" type="curve"/>
      <point x="392" y="395" type="line"/>
      <point x="392" y="395"/>
      <point x="375" y="495"/>
      <point x="250" y="495" type="curve" smooth="yes"/>
      <point x="126" y="495"/>
      <point x="48" y="410"/>
      <point x="48" y="275" type="curve" smooth="yes"/>
      <point x="48" y="215" type="line" smooth="yes"/>
      <point x="48" y="86"/>
      <point x="149" y="-10"/>
      <point x="300" y="-10" type="curve" smooth="yes"/>
      <point x="451" y="-10"/>
      <point x="552" y="81"/>
      <point x="552" y="210" type="curve" smooth="yes"/>
    </contour>
  </outline>
</glyph>
<glyph name="element" format="2">
  <advance width="600"/>
  <unicode hex="2208"/>
  <outline>
    <contour>
      <point x="575" y="530" type="line" name="dh02"/>
      <point x="270" y="530" type="line" smooth="yes"/>
      <point x="208" y="530"/>
      <point x="170" y="492"/>
      <point x="170" y="430" type="curve"/>
      <point x="170" y="420" type="line"/>
      <point x="575" y="420" type="line" name="sv04"/>
      <point x="575" y="299" type="line" name="dv03"/>
      <point x="170" y="299" type="line"/>
      <point x="170" y="290" type="line" name="sv03"/>
      <point x="170" y="228"/>
      <point x="208" y="190"/>
      <point x="270" y="190" type="curve" smooth="yes"/>
      <point x="575" y="190" type="line" name="dh03"/>
      <point x="575" y="60" type="line" name="dh04"/>
      <point x="270" y="60" type="line" smooth="yes"/>
      <point x="118" y="60"/>
      <point x="25" y="146"/>
      <point x="25" y="288" type="curve" smooth="yes" name="sv01"/>
      <point x="25" y="432" type="line" smooth="yes" name="dv01"/>
      <point x="25" y="573"/>
      <point x="119" y="660"/>
      <point x="270" y="660" type="curve" smooth="yes"/>
      <point x="575" y="660" type="line" name="dh01"/>
    </contour>
  </outline>
</glyph>
<glyph name="uni2210" format="2">
  <advance width="600"/>
  <unicode hex="2210"/>
  <outline>
    <contour>
      <point x="65" y="0" type="line"/>
      <point x="535" y="0" type="line"/>
      <point x="535" y="720" type="line"/>
      <point x="385" y="720" type="line"/>
      <point x="385" y="140" type="line"/>
      <point x="215" y="140" type="line"/>
      <point x="215" y="720" type="line"/>
      <point x="65" y="720" type="line"/>
    </contour>
  </outline>
</glyph>
<glyph name="summation" format="2">
  <advance width="600" height="985"/>
  <unicode hex="2211"/>
  <outline>
    <contour>
      <point x="540" y="-170" type="line"/>
      <point x="55" y="-170" type="line"/>
      <point x="55" y="-29" type="line"/>
      <point x="335" y="273" type="line"/>
      <point x="55" y="579" type="line"/>
      <point x="55" y="720" type="line"/>
      <point x="540" y="720" type="line"/>
      <point x="540" y="581" type="line"/>
      <point x="310" y="581" type="line"/>
      <point x="237" y="585" type="line"/>
      <point x="237" y="583" type="line"/>
      <point x="465" y="346" type="line"/>
      <point x="465" y="209" type="line"/>
      <point x="237" y="-33" type="line"/>
      <point x="237" y="-35" type="line"/>
      <point x="310" y="-31" type="line"/>
      <point x="540" y="-31" type="line"/>
    </contour>
  </outline>
</glyph>
<glyph name="infinity" format="2">
  <advance width="600" height="985"/>
  <unicode hex="221E"/>
  <outline>
    <contour>
      <point x="172" y="505" type="curve" smooth="yes"/>
      <point x="81" y="505"/>
      <point x="20" y="446"/>
      <point x="20" y="365" type="curve" smooth="yes"/>
      <point x="20" y="300" type="line" smooth="yes"/>
      <point x="20" y="216"/>
      <point x="74" y="160"/>
      <point x="156" y="160" type="curve" smooth="yes"/>
      <point x="262" y="160"/>
      <point x="274" y="259"/>
      <point x="274" y="259" type="curve"/>
      <point x="279" y="259" type="line"/>
      <point x="304" y="196"/>
      <point x="358" y="160"/>
      <point x="428" y="160" type="curve" smooth="yes"/>
      <point x="519" y="160"/>
      <point x="580" y="219"/>
      <point x="580" y="300" type="curve" smooth="yes"/>
      <point x="580" y="365" type="line" smooth="yes"/>
      <point x="580" y="449"/>
      <point x="526" y="505"/>
      <point x="444" y="505" type="curve" smooth="yes"/>
      <point x="338" y="505"/>
      <point x="326" y="406"/>
      <point x="326" y="406" type="curve"/>
      <point x="321" y="406" type="line"/>
      <point x="296" y="469"/>
      <point x="242" y="505"/>
    </contour>
    <contour>
      <point x="425" y="420" type="curve" smooth="yes"/>
      <point x="458" y="420"/>
      <point x="480" y="398"/>
      <point x="480" y="365" type="curve" smooth="yes"/>
      <point x="480" y="300" type="line" smooth="yes"/>
      <point x="480" y="267"/>
      <point x="458" y="245"/>
      <point x="425" y="245" type="curve" smooth="yes"/>
      <point x="398" y="245"/>
      <point x="374" y="260"/>
      <point x="363" y="290" type="curve" smooth="yes"/>
      <point x="341" y="351" type="line"/>
      <point x="341" y="351"/>
      <point x="357" y="420"/>
    </contour>
    <contour>
      <point x="175" y="420" type="curve" smooth="yes"/>
      <point x="202" y="420"/>
      <point x="225" y="404"/>
      <point x="237" y="375" type="curve" smooth="yes"/>
      <point x="259" y="314" type="line"/>
      <point x="259" y="314"/>
      <point x="243" y="245"/>
      <point x="175" y="245" type="curve" smooth="yes"/>
      <point x="142" y="245"/>
      <point x="120" y="267"/>
      <point x="120" y="300" type="curve" smooth="yes"/>
      <point x="120" y="365" type="line" smooth="yes"/>
      <point x="120" y="398"/>
      <point x="142" y="420"/>
    </contour>
  </outline>
</glyph>
<glyph name="integral" format="2">
  <advance width="600" height="985"/>
  <unicode hex="222B"/>
  <outline>
    <contour>
      <point x="580" y="720" type="line"/>
      <point x="580" y="575" type="line"/>
      <point x="455" y="575" type="line" smooth="yes"/>
      <point x="404" y="575"/>
      <point x="375" y="547"/>
      <point x="375" y="499" type="curve" smooth="yes"/>
      <point x="375" y="35" type="line" smooth="yes"/>
      <point x="375" y="-86"/>
      <point x="276" y="-170"/>
      <point x="135" y="-170" type="curve" smooth="yes"/>
      <point x="20" y="-170" type="line"/>
      <point x="20" y="-25" type="line"/>
      <point x="145" y="-25" type="line" smooth="yes"/>
      <point x="196" y="-25"/>
      <point x="225" y="3"/>
      <point x="225" y="51" type="curve" smooth="yes"/>
      <point x="225" y="515" type="line" smooth="yes"/>
      <point x="225" y="636"/>
      <point x="324" y="720"/>
      <point x="465" y="720" type="curve" smooth="yes"/>
    </contour>
  </outline>
</glyph>
<glyph name="uni23FB" format="2">
  <advance width="600"/>
  <unicode hex="23FB"/>
  <outline>
    <contour>
      <point x="528" y="527" type="curve"/>
      <point x="585" y="471"/>
      <point x="620" y="392"/>
      <point x="620" y="305" type="curve" smooth="yes"/>
      <point x="620" y="129"/>
      <point x="478" y="-10"/>
      <point x="300" y="-10" type="curve" smooth="yes"/>
      <point x="122" y="-10"/>
      <point x="-20" y="129"/>
      <point x="-20" y="305" type="curve" smooth="yes"/>
      <point x="-20" y="392"/>
      <point x="16" y="470"/>
      <point x="72" y="527" type="curve" smooth="yes"/>
      <point x="100" y="556"/>
      <point x="138" y="561"/>
      <point x="160" y="539" type="curve" smooth="yes"/>
      <point x="181" y="518"/>
      <point x="176" y="482"/>
      <point x="149" y="452" type="curve" smooth="yes"/>
      <point x="115" y="415"/>
      <point x="95" y="364"/>
      <point x="95" y="305" type="curve" smooth="yes"/>
      <point x="95" y="183"/>
      <point x="180" y="95"/>
      <point x="300" y="95" type="curve" smooth="yes"/>
      <point x="420" y="95"/>
      <point x="505" y="183"/>
      <point x="505" y="305" type="curve" smooth="yes"/>
      <point x="505" y="364"/>
      <point x="485" y="415"/>
      <point x="451" y="452" type="curve" smooth="yes"/>
      <point x="424" y="482"/>
      <point x="419" y="518"/>
      <point x="440" y="539" type="curve" smooth="yes"/>
      <point x="462" y="561"/>
      <point x="500" y="556"/>
    </contour>
    <contour>
      <point x="245" y="665" type="line" smooth="yes"/>
      <point x="245" y="698"/>
      <point x="270" y="725"/>
      <point x="300" y="725" type="curve" smooth="yes"/>
      <point x="330" y="725"/>
      <point x="355" y="698"/>
      <point x="355" y="665" type="curve" smooth="yes"/>
      <point x="355" y="285" type="line" smooth="yes"/>
      <point x="355" y="252"/>
      <point x="330" y="225"/>
      <point x="300" y="225" type="curve" smooth="yes"/>
      <point x="270" y="225"/>
      <point x="245" y="252"/>
      <point x="245" y="285" type="curve" smooth="yes"/>
    </contour>
  </outline>
</glyph>
<glyph name="uni2506" format="2">
  <advance width="600"/>
  <unicode hex="2506"/>
  <outline>
    <contour>
      <point x="250" y="928" type="line"/>
      <point x="350" y="928" type="line"/>
      <point x="350" y="590" type="line"/>
      <point x="250" y="590" type="line"/>
    </contour>
    <contour>
      <point x="250" y="108" type="line"/>
      <point x="350" y="108" type="line"/>
      <point x="350" y="-229" type="line"/>
      <point x="250" y="-229" type="line"/>
    </contour>
    <contour>
      <point x="250" y="517" type="line"/>
      <point x="350" y="517" type="line"/>
      <point x="350" y="183" type="line"/>
      <point x="250" y="183" type="line"/>
    </contour>
  </outline>
</glyph>
<glyph name="SF060000" format="2">
  <advance width="600"/>
  <unicode hex="252C"/>
  <outline>
    <contour>
      <point x="-20" y="410" type="line"/>
      <point x="620" y="410" type="line"/>
      <point x="620" y="310" type="line"/>
      <point x="350" y="310" type="line"/>
      <point x="350" y="-310" type="line"/>
      <point x="250" y="-310" type="line"/>
      <point x="250" y="310" type="line"/>
      <point x="-20" y="310" type="line"/>
    </contour>
  </outline>
</glyph>
<glyph name="uni252F" format="2">
  <advance width="600"/>
  <unicode hex="252F"/>
  <outline>
    <contour>
      <point x="-20" y="260" type="line"/>
      <point x="-20" y="460" type="line"/>
      <point x="620" y="460" type="line"/>
      <point x="620" y="260" type="line"/>
      <point x="350" y="260" type="line"/>
      <point x="350" y="-311" type="line"/>
      <point x="250" y="-311" type="line"/>
      <point x="250" y="260" type="line"/>
    </contour>
  </outline>
</glyph>
<glyph name="uni2535" format="2">
  <advance width="600"/>
  <unicode hex="2535"/>
  <outline>
    <contour>
      <point x="-20" y="460" type="line"/>
      <point x="250" y="460" type="line"/>
      <point x="250" y="1010" type="line"/>
      <point x="350" y="1010" type="line"/>
      <point x="350" y="410" type="line"/>
      <point x="620" y="410" type="line"/>
      <point x="620" y="310" type="line"/>
      <point x="350" y="310" type="line"/>
      <point x="350" y="260" type="line"/>
      <point x="-20" y="260" type="line"/>
    </contour>
  </outline>
</glyph>
<glyph name="uni2536" format="2">
  <advance width="600"/>
  <unicode hex="2536"/>
  <outline>
    <contour>
      <point x="620" y="460" type="line"/>
      <point x="620" y="260" type="line"/>
      <point x="250" y="260" type="line"/>
      <point x="250" y="310" type="line"/>
      <point x="-20" y="310" type="line"/>
      <point x="-20" y="410" type="line"/>
      <point x="250" y="410" type="line"/>
      <point x="250" y="1010" type="line"/>
      <point x="350" y="1010" type="line"/>
      <point x="350" y="460" type="line"/>
    </contour>
  </outline>
</glyph>
<glyph name="uni254F" format="2">
  <advance width="600"/>
  <unicode hex="254F"/>
  <outline>
    <contour>
      <point x="200" y="863" type="line"/>
      <point x="400" y="863" type="line"/>
      <point x="400" y="450" type="line"/>
      <point x="200" y="450" type="line"/>
    </contour>
    <contour>
      <point x="200" y="260" type="line"/>
      <point x="400" y="260" type="line"/>
      <point x="400" y="-155" type="line"/>
      <point x="200" y="-155" type="line"/>
    </contour>
  </outline>
</glyph>
<glyph name="SF430000" format="2">
  <advance width="600"/>
  <unicode hex="2550"/>
  <outline>
    <contour>
      <point x="-20" y="510" type="line"/>
      <point x="620" y="510" type="line"/>
      <point x="620" y="410" type="line"/>
      <point x="-20" y="410" type="line"/>
    </contour>
    <contour>
      <point x="-20" y="310" type="line"/>
      <point x="620" y="310" type="line"/>
      <point x="620" y="210" type="line"/>
      <point x="-20" y="210" type="line"/>
    </contour>
  </outline>
  <guideline angle="90" x="311" y="0"/>
</glyph>
<glyph name="SF380000" format="2">
  <advance width="600"/>
  <unicode hex="255A"/>
  <outline>
    <contour>
      <point x="150" y="210" type="line"/>
      <point x="150" y="1010" type="line"/>
      <point x="250" y="1010" type="line"/>
      <point x="250" y="310" type="line"/>
      <point x="620" y="310" type="line"/>
      <point x="620" y="210" type="line"/>
    </contour>
    <contour>
      <point x="350" y="1010" type="line"/>
      <point x="450" y="1010" type="line"/>
      <point x="450" y="510" type="line"/>
      <point x="620" y="510" type="line"/>
      <point x="620" y="410" type="line"/>
      <point x="350" y="410" type="line"/>
    </contour>
  </outline>
</glyph>
<glyph name="SF540000" format="2">
  <advance width="600"/>
  <unicode hex="256A"/>
  <outline>
    <contour>
      <point x="-20" y="410" type="line"/>
      <point x="-20" y="510" type="line"/>
      <point x="250" y="510" type="line"/>
      <point x="250" y="1010" type="line"/>
      <point x="350" y="1010" type="line"/>
      <point x="350" y="510" type="line"/>
      <point x="620" y="510" type="line"/>
      <point x="620" y="410" type="line"/>
      <point x="350" y="410" type="line"/>
      <point x="350" y="310" type="line"/>
      <point x="620" y="310" type="line"/>
      <point x="620" y="210" type="line"/>
      <point x="350" y="210" type="line"/>
      <point x="350" y="-310" type="line"/>
      <point x="250" y="-310" type="line"/>
      <point x="250" y="210" type="line"/>
      <point x="-20" y="210" type="line"/>
      <point x="-20" y="310" type="line"/>
      <point x="250" y="310" type="line"/>
      <point x="250" y="410" type="line"/>
    </contour>
  </outline>
</glyph>
<glyph name="SF440000" format="2">
  <advance width="600"/>
  <unicode hex="256C"/>
  <outline>
    <contour>
      <point x="250" y="410" type="line"/>
      <point x="-20" y="410" type="line"/>
      <point x="-20" y="510" type="line"/>
      <point x="150" y="510" type="line"/>
      <point x="150" y="1010" type="line"/>
      <point x="250" y="1010" type="line"/>
    </contour>
    <contour>
      <point x="350" y="410" type="line"/>
      <point x="350" y="1010" type="line"/>
      <point x="450" y="1010" type="line"/>
      <point x="450" y="510" type="line"/>
      <point x="620" y="510" type="line"/>
      <point x="620" y="410" type="line"/>
    </contour>
    <contour>
      <point x="250" y="310" type="line"/>
      <point x="250" y="-310" type="line"/>
      <point x="150" y="-310" type="line"/>
      <point x="150" y="210" type="line"/>
      <point x="-20" y="210" type="line"/>
      <point x="-20" y="310" type="line"/>
    </contour>
    <contour>
      <point x="350" y="310" type="line"/>
      <point x="620" y="310" type="line"/>
      <point x="620" y="210" type="line"/>
      <point x="450" y="210" type="line"/>
      <point x="450" y="-310" type="line"/>
      <point x="350" y="-310" type="line"/>
    </contour>
  </outline>
</glyph>
<glyph name="uni2576" format="2">
  <advance width="600"/>
  <unicode hex="2576"/>
  <outline>
    <contour>
      <point x="250" y="410" type="line"/>
      <point x="620" y="410" type="line"/>
      <point x="620" y="310" type="line"/>
      <point x="250" y="310" type="line"/>
    </contour>
  </outline>
</glyph>
<glyph name="uni257C" format="2">
  <advance width="600"/>
  <unicode hex="257C"/>
  <outline>
    <contour>
      <point x="-20" y="410" type="line"/>
      <point x="250" y="410" type="line"/>
      <point x="250" y="460" type="line"/>
      <point x="620" y="460" type="line"/>
      <point x="620" y="260" type="line"/>
      <point x="250" y="260" type="line"/>
      <point x="250" y="310" type="line"/>
      <point x="-20" y="310" type="line"/>
    </contour>
  </outline>
</glyph>
<glyph name="uni257D" format="2">
  <advance width="600"/>
  <unicode hex="257D"/>
  <outline>
    <contour>
      <point x="250" y="410" type="line"/>
      <point x="250" y="1010" type="line"/>
      <point x="350" y="1010" type="line"/>
      <point x="350" y="410" type="line"/>
      <point x="400" y="410" type="line"/>
      <point x="400" y="-310" type="line"/>
      <point x="200" y="-310" type="line"/>
      <point x="200" y="410" type="line"/>
    </contour>
  </outline>
</glyph>
<glyph name="uni257F" format="2">
  <advance width="600"/>
  <unicode hex="257F"/>
  <outline>
    <contour>
      <point x="400" y="1011" type="line"/>
      <point x="400" y="310" type="line"/>
      <point x="350" y="310" type="line"/>
      <point x="350" y="-310" type="line"/>
      <point x="250" y="-310" type="line"/>
      <point x="250" y="310" type="line"/>
      <point x="200" y="310" type="line"/>
      <point x="200" y="1011" type="line"/>
    </contour>
  </outline>
</glyph>
<glyph name="uni2581" format="2">
  <advance width="600"/>
  <unicode hex="2581"/>
  <outline>
    <contour>
      <point x="-20" y="-310" type="line"/>
      <point x="-20" y="-115" type="line"/>
      <point x="620" y="-115" type="line"/>
      <point x="620" y="-310" type="line"/>
    </contour>
  </outline>
</glyph>
<glyph name="uni2587" format="2">
  <advance width="600"/>
  <unicode hex="2587"/>
  <outline>
    <contour>
      <point x="-20" y="-311" type="line"/>
      <point x="-20" y="815" type="line"/>
      <point x="620" y="815" type="line"/>
      <point x="620" y="-311" type="line"/>
    </contour>
  </outline>
</glyph>
<glyph name="uni2597" format="2">
  <advance width="600"/>
  <unicode hex="2597"/>
  <outline>
    <contour>
      <point x="300" y="350" type="line"/>
      <point x="620" y="350" type="line"/>
      <point x="620" y="-310" type="line"/>
      <point x="300" y="-310" type="line"/>
    </contour>
  </outline>
</glyph>
<glyph name=".notdef" format="2">
  <advance width="600" height="985"/>
  <outline>
    <contour>
      <point x="90" y="0" type="line"/>
      <point x="90" y="720" type="line"/>
      <point x="510" y="720" type="line"/>
      <point x="510" y="0" type="line"/>
    </contour>
    <contour>
      <point x="160" y="50" type="line"/>
      <point x="460" y="50" type="line"/>
      <point x="460" y="611" type="line"/>
    </contour>
    <contour>
      <point x="440" y="670" type="line"/>
      <point x="140" y="670" type="line"/>
      <point x="140" y="109" type="line"/>
    </contour>
  </outline>
</glyph>
<glyph name="acute.case" format="2">
  <advance width="600" height="985"/>
  <outline>
    <contour>
      <point x="425" y="936" type="line"/>
      <point x="275" y="936" type="line"/>
      <point x="175" y="795" type="line"/>
      <point x="305" y="795" type="line"/>
    </contour>
  </outline>
</glyph>
<glyph name="asciicircum_equal.liga" format="2">
  <advance width="600" height="985"/>
  <outline>
    <contour>
      <point x="-260" y="760" type="line"/>
      <point x="-140" y="760" type="line"/>
      <point x="-8" y="525" type="line"/>
      <point x="415" y="525" type="line"/>
      <point x="415" y="385" type="line"/>
      <point x="-70" y="385" type="line"/>
      <point x="-181" y="589" type="line" smooth="yes"/>
      <point x="-195" y="614"/>
      <point x="-196" y="670"/>
      <point x="-196" y="670" type="curve"/>
      <point x="-200" y="670" type="line"/>
      <point x="-200" y="670"/>
      <point x="-201" y="615"/>
      <point x="-215" y="589" type="curve" smooth="yes"/>
      <point x="-327" y="385" type="line"/>
      <point x="-470" y="385" type="line"/>
    </contour>
    <contour>
      <point x="-70" y="135" type="line"/>
      <point x="-70" y="275" type="line"/>
      <point x="415" y="275" type="line"/>
      <point x="415" y="135" type="line"/>
    </contour>
  </outline>
  <guideline angle="90" x="-600" y="0"/>
</glyph>
<glyph name="asciitilde_asciitilde.liga" format="2">
  <advance width="600" height="985"/>
  <outline>
    <contour>
      <point x="-430" y="260" type="line"/>
      <point x="-430" y="305" type="line" smooth="yes"/>
      <point x="-430" y="380"/>
      <point x="-374" y="435"/>
      <point x="-290" y="435" type="curve" smooth="yes"/>
      <point x="-180" y="435"/>
      <point x="-150" y="335"/>
      <point x="-95" y="335" type="curve" smooth="yes"/>
      <point x="-40" y="335"/>
      <point x="-20" y="435"/>
      <point x="100" y="435" type="curve" smooth="yes"/>
      <point x="220" y="435"/>
      <point x="230" y="335"/>
      <point x="285" y="335" type="curve" smooth="yes"/>
      <point x="309" y="335"/>
      <point x="325" y="350"/>
      <point x="325" y="373" type="curve" smooth="yes"/>
      <point x="325" y="405" type="line"/>
      <point x="435" y="405" type="line"/>
      <point x="435" y="360" type="line" smooth="yes"/>
      <point x="435" y="285"/>
      <point x="379" y="230"/>
      <point x="295" y="230" type="curve" smooth="yes"/>
      <point x="185" y="230"/>
      <point x="155" y="330"/>
      <point x="100" y="330" type="curve" smooth="yes"/>
      <point x="45" y="330"/>
      <point x="25" y="230"/>
      <point x="-95" y="230" type="curve" smooth="yes"/>
      <point x="-215" y="230"/>
      <point x="-225" y="330"/>
      <point x="-280" y="330" type="curve" smooth="yes"/>
      <point x="-304" y="330"/>
      <point x="-320" y="315"/>
      <point x="-320" y="292" type="curve" smooth="yes"/>
      <point x="-320" y="260" type="line"/>
    </contour>
  </outline>
</glyph>
<glyph name="asciitilde_asciitilde_greater.liga" format="2">
  <advance width="600" height="985"/>
  <outline>
    <contour>
      <point x="-1141" y="400" type="line"/>
      <point x="-1031" y="400" type="line"/>
      <point x="-1031" y="368" type="line" smooth="yes"/>
      <point x="-1031" y="345"/>
      <point x="-1018" y="330"/>
      <point x="-991" y="330" type="curve" smooth="yes"/>
      <point x="-936" y="330"/>
      <point x="-936" y="430"/>
      <point x="-816" y="430" type="curve" smooth="yes"/>
      <point x="-696" y="430"/>
      <point x="-676" y="330"/>
      <point x="-621" y="330" type="curve" smooth="yes"/>
      <point x="-566" y="330"/>
      <point x="-536" y="430"/>
      <point x="-426" y="430" type="curve" smooth="yes"/>
      <point x="-306" y="430"/>
      <point x="-286" y="330"/>
      <point x="-231" y="330" type="curve" smooth="yes"/>
      <point x="-176" y="330"/>
      <point x="-146" y="430"/>
      <point x="-36" y="430" type="curve" smooth="yes"/>
      <point x="84" y="430"/>
      <point x="94" y="330"/>
      <point x="149" y="330" type="curve" smooth="yes"/>
      <point x="204" y="330"/>
      <point x="224" y="430"/>
      <point x="334" y="430" type="curve" smooth="yes"/>
      <point x="390" y="430" type="line"/>
      <point x="389" y="330" type="line"/>
      <point x="334" y="330" type="line" smooth="yes"/>
      <point x="279" y="330"/>
      <point x="269" y="230"/>
      <point x="149" y="230" type="curve" smooth="yes"/>
      <point x="29" y="230"/>
      <point x="19" y="330"/>
      <point x="-36" y="330" type="curve" smooth="yes"/>
      <point x="-91" y="330"/>
      <point x="-111" y="230"/>
      <point x="-231" y="230" type="curve" smooth="yes"/>
      <point x="-351" y="230"/>
      <point x="-371" y="330"/>
      <point x="-426" y="330" type="curve" smooth="yes"/>
      <point x="-481" y="330"/>
      <point x="-501" y="230"/>
      <point x="-621" y="230" type="curve" smooth="yes"/>
      <point x="-741" y="230"/>
      <point x="-761" y="330"/>
      <point x="-816" y="330" type="curve" smooth="yes"/>
      <point x="-871" y="330"/>
      <point x="-891" y="230"/>
      <point x="-1001" y="230" type="curve" smooth="yes"/>
      <point x="-1085" y="230"/>
      <point x="-1141" y="280"/>
      <point x="-1141" y="355" type="curve" smooth="yes"/>
    </contour>
    <contour>
      <point x="376" y="328" type="curve"/>
      <point x="376" y="331" type="line"/>
      <point x="376" y="331"/>
      <point x="337" y="363"/>
      <point x="299" y="414" type="curve" smooth="yes"/>
      <point x="143" y="625" type="line"/>
      <point x="320" y="625" type="line"/>
      <point x="540" y="330" type="line"/>
      <point x="319" y="35" type="line"/>
      <point x="143" y="35" type="line"/>
      <point x="300" y="245" type="line" smooth="yes"/>
      <point x="337" y="295"/>
      <point x="376" y="328"/>
    </contour>
  </outline>
  <guideline angle="90" x="-1260" y="0"/>
</glyph>
<glyph name="asciitilde_equal.liga" format="2">
  <advance width="600" height="985"/>
  <outline>
    <contour>
      <point x="180" y="350" type="curve" smooth="yes"/>
      <point x="30" y="350"/>
      <point x="-80" y="445"/>
      <point x="-175" y="445" type="curve" smooth="yes"/>
      <point x="-226" y="445"/>
      <point x="-260" y="419"/>
      <point x="-260" y="380" type="curve" smooth="yes"/>
      <point x="-260" y="355" type="line"/>
      <point x="-370" y="355" type="line"/>
      <point x="-370" y="390" type="line" smooth="yes"/>
      <point x="-370" y="486"/>
      <point x="-294" y="550"/>
      <point x="-180" y="550" type="curve" smooth="yes"/>
      <point x="-30" y="550"/>
      <point x="80" y="455"/>
      <point x="175" y="455" type="curve" smooth="yes"/>
      <point x="226" y="455"/>
      <point x="260" y="481"/>
      <point x="260" y="520" type="curve" smooth="yes"/>
      <point x="260" y="545" type="line"/>
      <point x="370" y="545" type="line"/>
      <point x="370" y="510" type="line" smooth="yes"/>
      <point x="370" y="414"/>
      <point x="294" y="350"/>
    </contour>
    <contour>
      <point x="-370" y="260" type="line"/>
      <point x="370" y="260" type="line"/>
      <point x="370" y="120" type="line"/>
      <point x="-370" y="120" type="line"/>
    </contour>
  </outline>
  <guideline angle="90" x="-600" y="0"/>
</glyph>
<glyph name="asciitilde_greater.liga" format="2">
  <advance width="600" height="985"/>
  <outline>
    <contour>
      <point x="376" y="328" type="curve"/>
      <point x="376" y="331" type="line"/>
      <point x="376" y="331"/>
      <point x="337" y="363"/>
      <point x="299" y="414" type="curve" smooth="yes"/>
      <point x="143" y="625" type="line"/>
      <point x="320" y="625" type="line"/>
      <point x="540" y="330" type="line"/>
      <point x="319" y="35" type="line"/>
      <point x="143" y="35" type="line"/>
      <point x="300" y="245" type="line" smooth="yes"/>
      <point x="337" y="295"/>
      <point x="376" y="328"/>
    </contour>
    <contour>
      <point x="-530" y="400" type="line"/>
      <point x="-420" y="400" type="line"/>
      <point x="-420" y="368" type="line" smooth="yes"/>
      <point x="-420" y="345"/>
      <point x="-404" y="330"/>
      <point x="-380" y="330" type="curve" smooth="yes"/>
      <point x="-325" y="330"/>
      <point x="-330" y="430"/>
      <point x="-210" y="430" type="curve" smooth="yes"/>
      <point x="-90" y="430"/>
      <point x="-75" y="330"/>
      <point x="-20" y="330" type="curve" smooth="yes"/>
      <point x="35" y="330"/>
      <point x="60" y="430"/>
      <point x="170" y="430" type="curve" smooth="yes"/>
      <point x="290" y="430"/>
      <point x="305" y="330"/>
      <point x="360" y="330" type="curve" smooth="yes"/>
      <point x="425" y="330" type="line"/>
      <point x="425" y="230" type="line"/>
      <point x="360" y="230" type="line" smooth="yes"/>
      <point x="240" y="230"/>
      <point x="225" y="330"/>
      <point x="170" y="330" type="curve" smooth="yes"/>
      <point x="115" y="330"/>
      <point x="100" y="230"/>
      <point x="-20" y="230" type="curve" smooth="yes"/>
      <point x="-140" y="230"/>
      <point x="-155" y="330"/>
      <point x="-210" y="330" type="curve" smooth="yes"/>
      <point x="-265" y="330"/>
      <point x="-280" y="230"/>
      <point x="-390" y="230" type="curve" smooth="yes"/>
      <point x="-474" y="230"/>
      <point x="-530" y="280"/>
      <point x="-530" y="355" type="curve" smooth="yes"/>
    </contour>
  </outline>
  <guideline angle="90" x="-600" y="0"/>
</glyph>
<glyph name="bar_bar_bar.liga" format="2">
  <advance width="600" height="985"/>
  <outline>
    <contour>
      <point x="116" y="820" type="line"/>
      <point x="266" y="820" type="line"/>
      <point x="266" y="-120" type="line"/>
      <point x="116" y="-120" type="line"/>
    </contour>
    <contour>
      <point x="-382" y="820" type="line"/>
      <point x="-232" y="820" type="line"/>
      <point x="-232" y="-120" type="line"/>
      <point x="-382" y="-120" type="line"/>
    </contour>
    <contour>
      <point x="-865" y="820" type="line"/>
      <point x="-715" y="820" type="line"/>
      <point x="-715" y="-120" type="line"/>
      <point x="-865" y="-120" type="line"/>
    </contour>
  </outline>
</glyph>
<glyph name="bar_bar_equal.liga" format="2">
  <advance width="600" height="985"/>
  <outline>
    <contour>
      <point x="-460" y="750" type="line"/>
      <point x="-310" y="750" type="line"/>
      <point x="-310" y="525" type="line"/>
      <point x="371" y="525" type="line"/>
      <point x="371" y="385" type="line"/>
      <point x="-310" y="385" type="line"/>
      <point x="-310" y="275" type="line"/>
      <point x="371" y="275" type="line"/>
      <point x="371" y="135" type="line"/>
      <point x="-310" y="135" type="line"/>
      <point x="-310" y="-85" type="line"/>
      <point x="-460" y="-85" type="line"/>
    </contour>
    <contour>
      <point x="-890" y="750" type="line"/>
      <point x="-740" y="750" type="line"/>
      <point x="-740" y="-85" type="line"/>
      <point x="-890" y="-85" type="line"/>
    </contour>
  </outline>
  <guideline angle="90" x="-2271" y="0"/>
</glyph>
<glyph name="bar_bar_greater.liga" format="2">
  <advance width="600" height="985"/>
  <outline>
    <component base="bar_greater.liga" xOffset="-60"/>
    <contour>
      <point x="-840" y="750" type="line"/>
      <point x="-690" y="750" type="line"/>
      <point x="-690" y="-85" type="line"/>
      <point x="-840" y="-85" type="line"/>
    </contour>
  </outline>
</glyph>
<glyph name="bar_hyphen_greater.liga" format="2">
  <advance width="600" height="985"/>
  <outline>
    <contour>
      <point x="376" y="328" type="curve"/>
      <point x="376" y="331" type="line"/>
      <point x="376" y="331"/>
      <point x="337" y="363"/>
      <point x="299" y="414" type="curve" smooth="yes"/>
      <point x="143" y="625" type="line"/>
      <point x="320" y="625" type="line"/>
      <point x="540" y="330" type="line"/>
      <point x="319" y="35" type="line"/>
      <point x="143" y="35" type="line"/>
      <point x="300" y="245" type="line" smooth="yes"/>
      <point x="337" y="295"/>
      <point x="376" y="328"/>
    </contour>
    <contour>
      <point x="-1110" y="625" type="line"/>
      <point x="-960" y="625" type="line"/>
      <point x="-960" y="35" type="line"/>
      <point x="-1110" y="35" type="line"/>
    </contour>
    <contour>
      <point x="-990" y="400" type="line"/>
      <point x="451" y="400" type="line"/>
      <point x="451" y="260" type="line"/>
      <point x="-990" y="260" type="line"/>
    </contour>
  </outline>
</glyph>
<glyph name="breve.case" format="2">
  <advance width="600" height="985"/>
  <outline>
    <contour>
      <point x="299" y="880" type="curve" smooth="yes"/>
      <point x="341" y="880"/>
      <point x="365" y="899"/>
      <point x="365" y="935" type="curve"/>
      <point x="480" y="935" type="line"/>
      <point x="480" y="848"/>
      <point x="408" y="790"/>
      <point x="300" y="790" type="curve" smooth="yes"/>
      <point x="192" y="790"/>
      <point x="120" y="848"/>
      <point x="120" y="935" type="curve"/>
      <point x="235" y="935" type="line"/>
      <point x="235" y="899"/>
      <point x="259" y="880"/>
    </contour>
  </outline>
</glyph>
<glyph name="colon_equal.liga" format="2">
  <advance width="600" height="985"/>
  <outline>
    <contour>
      <point x="-80" y="275" type="line"/>
      <point x="470" y="275" type="line"/>
      <point x="470" y="135" type="line"/>
      <point x="-80" y="135" type="line"/>
    </contour>
    <contour>
      <point x="-80" y="525" type="line"/>
      <point x="470" y="525" type="line"/>
      <point x="470" y="385" type="line"/>
      <point x="-80" y="385" type="line"/>
    </contour>
    <contour>
      <point x="-450" y="180" type="curve" smooth="yes"/>
      <point x="-450" y="241"/>
      <point x="-410" y="281"/>
      <point x="-350" y="281" type="curve" smooth="yes"/>
      <point x="-290" y="281"/>
      <point x="-250" y="241"/>
      <point x="-250" y="180" type="curve" smooth="yes"/>
      <point x="-250" y="123"/>
      <point x="-290" y="85"/>
      <point x="-350" y="85" type="curve" smooth="yes"/>
      <point x="-410" y="85"/>
      <point x="-450" y="123"/>
    </contour>
    <contour>
      <point x="-450" y="474" type="curve" smooth="yes"/>
      <point x="-450" y="535"/>
      <point x="-410" y="575"/>
      <point x="-350" y="575" type="curve" smooth="yes"/>
      <point x="-290" y="575"/>
      <point x="-250" y="535"/>
      <point x="-250" y="474" type="curve" smooth="yes"/>
      <point x="-250" y="417"/>
      <point x="-290" y="379"/>
      <point x="-350" y="379" type="curve" smooth="yes"/>
      <point x="-410" y="379"/>
      <point x="-450" y="417"/>
    </contour>
  </outline>
</glyph>
<glyph name="colon_question.liga" format="2">
  <advance width="600" height="985"/>
  <outline>
    <contour>
      <point x="-350" y="85" type="curve" smooth="yes"/>
      <point x="-350" y="145"/>
      <point x="-309" y="186"/>
      <point x="-250" y="186" type="curve" smooth="yes"/>
      <point x="-191" y="186"/>
      <point x="-150" y="145"/>
      <point x="-150" y="85" type="curve" smooth="yes"/>
      <point x="-150" y="29"/>
      <point x="-191" y="-10"/>
      <point x="-250" y="-10" type="curve" smooth="yes"/>
      <point x="-309" y="-10"/>
      <point x="-350" y="29"/>
    </contour>
    <contour>
      <point x="-350" y="459" type="curve" smooth="yes"/>
      <point x="-350" y="519"/>
      <point x="-309" y="560"/>
      <point x="-250" y="560" type="curve" smooth="yes"/>
      <point x="-191" y="560"/>
      <point x="-150" y="519"/>
      <point x="-150" y="459" type="curve" smooth="yes"/>
      <point x="-150" y="403"/>
      <point x="-191" y="364"/>
      <point x="-250" y="364" type="curve" smooth="yes"/>
      <point x="-309" y="364"/>
      <point x="-350" y="403"/>
    </contour>
    <contour>
      <point x="430" y="510" type="curve" smooth="yes"/>
      <point x="430" y="387"/>
      <point x="346" y="305"/>
      <point x="221" y="305" type="curve"/>
      <point x="221" y="225" type="line"/>
      <point x="96" y="225" type="line"/>
      <point x="91" y="440" type="line"/>
      <point x="191" y="440" type="line" smooth="yes"/>
      <point x="246" y="440"/>
      <point x="280" y="466"/>
      <point x="280" y="510" type="curve" smooth="yes"/>
      <point x="280" y="554"/>
      <point x="246" y="580"/>
      <point x="190" y="580" type="curve" smooth="yes"/>
      <point x="25" y="580" type="line"/>
      <point x="25" y="720" type="line"/>
      <point x="180" y="720" type="line" smooth="yes"/>
      <point x="330" y="720"/>
      <point x="430" y="636"/>
    </contour>
    <contour>
      <point x="139" y="135" type="curve" smooth="yes"/>
      <point x="169" y="135" type="line" smooth="yes"/>
      <point x="214" y="135"/>
      <point x="244" y="107"/>
      <point x="244" y="64.5" type="curve" smooth="yes"/>
      <point x="244" y="22"/>
      <point x="214" y="-5"/>
      <point x="168" y="-5" type="curve" smooth="yes"/>
      <point x="139" y="-5" type="line" smooth="yes"/>
      <point x="94" y="-5"/>
      <point x="64" y="23"/>
      <point x="64" y="65" type="curve" smooth="yes"/>
      <point x="64" y="107"/>
      <point x="94" y="135"/>
    </contour>
  </outline>
  <guideline angle="90" x="-492" y="0"/>
</glyph>
<glyph name="colon_question_greater.liga" format="2">
  <advance width="600" height="985"/>
  <outline>
    <contour>
      <point x="-1000" y="85" type="curve" smooth="yes"/>
      <point x="-1000" y="145"/>
      <point x="-959" y="186"/>
      <point x="-900" y="186" type="curve" smooth="yes"/>
      <point x="-841" y="186"/>
      <point x="-800" y="145"/>
      <point x="-800" y="85" type="curve" smooth="yes"/>
      <point x="-800" y="29"/>
      <point x="-841" y="-10"/>
      <point x="-900" y="-10" type="curve" smooth="yes"/>
      <point x="-959" y="-10"/>
      <point x="-1000" y="29"/>
    </contour>
    <contour>
      <point x="-1000" y="459" type="curve" smooth="yes"/>
      <point x="-1000" y="519"/>
      <point x="-959" y="560"/>
      <point x="-900" y="560" type="curve" smooth="yes"/>
      <point x="-841" y="560"/>
      <point x="-800" y="519"/>
      <point x="-800" y="459" type="curve" smooth="yes"/>
      <point x="-800" y="403"/>
      <point x="-841" y="364"/>
      <point x="-900" y="364" type="curve" smooth="yes"/>
      <point x="-959" y="364"/>
      <point x="-1000" y="403"/>
    </contour>
    <contour>
      <point x="-471" y="135" type="curve" smooth="yes"/>
      <point x="-441" y="135" type="line" smooth="yes"/>
      <point x="-396" y="135"/>
      <point x="-366" y="107"/>
      <point x="-366" y="64.5" type="curve" smooth="yes"/>
      <point x="-366" y="22"/>
      <point x="-396" y="-5"/>
      <point x="-442" y="-5" type="curve" smooth="yes"/>
      <point x="-471" y="-5" type="line" smooth="yes"/>
      <point x="-516" y="-5"/>
      <point x="-546" y="23"/>
      <point x="-546" y="65" type="curve" smooth="yes"/>
      <point x="-546" y="107"/>
      <point x="-516" y="135"/>
    </contour>
    <contour>
      <point x="347" y="322" type="curve"/>
      <point x="347" y="332" type="line"/>
      <point x="347" y="332"/>
      <point x="294" y="335"/>
      <point x="256" y="350" type="curve" smooth="yes"/>
      <point x="-20" y="462" type="line"/>
      <point x="-20" y="599" type="line"/>
      <point x="440" y="401" type="line"/>
      <point x="440" y="258" type="line"/>
      <point x="-20" y="59" type="line"/>
      <point x="-20" y="195" type="line"/>
      <point x="256" y="307" type="line" smooth="yes"/>
      <point x="295" y="323"/>
      <point x="347" y="322"/>
    </contour>
    <contour>
      <point x="-180" y="510" type="curve" smooth="yes"/>
      <point x="-180" y="387"/>
      <point x="-264" y="305"/>
      <point x="-389" y="305" type="curve"/>
      <point x="-389" y="225" type="line"/>
      <point x="-514" y="225" type="line"/>
      <point x="-519" y="440" type="line"/>
      <point x="-419" y="440" type="line" smooth="yes"/>
      <point x="-364" y="440"/>
      <point x="-330" y="466"/>
      <point x="-330" y="510" type="curve" smooth="yes"/>
      <point x="-330" y="554"/>
      <point x="-364" y="580"/>
      <point x="-420" y="580" type="curve" smooth="yes"/>
      <point x="-585" y="580" type="line"/>
      <point x="-585" y="720" type="line"/>
      <point x="-430" y="720" type="line" smooth="yes"/>
      <point x="-280" y="720"/>
      <point x="-180" y="636"/>
    </contour>
  </outline>
  <guideline angle="90" x="-1120" y="0"/>
</glyph>
<glyph name="dieresis.case" format="2">
  <advance width="600" height="985"/>
  <outline>
    <contour>
      <point x="120" y="869" type="curve" smooth="yes"/>
      <point x="120" y="908"/>
      <point x="150" y="934"/>
      <point x="195" y="934" type="curve" smooth="yes"/>
      <point x="240" y="934"/>
      <point x="270" y="908"/>
      <point x="270" y="869" type="curve" smooth="yes"/>
      <point x="270" y="828"/>
      <point x="240" y="801"/>
      <point x="195" y="801" type="curve" smooth="yes"/>
      <point x="150" y="801"/>
      <point x="120" y="828"/>
    </contour>
    <contour>
      <point x="330" y="869" type="curve" smooth="yes"/>
      <point x="330" y="908"/>
      <point x="360" y="934"/>
      <point x="405" y="934" type="curve" smooth="yes"/>
      <point x="450" y="934"/>
      <point x="480" y="908"/>
      <point x="480" y="869" type="curve" smooth="yes"/>
      <point x="480" y="828"/>
      <point x="450" y="801"/>
      <point x="405" y="801" type="curve" smooth="yes"/>
      <point x="360" y="801"/>
      <point x="330" y="828"/>
    </contour>
  </outline>
</glyph>
<glyph name="equal_colon_equal.liga" format="2">
  <advance width="600" height="985"/>
  <outline>
    <contour>
      <point x="-50" y="275" type="line"/>
      <point x="520" y="275" type="line"/>
      <point x="520" y="135" type="line"/>
      <point x="-50" y="135" type="line"/>
    </contour>
    <contour>
      <point x="-50" y="525" type="line"/>
      <point x="520" y="525" type="line"/>
      <point x="520" y="385" type="line"/>
      <point x="-50" y="385" type="line"/>
    </contour>
    <contour>
      <point x="-1120" y="275" type="line"/>
      <point x="-550" y="275" type="line"/>
      <point x="-550" y="135" type="line"/>
      <point x="-1120" y="135" type="line"/>
    </contour>
    <contour>
      <point x="-1120" y="525" type="line"/>
      <point x="-550" y="525" type="line"/>
      <point x="-550" y="385" type="line"/>
      <point x="-1120" y="385" type="line"/>
    </contour>
    <contour>
      <point x="-400" y="180" type="curve" smooth="yes"/>
      <point x="-400" y="241"/>
      <point x="-360" y="281"/>
      <point x="-300" y="281" type="curve" smooth="yes"/>
      <point x="-240" y="281"/>
      <point x="-200" y="241"/>
      <point x="-200" y="180" type="curve" smooth="yes"/>
      <point x="-200" y="123"/>
      <point x="-240" y="85"/>
      <point x="-300" y="85" type="curve" smooth="yes"/>
      <point x="-360" y="85"/>
      <point x="-400" y="123"/>
    </contour>
    <contour>
      <point x="-400" y="474" type="curve" smooth="yes"/>
      <point x="-400" y="535"/>
      <point x="-360" y="575"/>
      <point x="-300" y="575" type="curve" smooth="yes"/>
      <point x="-240" y="575"/>
      <point x="-200" y="535"/>
      <point x="-200" y="474" type="curve" smooth="yes"/>
      <point x="-200" y="417"/>
      <point x="-240" y="379"/>
      <point x="-300" y="379" type="curve" smooth="yes"/>
      <point x="-360" y="379"/>
      <point x="-400" y="417"/>
    </contour>
  </outline>
</glyph>
<glyph name="equal_equal.liga" format="2">
  <advance width="600" height="985"/>
  <outline>
    <contour>
      <point x="-520" y="385" type="line"/>
      <point x="-520" y="525" type="line"/>
      <point x="520" y="525" type="line"/>
      <point x="520" y="385" type="line"/>
    </contour>
    <contour>
      <point x="-520" y="275" type="line"/>
      <point x="520" y="275" type="line"/>
      <point x="520" y="135" type="line"/>
      <point x="-520" y="135" type="line"/>
    </contour>
  </outline>
</glyph>
<glyph name="equal_exclam_equal.liga" format="2">
  <advance width="600" height="985"/>
  <outline>
    <component base="exclam" xOffset="-600"/>
    <contour>
      <point x="-50" y="275" type="line"/>
      <point x="520" y="275" type="line"/>
      <point x="520" y="135" type="line"/>
      <point x="-50" y="135" type="line"/>
    </contour>
    <contour>
      <point x="-50" y="525" type="line"/>
      <point x="520" y="525" type="line"/>
      <point x="520" y="385" type="line"/>
      <point x="-50" y="385" type="line"/>
    </contour>
    <contour>
      <point x="-1120" y="275" type="line"/>
      <point x="-550" y="275" type="line"/>
      <point x="-550" y="135" type="line"/>
      <point x="-1120" y="135" type="line"/>
    </contour>
    <contour>
      <point x="-1120" y="525" type="line"/>
      <point x="-550" y="525" type="line"/>
      <point x="-550" y="385" type="line"/>
      <point x="-1120" y="385" type="line"/>
    </contour>
  </outline>
</glyph>
<glyph name="equal_less_less.liga" format="2">
  <advance width="600" height="985"/>
  <outline>
    <contour>
      <point x="307" y="328" type="curve"/>
      <point x="307" y="331" type="line"/>
      <point x="307" y="331"/>
      <point x="347" y="364"/>
      <point x="384" y="414" type="curve" smooth="yes"/>
      <point x="540" y="625" type="line"/>
      <point x="363" y="625" type="line"/>
      <point x="145" y="330" type="line"/>
      <point x="366" y="35" type="line"/>
      <point x="540" y="35" type="line"/>
      <point x="383" y="245" type="line" smooth="yes"/>
      <point x="347" y="294"/>
      <point x="307" y="328"/>
    </contour>
    <contour>
      <point x="-53" y="328" type="curve"/>
      <point x="-53" y="331" type="line"/>
      <point x="-53" y="331"/>
      <point x="-13" y="364"/>
      <point x="24" y="414" type="curve" smooth="yes"/>
      <point x="180" y="625" type="line"/>
      <point x="3" y="625" type="line"/>
      <point x="-215" y="330" type="line"/>
      <point x="6" y="35" type="line"/>
      <point x="180" y="35" type="line"/>
      <point x="23" y="245" type="line" smooth="yes"/>
      <point x="-13" y="294"/>
      <point x="-53" y="328"/>
    </contour>
    <contour>
      <point x="-1100" y="385" type="line"/>
      <point x="-1100" y="525" type="line"/>
      <point x="-40" y="525" type="line"/>
      <point x="-40" y="385" type="line"/>
    </contour>
    <contour>
      <point x="-1100" y="275" type="line"/>
      <point x="-40" y="275" type="line"/>
      <point x="-40" y="135" type="line"/>
      <point x="-1100" y="135" type="line"/>
    </contour>
  </outline>
  <guideline angle="90" x="-1292" y="0"/>
</glyph>
<glyph name="exclam_equal_equal.liga" format="2">
  <advance width="600" height="985"/>
  <outline>
    <component base="equal_equal_equal.liga"/>
    <contour>
      <point x="-125" y="700" type="line"/>
      <point x="-3" y="700" type="line"/>
      <point x="-476" y="-34" type="line"/>
      <point x="-598" y="-34" type="line"/>
    </contour>
  </outline>
</glyph>
<glyph name="grave.case" format="2">
  <advance width="600" height="985"/>
  <outline>
    <contour>
      <point x="155" y="935" type="line"/>
      <point x="305" y="935" type="line"/>
      <point x="405" y="795" type="line"/>
      <point x="275" y="795" type="line"/>
    </contour>
  </outline>
</glyph>
<glyph name="greater_greater.liga" format="2">
  <advance width="600" height="985"/>
  <outline>
    <contour>
      <point x="40" y="594" type="line"/>
      <point x="485" y="403" type="line"/>
      <point x="485" y="253" type="line"/>
      <point x="40" y="65" type="line"/>
      <point x="40" y="200" type="line"/>
      <point x="291" y="301" type="line" smooth="yes"/>
      <point x="329" y="316"/>
      <point x="377" y="320"/>
      <point x="377" y="320" type="curve"/>
      <point x="377" y="330" type="line"/>
      <point x="377" y="330"/>
      <point x="329" y="335"/>
      <point x="291" y="351" type="curve" smooth="yes"/>
      <point x="40" y="455" type="line"/>
    </contour>
    <contour>
      <point x="-485" y="594" type="line"/>
      <point x="-40" y="403" type="line"/>
      <point x="-40" y="253" type="line"/>
      <point x="-485" y="65" type="line"/>
      <point x="-485" y="200" type="line"/>
      <point x="-234" y="301" type="line" smooth="yes"/>
      <point x="-196" y="316"/>
      <point x="-148" y="320"/>
      <point x="-148" y="320" type="curve"/>
      <point x="-148" y="330" type="line"/>
      <point x="-148" y="330"/>
      <point x="-196" y="335"/>
      <point x="-234" y="351" type="curve" smooth="yes"/>
      <point x="-485" y="455" type="line"/>
    </contour>
  </outline>
  <guideline angle="90" x="-682" y="0"/>
</glyph>
<glyph name="greater_greater_hyphen.liga" format="2">
  <advance width="600" height="985"/>
  <outline>
    <contour>
      <point x="-904" y="328" type="curve"/>
      <point x="-904" y="331" type="line"/>
      <point x="-904" y="331"/>
      <point x="-943" y="363"/>
      <point x="-981" y="414" type="curve" smooth="yes"/>
      <point x="-1137" y="625" type="line"/>
      <point x="-960" y="625" type="line"/>
      <point x="-740" y="330" type="line"/>
      <point x="-961" y="35" type="line"/>
      <point x="-1137" y="35" type="line"/>
      <point x="-980" y="245" type="line" smooth="yes"/>
      <point x="-943" y="295"/>
      <point x="-904" y="328"/>
    </contour>
    <contour>
      <point x="-534" y="328" type="curve"/>
      <point x="-534" y="331" type="line"/>
      <point x="-534" y="331"/>
      <point x="-573" y="363"/>
      <point x="-611" y="414" type="curve" smooth="yes"/>
      <point x="-767" y="625" type="line"/>
      <point x="-590" y="625" type="line"/>
      <point x="-370" y="330" type="line"/>
      <point x="-591" y="35" type="line"/>
      <point x="-767" y="35" type="line"/>
      <point x="-610" y="245" type="line" smooth="yes"/>
      <point x="-573" y="295"/>
      <point x="-534" y="328"/>
    </contour>
    <contour>
      <point x="-520" y="400" type="line"/>
      <point x="501" y="400" type="line"/>
      <point x="501" y="260" type="line"/>
      <point x="-520" y="260" type="line"/>
    </contour>
  </outline>
  <guideline angle="90" x="-1774" y="0"/>
</glyph>
<glyph name="greater_hyphen_greater.liga" format="2">
  <advance width="600"/>
  <outline>
    <contour>
      <point x="378" y="328" type="curve"/>
      <point x="378" y="331" type="line"/>
      <point x="378" y="331"/>
      <point x="338" y="364"/>
      <point x="301" y="414" type="curve" smooth="yes"/>
      <point x="145" y="625" type="line"/>
      <point x="322" y="625" type="line"/>
      <point x="540" y="330" type="line"/>
      <point x="319" y="35" type="line"/>
      <point x="145" y="35" type="line"/>
      <point x="302" y="245" type="line" smooth="yes"/>
      <point x="338" y="294"/>
      <point x="378" y="328"/>
    </contour>
    <contour>
      <point x="-907" y="328" type="curve"/>
      <point x="-907" y="331" type="line"/>
      <point x="-907" y="331"/>
      <point x="-947" y="364"/>
      <point x="-984" y="414" type="curve" smooth="yes"/>
      <point x="-1140" y="625" type="line"/>
      <point x="-963" y="625" type="line"/>
      <point x="-745" y="330" type="line"/>
      <point x="-966" y="35" type="line"/>
      <point x="-1140" y="35" type="line"/>
      <point x="-983" y="245" type="line" smooth="yes"/>
      <point x="-947" y="294"/>
      <point x="-907" y="328"/>
    </contour>
    <contour>
      <point x="390" y="260" type="line"/>
      <point x="-890" y="260" type="line"/>
      <point x="-890" y="400" type="line"/>
      <point x="390" y="400" type="line"/>
    </contour>
  </outline>
</glyph>
<glyph name="hungarumlaut.case" format="2">
  <advance width="600" height="985"/>
  <outline>
    <contour>
      <point x="340" y="936" type="line"/>
      <point x="190" y="936" type="line"/>
      <point x="90" y="795" type="line"/>
      <point x="220" y="795" type="line"/>
    </contour>
    <contour>
      <point x="570" y="936" type="line"/>
      <point x="420" y="936" type="line"/>
      <point x="320" y="795" type="line"/>
      <point x="450" y="795" type="line"/>
    </contour>
  </outline>
</glyph>
<glyph name="hyphen_asciitilde.liga" format="2">
  <advance width="600" height="985"/>
  <outline>
    <contour>
      <point x="65" y="210" type="curve" smooth="yes"/>
      <point x="-31" y="210"/>
      <point x="-95" y="270"/>
      <point x="-95" y="360" type="curve"/>
      <point x="15" y="375" type="line"/>
      <point x="15" y="339"/>
      <point x="37" y="315"/>
      <point x="70" y="315" type="curve" smooth="yes"/>
      <point x="150" y="315"/>
      <point x="200" y="450"/>
      <point x="340" y="450" type="curve" smooth="yes"/>
      <point x="436" y="450"/>
      <point x="500" y="392"/>
      <point x="500" y="305" type="curve" smooth="yes"/>
      <point x="500" y="235" type="line"/>
      <point x="390" y="235" type="line"/>
      <point x="390" y="290" type="line" smooth="yes"/>
      <point x="390" y="323"/>
      <point x="368" y="345"/>
      <point x="335" y="345" type="curve" smooth="yes"/>
      <point x="255" y="345"/>
      <point x="205" y="210"/>
    </contour>
    <contour>
      <point x="15" y="400" type="line"/>
      <point x="15" y="260" type="line"/>
      <point x="-495" y="260" type="line"/>
      <point x="-495" y="400" type="line"/>
    </contour>
  </outline>
</glyph>
<glyph name="hyphen_hyphen.liga" format="2">
  <advance width="600" height="985"/>
  <outline>
    <contour>
      <point x="-500" y="400" type="line"/>
      <point x="-50" y="400" type="line"/>
      <point x="-50" y="260" type="line"/>
      <point x="-500" y="260" type="line"/>
    </contour>
    <contour>
      <point x="50" y="400" type="line"/>
      <point x="500" y="400" type="line"/>
      <point x="500" y="260" type="line"/>
      <point x="50" y="260" type="line"/>
    </contour>
  </outline>
</glyph>
<glyph name="hyphen_hyphen_greater.liga" format="2">
  <advance width="600" height="985"/>
  <outline>
    <contour>
      <point x="-1100" y="400" type="line"/>
      <point x="310" y="400" type="line"/>
      <point x="306" y="404"/>
      <point x="303" y="409"/>
      <point x="299" y="414" type="curve" smooth="yes"/>
      <point x="143" y="625" type="line"/>
      <point x="320" y="625" type="line"/>
      <point x="540" y="330" type="line"/>
      <point x="319" y="35" type="line"/>
      <point x="143" y="35" type="line"/>
      <point x="300" y="245" type="line" smooth="yes"/>
      <point x="304" y="250"/>
      <point x="308" y="255"/>
      <point x="312" y="260" type="curve"/>
      <point x="-1100" y="260" type="line"/>
    </contour>
  </outline>
</glyph>
<glyph name="hyphen_less.liga" format="2">
  <advance width="600" height="985"/>
  <outline>
    <contour>
      <point x="307" y="328" type="curve"/>
      <point x="307" y="331" type="line"/>
      <point x="307" y="331"/>
      <point x="347" y="364"/>
      <point x="384" y="414" type="curve" smooth="yes"/>
      <point x="540" y="625" type="line"/>
      <point x="363" y="625" type="line"/>
      <point x="145" y="330" type="line"/>
      <point x="366" y="35" type="line"/>
      <point x="540" y="35" type="line"/>
      <point x="383" y="245" type="line" smooth="yes"/>
      <point x="347" y="294"/>
      <point x="307" y="328"/>
    </contour>
    <contour>
      <point x="-500" y="400" type="line"/>
      <point x="290" y="400" type="line"/>
      <point x="290" y="260" type="line"/>
      <point x="-500" y="260" type="line"/>
    </contour>
  </outline>
</glyph>
<glyph name="hyphen_less_less.liga" format="2">
  <advance width="600" height="985"/>
  <outline>
    <contour>
      <point x="307" y="328" type="curve"/>
      <point x="307" y="331" type="line"/>
      <point x="307" y="331"/>
      <point x="347" y="364"/>
      <point x="384" y="414" type="curve" smooth="yes"/>
      <point x="540" y="625" type="line"/>
      <point x="363" y="625" type="line"/>
      <point x="145" y="330" type="line"/>
      <point x="366" y="35" type="line"/>
      <point x="540" y="35" type="line"/>
      <point x="383" y="245" type="line" smooth="yes"/>
      <point x="347" y="294"/>
      <point x="307" y="328"/>
    </contour>
    <contour>
      <point x="-53" y="328" type="curve"/>
      <point x="-53" y="331" type="line"/>
      <point x="-53" y="331"/>
      <point x="-13" y="364"/>
      <point x="24" y="414" type="curve" smooth="yes"/>
      <point x="180" y="625" type="line"/>
      <point x="3" y="625" type="line"/>
      <point x="-215" y="330" type="line"/>
      <point x="6" y="35" type="line"/>
      <point x="180" y="35" type="line"/>
      <point x="23" y="245" type="line" smooth="yes"/>
      <point x="-13" y="294"/>
      <point x="-53" y="328"/>
    </contour>
    <contour>
      <point x="-1050" y="400" type="line"/>
      <point x="-80" y="400" type="line"/>
      <point x="-80" y="260" type="line"/>
      <point x="-1050" y="260" type="line"/>
    </contour>
  </outline>
</glyph>
